<svg width="65" height="64" viewBox="0 0 65 64" fill="none" xmlns="http://www.w3.org/2000/svg">
<g clip-path="url(#clip0_222_4432)">
<path d="M15.5 36C16.0186 36.0002 16.5283 36.1348 16.9793 36.3907C17.4303 36.6466 17.8074 37.0151 18.0735 37.4602C18.3397 37.9052 18.486 38.4117 18.4981 38.9301C18.5101 39.4486 18.3876 39.9613 18.1425 40.4183C17.8973 40.8752 17.5379 41.2608 17.0993 41.5375C16.6606 41.8141 16.1578 41.9723 15.6398 41.9967C15.1218 42.0211 14.6063 41.9107 14.1436 41.6764C13.681 41.4422 13.2869 41.092 13 40.66C13.326 40.1678 13.4999 39.5904 13.4999 39C13.4999 38.4096 13.326 37.8322 13 37.34C13.273 36.927 13.6444 36.5882 14.0808 36.3543C14.5172 36.1204 15.0049 35.9987 15.5 36Z" fill="white"/>
<path d="M13 37.34C13.326 37.8322 13.4999 38.4096 13.4999 39C13.4999 39.5904 13.326 40.1678 13 40.66C12.6435 41.1967 12.1237 41.6043 11.5175 41.8226C10.9113 42.0409 10.2509 42.0582 9.6341 41.872C9.0173 41.6858 8.47683 41.306 8.09268 40.7887C7.70852 40.2715 7.5011 39.6443 7.5011 39C7.5011 38.3557 7.70852 37.7285 8.09268 37.2113C8.47683 36.694 9.0173 36.3142 9.6341 36.128C10.2509 35.9418 10.9113 35.9591 11.5175 36.1774C12.1237 36.3957 12.6435 36.8033 13 37.34Z" fill="white"/>
<path d="M36.5 27H43.5V31H36.5V27Z" fill="white"/>
<path d="M7.5 27H30.5V31H7.5V27Z" fill="white"/>
<path d="M2.5 21H58.5V36L47.5 47L40.5 40L36.5 44L39.5 47H5.5C4.70435 47 3.94129 46.6839 3.37868 46.1213C2.81607 45.5587 2.5 44.7956 2.5 44V21ZM43.5 31V27H36.5V31H43.5ZM30.5 31V27H7.5V31H30.5ZM18.5 39C18.5004 38.3554 18.2931 37.7278 17.9089 37.2102C17.5247 36.6926 16.984 36.3125 16.3668 36.1263C15.7497 35.94 15.089 35.9575 14.4826 36.1761C13.8762 36.3947 13.3563 36.8028 13 37.34C12.6435 36.8033 12.1237 36.3957 11.5175 36.1774C10.9113 35.9591 10.2509 35.9418 9.63412 36.128C9.01732 36.3142 8.47685 36.694 8.0927 37.2113C7.70855 37.7285 7.50112 38.3557 7.50112 39C7.50112 39.6443 7.70855 40.2715 8.0927 40.7887C8.47685 41.306 9.01732 41.6858 9.63412 41.872C10.2509 42.0582 10.9113 42.0409 11.5175 41.8226C12.1237 41.6043 12.6435 41.1967 13 40.66C13.3563 41.1972 13.8762 41.6053 14.4826 41.8239C15.089 42.0425 15.7497 42.06 16.3668 41.8737C16.984 41.6875 17.5247 41.3074 17.9089 40.7898C18.2931 40.2722 18.5004 39.6446 18.5 39Z" fill="#EBEDF0"/>
<path d="M2.5 15V12C2.5 11.2044 2.81607 10.4413 3.37868 9.87868C3.94129 9.31607 4.70435 9 5.5 9H55.5C56.2956 9 57.0587 9.31607 57.6213 9.87868C58.1839 10.4413 58.5 11.2044 58.5 12V15H2.5Z" fill="#EBEDF0"/>
<path d="M62.5 40L51.5 51L47.5 55L43.5 51L39.5 47L36.5 44L40.5 40L47.5 47L58.5 36L62.5 40Z" fill="#8FF3AD"/>
<path d="M2.5 15H58.5V21H2.5V15Z" fill="#979FAF"/>
<path d="M58.5 32V12C58.5 11.2044 58.1839 10.4413 57.6213 9.87868C57.0587 9.31607 56.2956 9 55.5 9H5.5C4.70435 9 3.94129 9.31607 3.37868 9.87868C2.81607 10.4413 2.5 11.2044 2.5 12V44C2.5 44.7956 2.81607 45.5587 3.37868 46.1213C3.94129 46.6839 4.70435 47 5.5 47H33.5" stroke="#303E58" stroke-width="1.5" stroke-linecap="round" stroke-linejoin="round"/>
<path d="M2.5 15H58.5" stroke="#303E58" stroke-width="1.5" stroke-linecap="round" stroke-linejoin="round"/>
<path d="M2.5 21H58.5" stroke="#303E58" stroke-width="1.5" stroke-linecap="round" stroke-linejoin="round"/>
<path d="M7.5 27H30.5V31H7.5V27Z" stroke="#303E58" stroke-width="1.5" stroke-linecap="round" stroke-linejoin="round"/>
<path d="M36.5 27H43.5V31H36.5V27Z" stroke="#303E58" stroke-width="1.5" stroke-linecap="round" stroke-linejoin="round"/>
<path d="M13 40.66C13.326 40.1678 13.4999 39.5904 13.4999 39C13.4999 38.4096 13.326 37.8322 13 37.34C12.6435 36.8033 12.1237 36.3957 11.5175 36.1774C10.9113 35.9591 10.2509 35.9418 9.6341 36.128C9.0173 36.3142 8.47683 36.694 8.09268 37.2113C7.70852 37.7285 7.5011 38.3557 7.5011 39C7.5011 39.6443 7.70852 40.2715 8.09268 40.7887C8.47683 41.306 9.0173 41.6858 9.6341 41.872C10.2509 42.0582 10.9113 42.0409 11.5175 41.8226C12.1237 41.6043 12.6435 41.1967 13 40.66Z" stroke="#979FAF" stroke-width="1.5" stroke-linecap="round" stroke-linejoin="round"/>
<path d="M13 40.66C13.3565 41.1967 13.8763 41.6043 14.4825 41.8226C15.0887 42.0409 15.7491 42.0582 16.3659 41.872C16.9827 41.6858 17.5231 41.306 17.9073 40.7887C18.2915 40.2715 18.4989 39.6443 18.4989 39C18.4989 38.3557 18.2915 37.7285 17.9073 37.2113C17.5231 36.694 16.9827 36.3142 16.3659 36.128C15.7491 35.9418 15.0887 35.9591 14.4825 36.1774C13.8763 36.3957 13.3565 36.8033 13 37.34" stroke="#979FAF" stroke-width="1.5" stroke-linecap="round" stroke-linejoin="round"/>
<path d="M22.5 40H24.5" stroke="#303E58" stroke-width="1.5" stroke-linecap="round" stroke-linejoin="round"/>
<path d="M28.5 40H32.5" stroke="#303E58" stroke-width="1.5" stroke-linecap="round" stroke-linejoin="round"/>
<path d="M58.5 36L47.5 47L40.5 40L36.5 44L39.5 47L43.5 51L47.5 55L51.5 51L62.5 40L58.5 36Z" stroke="#303E58" stroke-width="1.5" stroke-linecap="round" stroke-linejoin="round"/>
</g>
<defs>
<clipPath id="clip0_222_4432">
<rect width="64" height="64" fill="white" transform="translate(0.5)"/>
</clipPath>
</defs>
</svg>
