<?xml version="1.0" encoding="UTF-8"?>
<svg id="Layer_1" xmlns="http://www.w3.org/2000/svg" version="1.1" viewBox="0 0 542.56 242.04">
  <!-- Generator: Adobe Illustrator 29.6.0, SVG Export Plug-In . SVG Version: 2.1.1 Build 207)  -->
  <defs>
    <style>
      .st0 {
        fill: #afaf8c;
      }

      .st1 {
        fill: #3c827d;
      }

      .st2 {
        isolation: isolate;
      }

      .st3 {
        fill: #544d60;
      }
    </style>
  </defs>
  <g class="st2">
    <g class="st2">
      <path class="st0" d="M178.4,169.8h-80.2v-2.81c7.24-.65,12.29-1.87,15.14-3.66,5.04-3.17,7.57-7.57,7.57-13.18,0-3.34-1.14-7.81-3.42-13.43l-2.07-5.13-11.72-28.81h-53.71l-6.35,16.85-3.05,7.57c-3.66,8.95-5.49,15.99-5.49,21.12,0,3.01.67,5.82,2.01,8.42,1.34,2.6,3.15,4.72,5.43,6.35,3.17,2.2,7.24,3.5,12.21,3.91v2.81H.06v-2.81c4.31-.24,8.1-1.3,11.35-3.17,3.25-1.87,6.43-4.88,9.52-9.03,2.6-3.34,5.15-7.63,7.63-12.88,2.48-5.25,5.76-13.12,9.83-23.62L83.07,3.17h6.96l53.1,128.3c3.99,9.69,7.16,16.6,9.52,20.75,2.36,4.15,4.92,7.28,7.69,9.4,1.95,1.46,4.19,2.58,6.71,3.36,2.52.77,6.31,1.45,11.35,2.01v2.81ZM101.74,97.77l-25.64-63.23-24.17,63.23h49.81Z"/>
    </g>
  </g>
  <g class="st2">
    <g class="st2">
      <path class="st1" d="M187.55,62.39v1.68c-2.78.15-5.05.54-6.81,1.17-1.76.64-3.3,1.66-4.61,3.08-1.61,1.66-2.67,3.71-3.19,6.15-.51,2.44-.77,6.64-.77,12.6v41.46c0,6.74.26,11.61.77,14.61.51,3,1.55,5.77,3.11,8.31,2.34,3.86,5.24,6.65,8.68,8.39,3.44,1.73,7.77,2.6,13,2.6s9.92-.77,14.54-2.31c4.61-1.54,8.46-3.67,11.54-6.41,1.9-1.71,3.31-3.56,4.21-5.57.9-2,1.5-4.54,1.79-7.62.19-2,.29-6.74.29-14.21v-40.94c0-5.03-.28-8.74-.84-11.13-.56-2.39-1.6-4.37-3.11-5.93-1.37-1.42-2.92-2.44-4.65-3.08-1.73-.63-3.99-1.03-6.77-1.17v-1.69h33.76v1.69c-2.78.15-5.04.54-6.77,1.17-1.73.64-3.29,1.66-4.65,3.08-1.51,1.56-2.55,3.55-3.11,5.97-.56,2.42-.84,6.12-.84,11.1v46.22c0,6.84-.52,11.88-1.57,15.12-1.05,3.25-3.14,6.21-6.26,8.9-7.13,6.15-17.31,9.23-30.54,9.23s-24-2.9-30.54-8.72c-4.25-3.71-6.79-8.59-7.62-14.65-.29-2.15-.44-6.03-.44-11.65v-44.46c0-5.03-.27-8.74-.81-11.13-.54-2.39-1.59-4.37-3.15-5.93-1.32-1.42-2.85-2.44-4.58-3.08-1.73-.63-4.02-1.03-6.85-1.17v-1.69h46.8,0Z"/>
      <path class="st1" d="M254.72,160.68c2.83-.15,5.1-.54,6.81-1.17,1.71-.63,3.25-1.66,4.61-3.08,1.51-1.56,2.55-3.55,3.11-5.97.56-2.42.84-6.12.84-11.1v-53.98c0-5.37-.33-9.3-.99-11.79s-1.94-4.54-3.85-6.15c-2.39-2-5.91-3.12-10.55-3.37v-1.69h40.28c8.94,0,14.62.1,17.07.29,10.3.78,19.04,3.71,26.22,8.79,6.83,4.83,12.16,11.17,15.97,19.01,3.81,7.84,5.71,16.37,5.71,25.6,0,6.74-1.09,13.1-3.26,19.08s-5.19,10.95-9.05,14.9c-5.42,5.57-12.18,9.11-20.29,10.62-6.06,1.12-12.23,1.68-18.53,1.68h-54.13v-1.68h0ZM286.14,64.66v72.8c0,4.79.27,8.42.81,10.91.54,2.49,1.54,4.61,3,6.37,3.12,3.81,8.2,5.71,15.23,5.71,6.01,0,11.14-.99,15.42-2.97,4.27-1.98,8.09-5.19,11.46-9.63,3.32-4.3,5.85-9.22,7.58-14.76,1.73-5.54,2.6-11.44,2.6-17.69,0-6.93-1.05-13.53-3.15-19.78-2.1-6.25-5.1-11.72-9.01-16.41-5.42-6.49-11.89-10.79-19.41-12.89-4.1-1.12-9.33-1.68-15.67-1.68h-8.86Z"/>
      <path class="st1" d="M417.32,62.39v1.68c-2.78.15-5.04.54-6.77,1.17-1.73.64-3.28,1.66-4.65,3.08-1.9,1.95-3.08,4.66-3.52,8.13-.29,2.59-.44,5.57-.44,8.94v53.98c0,4.05.19,7.25.59,9.6.39,2.34,1.02,4.22,1.9,5.64,1.27,1.95,2.9,3.41,4.91,4.36,2,.95,4.66,1.53,7.98,1.72v1.68h-46.8v-1.68c2.83-.15,5.11-.55,6.85-1.21,1.73-.66,3.26-1.67,4.58-3.04,1.56-1.56,2.61-3.54,3.15-5.93.54-2.39.81-6.1.81-11.13v-53.98c0-5.03-.27-8.74-.81-11.13-.54-2.39-1.59-4.37-3.15-5.93-1.32-1.42-2.86-2.44-4.61-3.08-1.76-.63-4.03-1.03-6.81-1.17v-1.69h46.8Z"/>
      <path class="st1" d="M427.94,113.04c0-8.21,1.76-15.82,5.27-22.83s8.64-13.13,15.38-18.36c5.03-3.86,10.45-6.83,16.26-8.9,5.81-2.08,11.67-3.12,17.58-3.12,7.52,0,14.8,1.65,21.83,4.95s13.18,7.95,18.46,13.96c8.59,9.77,12.89,20.89,12.89,33.35,0,6.26-1.12,12.29-3.37,18.1-2.25,5.82-5.52,11.12-9.81,15.9-5.27,5.96-11.51,10.58-18.71,13.85-7.2,3.27-14.73,4.91-22.6,4.91s-15.19-1.59-22.27-4.76c-7.08-3.18-13.18-7.67-18.31-13.49-4.05-4.54-7.17-9.71-9.34-15.5-2.17-5.79-3.26-11.81-3.26-18.07h0ZM445.66,114.14c0,14.17,3.86,26.12,11.57,35.84,3.47,4.35,7.14,7.51,11.02,9.49,3.88,1.98,8.36,2.97,13.44,2.97s9.63-.98,13.51-2.93c3.88-1.96,7.58-5.13,11.1-9.53,7.71-9.77,11.57-21.82,11.57-36.13,0-7.87-1.06-15.31-3.19-22.32-2.12-7.01-5.12-12.96-8.97-17.85-3.12-4-6.6-6.93-10.44-8.76-3.83-1.83-8.36-2.75-13.59-2.75s-9.66.9-13.44,2.71c-3.79,1.81-7.29,4.74-10.51,8.79-3.86,4.84-6.84,10.78-8.94,17.81-2.1,7.04-3.15,14.59-3.15,22.65h0Z"/>
    </g>
  </g>
  <g class="st2">
    <g class="st2">
      <path class="st3" d="M152.07,238.2v-1.12c1.89-.1,3.41-.37,4.57-.81,1.15-.44,2.17-1.11,3.05-2.03,1.04-1.04,1.74-2.36,2.1-3.96.36-1.6.54-4.07.54-7.42v-35.99c0-3.35-.18-5.83-.54-7.42-.36-1.6-1.06-2.91-2.1-3.96-.88-.94-1.9-1.63-3.08-2.05-1.17-.42-2.69-.68-4.54-.78v-1.12h32.08c3.26,0,5.39.03,6.4.1,3.71.29,6.79,1.17,9.23,2.64,2.12,1.3,3.75,3.01,4.91,5.13,1.15,2.12,1.73,4.49,1.73,7.13,0,4.26-1.32,7.76-3.96,10.5-.94,1.01-2.02,1.85-3.22,2.51-1.21.67-2.95,1.41-5.23,2.22,3.12.52,5.55,1.09,7.27,1.71,1.73.62,3.29,1.48,4.69,2.59,2.08,1.69,3.7,3.8,4.86,6.32,1.15,2.52,1.73,5.25,1.73,8.18s-.59,5.67-1.78,8.13c-1.19,2.46-2.84,4.44-4.96,5.93-1.92,1.34-4.21,2.26-6.86,2.78-2.65.52-6.39.78-11.21.78h-35.69,0ZM173.02,173.06v29h3.96c1.85,0,3.78-.13,5.76-.39,1.73-.26,3.12-.57,4.18-.93,1.06-.36,2.03-.85,2.9-1.46,1.66-1.24,2.94-2.82,3.83-4.76.9-1.94,1.34-4.08,1.34-6.42,0-2.47-.46-4.82-1.39-7.06-.93-2.23-2.16-3.96-3.69-5.2-1.34-1.07-2.86-1.81-4.57-2.2s-4.3-.59-7.79-.59h-4.54ZM173.02,203.58v20.12c0,2.44.17,4.41.51,5.91.34,1.5.9,2.77,1.68,3.81,1.66,2.18,4.51,3.27,8.54,3.27,5.24,0,9.38-1.43,12.43-4.3,3.04-2.86,4.57-6.77,4.57-11.72,0-2.83-.47-5.46-1.42-7.89-.94-2.43-2.21-4.29-3.81-5.59-2.93-2.41-7.52-3.61-13.77-3.61h-8.74,0Z"/>
      <path class="st3" d="M250.56,171.54v1.12c-1.85.1-3.36.36-4.52.78-1.16.42-2.19,1.11-3.1,2.05-1.27,1.3-2.05,3.11-2.34,5.42-.2,1.73-.29,3.71-.29,5.96v35.99c0,2.7.13,4.83.39,6.4.26,1.56.68,2.82,1.27,3.76.85,1.3,1.94,2.27,3.27,2.9,1.33.63,3.11,1.02,5.32,1.15v1.12h-31.2v-1.12c1.89-.1,3.41-.37,4.57-.81,1.15-.44,2.17-1.11,3.05-2.03,1.04-1.04,1.74-2.36,2.1-3.96.36-1.6.54-4.07.54-7.42v-35.99c0-3.35-.18-5.83-.54-7.42-.36-1.6-1.06-2.91-2.1-3.96-.88-.94-1.9-1.63-3.08-2.05-1.17-.42-2.69-.68-4.54-.78v-1.12h31.2Z"/>
      <path class="st3" d="M281.71,173.06c-2.05,0-4.25.07-6.59.2-5.01.26-8.75.9-11.21,1.9-2.46,1.01-4.48,2.75-6.08,5.23-1.46,2.28-2.59,5.37-3.37,9.28l-1.12-.1.88-18.02h66.06l.88,18.02-1.12.1c-.88-4.52-2.25-7.95-4.13-10.28-1.87-2.33-4.6-3.99-8.18-5.01-3.03-.88-8.15-1.32-15.38-1.32v49.81c0,3.32.19,5.79.56,7.4s1.07,2.94,2.08,3.98c.91.94,1.95,1.63,3.1,2.05,1.15.42,2.66.68,4.52.78v1.12h-31.2v-1.12c1.89-.1,3.41-.36,4.57-.78,1.15-.42,2.19-1.11,3.1-2.05,1.01-1.04,1.7-2.36,2.08-3.96.37-1.6.56-4.07.56-7.42v-49.81h0Z"/>
      <path class="st3" d="M376.49,171.54l.83,16.11-1.12.05c-.42-2.73-1.12-5-2.1-6.79-.98-1.79-2.39-3.37-4.25-4.74-1.53-1.14-3.34-1.94-5.42-2.42-2.08-.47-4.85-.71-8.3-.71h-11.18v29.3h2.93c2.96,0,5.19-.2,6.69-.59s2.72-1.09,3.66-2.1c.91-.94,1.59-2.06,2.03-3.35.44-1.29.81-3.18,1.1-5.69l1.12.05-.2,26.17h-1.12c-.29-2.51-.73-4.52-1.29-6.05-.57-1.53-1.36-2.83-2.37-3.91-.98-1.04-2.25-1.81-3.81-2.29s-3.55-.73-5.96-.73h-2.78v11.18c0,4.46.11,7.71.34,9.74.23,2.04.67,3.74,1.32,5.1,1.11,2.34,2.79,4.06,5.05,5.15,2.26,1.09,5.25,1.64,8.96,1.64,3.91,0,7.18-.5,9.81-1.49,2.64-.99,4.79-2.53,6.45-4.61,1.17-1.4,2.12-2.99,2.86-4.79.73-1.79,1.41-4.15,2.03-7.08l1.12.05-.64,19.43h-58.25v-1.12c1.86-.1,3.36-.36,4.52-.78,1.15-.42,2.19-1.11,3.1-2.05,1.01-1.04,1.7-2.37,2.08-3.98s.56-4.08.56-7.4v-35.99c0-3.32-.19-5.79-.56-7.4s-1.07-2.94-2.08-3.98c-.88-.94-1.9-1.63-3.05-2.05-1.15-.42-2.68-.68-4.57-.78v-1.12h52.49Z"/>
      <path class="st3" d="M388.69,238l.15-20.17,1.12.05c1.37,5.13,2.99,9.18,4.88,12.13,3.55,5.46,8.01,8.18,13.38,8.18,3.74,0,6.84-1.25,9.28-3.76,2.44-2.51,3.66-5.68,3.66-9.52,0-1.66-.27-3.35-.81-5.08s-1.26-3.21-2.17-4.44c-.94-1.27-2.27-2.49-3.98-3.66s-4.32-2.65-7.84-4.44c-3.09-1.56-5.46-2.88-7.1-3.96-1.64-1.07-2.97-2.16-3.98-3.27-2.8-3.06-4.2-6.79-4.2-11.18,0-2.7.55-5.31,1.64-7.81,1.09-2.51,2.61-4.65,4.57-6.45,3.45-3.19,7.54-4.79,12.26-4.79,1.53,0,2.95.15,4.25.46,1.3.31,3.04.92,5.23,1.83,1.63.65,2.73,1.07,3.32,1.24.59.18,1.11.27,1.56.27,1.14,0,1.9-.83,2.3-2.49h1.12l.34,19.38h-1.12c-.88-3.09-1.63-5.46-2.27-7.1-.63-1.64-1.39-3.16-2.27-4.57-1.59-2.54-3.35-4.42-5.27-5.64s-4.13-1.83-6.63-1.83c-3.64,0-6.52,1.24-8.63,3.71-.88,1.01-1.57,2.2-2.07,3.57-.5,1.37-.76,2.74-.76,4.1,0,5.44,3.49,9.82,10.48,13.15l6.87,3.32c5.3,2.51,9.12,5.28,11.46,8.31,2.67,3.39,4,7.33,4,11.83,0,2.99-.6,5.85-1.81,8.57-1.69,3.8-4.23,6.73-7.62,8.79-3.39,2.06-7.37,3.09-11.96,3.09-4.2,0-8.24-.83-12.11-2.49-2.02-.88-3.22-1.38-3.61-1.51-.39-.13-.83-.2-1.32-.2-1.56,0-2.64.78-3.22,2.34h-1.12,0Z"/>
    </g>
  </g>
</svg>