<svg width="73" height="72" viewBox="0 0 73 72" fill="none" xmlns="http://www.w3.org/2000/svg">
<path d="M31.4763 46.1477C31.3448 46.1825 31.2214 46.2428 31.1132 46.3253C31.005 46.4078 30.9141 46.5109 30.8458 46.6285C30.7775 46.7462 30.733 46.8762 30.715 47.011C30.6969 47.1459 30.7056 47.283 30.7406 47.4145C31.0209 48.4307 30.9583 49.5109 30.5625 50.488C30.1667 51.465 29.4598 52.2843 28.5513 52.819C28.3565 52.9313 28.2057 53.1067 28.1238 53.3162C28.0448 53.5174 28.0302 53.7382 28.0823 53.9481C28.1343 54.1579 28.2503 54.3463 28.4142 54.4872C28.5782 54.6282 28.7819 54.7146 28.9971 54.7346C29.2124 54.7546 29.4285 54.7071 29.6156 54.5987C30.9085 53.8321 31.914 52.6622 32.4776 51.2687C33.0464 49.8753 33.1397 48.3331 32.7431 46.8812C32.6715 46.6173 32.4984 46.3924 32.2616 46.2557C32.1444 46.1855 32.0142 46.1398 31.8789 46.1212C31.7435 46.1026 31.6081 46.1117 31.4763 46.1477Z" fill="white"/>
<path d="M24.1206 68.4608C26.028 69.4194 28.1627 69.8335 30.2901 69.6578C33.091 69.4421 35.7759 68.4481 38.042 66.7879C40.3081 65.1277 42.0652 62.8673 43.1151 60.2618L47.3001 49.9365C48.3619 47.3397 48.6767 44.4978 48.2092 41.7315C47.7416 38.9653 46.5103 36.3847 44.6541 34.281C43.3572 32.7956 41.7033 31.6649 39.8484 30.9957C37.9935 30.3265 35.9987 30.1408 34.0521 30.456C32.1356 30.7501 30.3251 31.526 28.7903 32.7109C27.2555 33.8958 26.0467 35.4511 25.2771 37.2308L25.1579 37.494C24.1428 39.974 23.9713 42.719 24.6696 45.306C24.8008 45.7788 24.7722 46.2816 24.5883 46.7365C24.4044 47.1914 24.0755 47.5728 23.6526 47.8215C21.3587 49.174 19.5758 51.2464 18.5811 53.7165L18.4641 54C17.7662 55.8162 17.5426 57.7803 17.8142 59.7069C18.0858 61.6335 18.8438 63.4591 20.0166 65.0115C21.0968 66.4657 22.5023 67.6469 24.1206 68.4608ZM28.7466 48.4178C29.3009 47.0565 29.3957 45.5516 29.0166 44.1315L28.9874 44.1383C28.5499 42.5279 28.6446 40.8192 29.2574 39.267L29.3654 39.042C29.8246 37.9475 30.559 36.9903 31.4973 36.2634C32.4356 35.5364 33.5459 35.0644 34.7204 34.893C35.9178 34.6969 37.1455 34.8095 38.2873 35.2201C39.4291 35.6308 40.4472 36.3259 41.2454 37.2398C42.5505 38.7183 43.4162 40.5324 43.7446 42.477C44.073 44.4217 43.8511 46.4194 43.1039 48.2445L38.9189 58.5675C38.1817 60.3967 36.9488 61.9838 35.3589 63.1505C33.7689 64.3171 31.8849 65.017 29.9189 65.1713C28.7126 65.2686 27.5014 65.0573 26.3993 64.5574C25.2971 64.0575 24.3403 63.2854 23.6189 62.3138C22.9069 61.3956 22.4406 60.3113 22.2639 59.163C22.0871 58.0147 22.2058 56.8403 22.6086 55.7505L22.7324 55.4535C23.3624 53.8763 24.4964 52.551 25.9589 51.6848C27.2189 50.9265 28.1954 49.7813 28.7489 48.4178M56.4239 18.315C56.3572 18.1678 56.2562 18.0387 56.1294 17.9385C56.0025 17.8383 55.8536 17.7699 55.6949 17.739C55.4264 17.687 55.1482 17.741 54.9186 17.8898C54.8046 17.9641 54.7064 18.0602 54.6296 18.1726C54.5527 18.2849 54.4988 18.4113 54.4709 18.5445C54.1559 20.0363 54.3359 21.5415 54.9749 22.9095C55.6109 24.2739 56.6805 25.3894 58.0169 26.082C58.2598 26.21 58.5435 26.2363 58.8058 26.1551C59.068 26.0739 59.2873 25.8918 59.4153 25.6489C59.5433 25.406 59.5695 25.1223 59.4883 24.86C59.4071 24.5978 59.225 24.3785 58.9821 24.2505C58.0473 23.7637 57.2984 22.9831 56.8508 22.0289C56.4032 21.0747 56.2816 19.9998 56.5049 18.9698C56.5439 18.7483 56.5157 18.5203 56.4239 18.315Z" fill="white"/>
<path d="M58.2943 41.2582H58.58C60.5027 41.2616 62.3962 40.7875 64.0904 39.8783C65.7846 38.9692 67.2264 37.6535 68.2865 36.0495C69.3713 34.4356 70.0272 32.5721 70.1926 30.6345C70.3579 28.697 70.0272 26.7493 69.2315 24.975L69.1235 24.75C67.9953 22.3226 66.097 20.3357 63.7235 19.098C63.2877 18.8703 62.9385 18.5062 62.7292 18.0612C62.52 17.6163 62.4622 17.1151 62.5648 16.6342C63.1198 14.0134 62.7981 11.2828 61.649 8.86272L61.5365 8.63772C60.6748 6.89339 59.3828 5.39735 57.7826 4.29076C56.1823 3.18417 54.3265 2.5035 52.3903 2.31297C50.4305 2.10485 48.45 2.39903 46.6354 3.1678C44.8207 3.93657 43.2316 5.15462 42.0178 6.70722C40.2783 8.91176 39.1891 11.5584 38.8731 14.3487C38.557 17.1391 39.0267 19.9622 40.229 22.5L44.9788 32.58C46.1674 35.1244 48.0441 37.2856 50.3968 38.8192C52.7495 40.3528 55.4865 41.1977 58.2943 41.2582ZM48.0523 7.46772C49.0275 6.99625 50.0966 6.75091 51.1798 6.74997C52.5093 6.74591 53.8129 7.11705 54.9409 7.82074C56.0689 8.52443 56.9754 9.53211 57.5563 10.728L57.581 10.782C58.3105 12.3144 58.5161 14.0442 58.166 15.705C57.8548 17.1441 58.0259 18.6456 58.653 19.9778C59.28 21.31 60.3281 22.3987 61.6355 23.076C63.184 23.894 64.4135 25.2075 65.1275 26.8065C65.6209 27.8862 65.8267 29.0751 65.725 30.2578C65.6233 31.4405 65.2175 32.5768 64.547 33.5565C63.8747 34.5631 62.9594 35.3841 61.8858 35.9433C60.8121 36.5025 59.6148 36.782 58.4045 36.756C56.4317 36.714 54.51 36.1209 52.8567 35.0438C51.2034 33.9666 49.8845 32.4484 49.049 30.6607L44.3015 20.583C43.4567 18.8 43.1264 16.8165 43.3478 14.856C43.5693 12.8954 44.3336 11.0356 45.5548 9.48597C46.223 8.63097 47.0758 7.94247 48.0523 7.46772ZM21.158 15.786C21.2724 15.6735 21.4108 15.5885 21.5628 15.5375C21.7148 15.4864 21.8765 15.4706 22.0355 15.4912C22.31 15.5272 22.5553 15.6712 22.706 15.9007C22.8722 16.1188 22.945 16.394 22.9085 16.6657C22.7059 18.1552 22.0197 19.537 20.9555 20.5987C19.8938 21.6629 18.512 22.3491 17.0225 22.5517C16.8855 22.575 16.7451 22.5705 16.6098 22.5385C16.4745 22.5065 16.347 22.4476 16.2349 22.3653C16.1228 22.2831 16.0284 22.1791 15.9573 22.0596C15.8862 21.9402 15.8398 21.8076 15.821 21.6698C15.8021 21.5321 15.8112 21.392 15.8475 21.2578C15.8839 21.1236 15.9469 20.998 16.0328 20.8887C16.1186 20.7793 16.2256 20.6883 16.3473 20.6211C16.469 20.5539 16.603 20.5119 16.7413 20.4975C17.7859 20.3592 18.7559 19.8804 19.501 19.1352C20.2462 18.3901 20.725 17.4201 20.8633 16.3755C20.8962 16.1526 20.9995 15.9461 21.158 15.786Z" fill="white"/>
<path d="M10.7432 37.3794C13.4069 38.2749 16.2682 38.4058 19.0025 37.7571C21.7368 37.1085 24.2345 35.7062 26.212 33.7096L34.087 25.8346C36.0806 23.8556 37.4806 21.3582 38.1287 18.6249C38.7769 15.8916 38.6472 13.0315 37.7545 10.3681C37.1347 8.49407 36.0482 6.80857 34.5973 5.47026C33.1464 4.13195 31.3789 3.18485 29.461 2.7181C27.5675 2.24523 25.5849 2.2621 23.6998 2.76714C21.8147 3.27217 20.0892 4.24873 18.6857 5.60485L18.4832 5.8141C16.6185 7.69559 15.4145 10.1313 15.052 12.7554C14.9855 13.2414 14.762 13.6924 14.4156 14.0397C14.0691 14.387 13.6186 14.6115 13.1327 14.6791C10.4854 15.0376 8.02997 16.2585 6.14648 18.1531L5.95298 18.3534C4.60316 19.7544 3.6325 21.4762 3.13254 23.3563C2.63259 25.2364 2.61984 27.2129 3.09548 29.0993C3.5623 31.0157 4.50962 32.7815 5.84809 34.2301C7.18655 35.6788 8.86976 36.7627 10.7432 37.3794ZM19.507 13.3831C19.741 11.6979 20.5195 10.1386 21.7232 8.9371L21.8357 8.81785C22.6867 7.99155 23.7361 7.39831 24.8829 7.09526C26.0297 6.79222 27.2351 6.78958 28.3832 7.0876C29.5612 7.37681 30.6463 7.96073 31.5366 8.7845C32.4268 9.60828 33.0931 10.6449 33.4727 11.7969C34.0994 13.6676 34.1902 15.6764 33.7349 17.596C33.2797 19.5157 32.2965 21.2697 30.8965 22.6599L23.0215 30.5349C21.6313 31.934 19.8776 32.9166 17.9584 33.3714C16.0391 33.8263 14.031 33.7353 12.1607 33.1089C11.0093 32.7298 9.97357 32.0636 9.15117 31.1731C8.32877 30.2826 7.7469 29.1972 7.46048 28.0194C7.162 26.8422 7.17605 25.6075 7.50122 24.4374C7.82639 23.2674 8.45142 22.2025 9.31448 21.3481C10.5075 20.1383 12.0694 19.3602 13.7537 19.1364C15.2108 18.9407 16.5632 18.2717 17.6027 17.2321C18.6423 16.1926 19.3114 14.8402 19.507 13.3831Z" fill="white"/>
</svg>
