<?xml version="1.0" encoding="UTF-8"?>
<svg xmlns="http://www.w3.org/2000/svg" width="1071" height="474" viewBox="0 0 1071 474">
  <g id="Layer_1" data-name="Layer 1">
    <path d="M725.967,448.864h-76.521c-1.708-3.834-.231-32.194,1.449-35.952,2.438-5.451,5.876-10.365,6.923-16.319.991-5.632.94-11.376,1.818-17.062.925-5.987,1.729-11.814,2.271-17.86.481-5.366,5.093-11.304,10.993-12.515,4.63-2.453,10.111-1.233,15.454,6.453.438.63.776,1.331.983,2.07,1.289,4.598-1.899,3.015-3.965.287-2.297-3.033-2.909-6.429-4.613-9.773-3.061-6.008-12.086-10.46-18.012-13.096-4.546-2.023-12.552-3.874-17.454-.953-.685.408-1.493-.285-1.154-1.006,1.952-4.149,4.506-8.232,5.62-12.554.607-2.357.348-4.572,1.353-6.911,1.401-3.262,2.346-3.927,1.948-7.631-1.152-10.709-9.869-21.197-18.616-26.614-5.994-3.712-9.601-8.576-13.097-14.562-1.175-2.011-2.92-4.339-1.487-6.543,2.263-3.481,5.177-.873,6.517,1.66,7.431,14.043,6.891,82.536,7.282,88.304.132,1.953,2.667,2.646,3.762,1.024,1.411-2.09,2.837-4.802,3.549-7.035.48-1.507-1.37-2.699-2.493-1.584-3.412,3.386-6.294,9.71-8.691,12.644-4.089,5.005-7.436,9.351-11.231,14.668-9.687,13.573-10.551,30.35-10.551,30.35,0,0-23.897,10.26-28.043,10.739-4.346.502-65.407-3.094-80.829-4.16-.608-.042-.649-.921-.047-1.02,3.46-.573,9.624-1.253,18.99-1.118,19.579.282,49.321,2.941,52.72,3.703,5.103,1.144,11.648,1.595,16.239,4.315,2.445,1.448,4.771,3.097,6.569,5.129.677.765.343.848,1.444.423.694-.268,1.225-.837,1.842-1.231,4.522-2.884,10.085-4.824,15.179-6.384,1.31-.401,2.289-.665,2.605-2.138.386-1.797-.022-4.202-.25-5.979-.153-1.199-.496-7.099-1.85-7.76-1.114-.543-1.386,1.109-1.523,1.979-.526,3.322.169,7.349.761,10.641.328,1.824,1.065,4.078,2.62,5.233,2.016,1.497,4.882,1.507,7.227,1.046,2.327-.458,3.403-1.399,3.892-3.64.656-3.005.367-6.262.339-9.325-.012-1.358.23-5.044-1.011-5.909-.914-.636-1.419.465-1.671,1.284-.416,1.352-.162,3.131-.154,4.528.012,2.182-.013,4.451.213,6.622.185,1.779-.078,5.83,1.877,6.846,1.575.818,4.844.237,6.4-.102,2.452-.535,3.747-1.675,4.549-3.996.884-2.558,1.142-5.304,1.03-8.024-.036-.864.037-4.274-1.12-4.291-.698-.01-1.268,1.45-1.453,1.965-.878,2.45-.983,5.765-1.011,8.343-.022,2.078-.354,3.803,2.128,4.002,1.602.129,3.764.217,5.279-.343,1.408-.52,2.552-2.367,3.176-3.698.924-1.97,1.457-4.701,1.505-6.852.024-1.083.383-5.897-1.536-4.108-1.48,1.38-1.861,4.947-1.921,6.763-.049,1.496-.726,5.061.953,5.647.971.338,3.265.153,4.258.003,1.89-.285,2.821-1.749,3.668-3.269,1.582-2.837,2.624-5.969,2.88-9.208.152-1.926,1.375-3.174,2.059-4.862.833-2.055.858-3.931.863-6.133.007-2.98-.583-5.911-.857-8.852-.3-3.222-.148-6.281,1.255-9.258.572-1.214,1.756-3.969,3.522-3.309.872.326,16.064,9.727,23.947,8.308,5.605-1.009,5.721-3.43,7.479-8.066,1.688-4.453,3.11-8.5,4.079-13.182,1.645-7.949,4.027-15.741,5.622-23.668,1.819-9.036,2.659-18.207,3.57-27.253.792-7.864.722-13.844-5.269-19.634-6.193-5.985-10.22-12.76-14.57-20.039-4.836-8.092-9.192-16.712-12.775-25.384-3.305-7.997-3.728-16.998-6.837-25.219-5.26-13.911-17.588-25.612-29.402-34.249-9.718-7.104-20.447-16.045-32.712-17.779-3.901-.551-8.1-1.004-11.452-3.204-2.459-1.614-3.95-4.417-5.671-6.836-1.525-2.143-1.359-3.648-1.942-6.248-.51-2.273-2.389-4.081-2.924-6.103-.503-1.899,1.175-3.625,1.989-5.471.842-1.911,1.719-4.036,2.306-6.04,1.141-3.9,1.552-8.624,2.354-12.581.287-1.417.239-2.806.109-3.879-.15-1.229-1.873-1.318-2.168-.115-.239.974-.379,2.426-.301,4.586.174,4.802.995,7.631,5.136,4.783,3.938-2.708,5.219-6.57,6.563-10.993.867-2.852,1.599-11.092-4.59-8.909-4.463,1.574-3.727,4.88-8.541,5.567-6.182.685-14.066,1.026-20.057.033-15.229-2.526-32.38-2.197-44.208-13.277,10.144,4.519,11.084,4.876,16.175,5.827,10.703,1.999,21.849,2.672,32.713,2.673,5.705,0,11.724.163,17.302-1.291,2.13-.555,6.661-2.083,7.683-4.111.594-1.18,1.901-19.392,2.119-23.648,1.287.321,2.93.303,4.322.22,8.476-.501,19.669-4.843,21.31-14.271,1.234-7.093-2.616-13.88-8.48-17.616-4.617-2.941-10.664-1.401-15.15,1.27-3.434,2.045-5.466,5.155-7.386,8.548-1.052,1.859-3.823,7.023-2.805,9.256,2.061,4.518,11.809-7.966,12.77-9.984,2.7-5.668,1.82-12.313,1.262-18.342-.542-5.859-2.569-9.735-6.885-13.686-7.491-6.858-18.798-9.286-26.925-2.293-6.09,5.24-7.872,15.368-5.573,22.906.795,2.606,2.748,4.85,3.966,1.419,1.133-3.189-.331-7.829-1.745-10.701-4.002-8.129-17.659-14.744-26.731-11.994-4.52,1.37-7.915,7.927-9.433,12.023-1.144,3.088-2.857,14.077,1.531,15.581,5.75,1.971,2.636-11.554,1.95-13.567-2.15-6.307-8.586-12.562-15.647-12.072-9.236.642-21.009,10.318-21.103,19.964-.05,5.204.866,10.904,3.13,15.627,2.551,5.323,8.721,11.179,15.118,10.447-.726,4.893-.637,24.094-.058,27.307.501,2.781,2.103,11.852,5.271,12.485.33-6.535-.435-12.226-4.651-17.475-3.932-4.894-5.489-.529-5.066,3.85.418,4.326,2.119,8.494,3.248,12.648,1.127,4.148,1.356,8.136,6.244,7.814.28,8.215-.966,16.45,2.175,24.166,2.99,7.346,6.533,12.892,11.753,18.788,4.574,5.167,5.593,11.639,13.829,11.625,6.858-.011,12.066-1.227,17.16-6.048,5.443-5.151,11.709-11.633,14.85-18.519-.566,4.075-.137,8.026-2.426,11.8-3.209,5.292-7.488,10.928-11.959,15.209-1.595,1.527-3.194,2.708-5.1,3.75-1.398.764-3.99,1.583-4.736,2.932-1.263,2.283,1.171,7.911-1.092,9.698-1.314,1.038-7.981-.243-9.317-1.259-2.234-1.698-1.262-6.303-1.382-8.952-.246-5.401-3.073-5.747-6.7-8.606-2.844-2.242-5.295-5.081-7.378-8.041-4.065-5.777-8.571-13.749-8.479-20.981-2.631,7.737-13.728,9.555-20.712,11.753-5.146,1.619-10.372,2.934-15.38,4.84-5.326,2.027-10.894,3.35-16.547,4.071-21.129,2.698-47.735,20.433-55.21,32.054-1.373,2.135-3.899,3.194-6.408,2.811-3.685-.563-7.467-.859-11.097.194-6.722,1.95-30.708,21.914-36.327,27.822-5.1,5.362-11.214,10.498-15.498,16.548-6.767,9.556-8.23,23.691-8.23,34.753,0,10.286,3.292,16.135,7.156,25.766,1.367,3.408,3.543,7.374,7.204,8.477,3.977,1.197,13.06-1.067,15.469-4.477-5.722,2.581-23.612,4.75-19.117-6.249,4.118-10.075,13.871-17.982,23.984-21.257,7.63-2.471,17.447-4.437,24.809-.134,2.203,1.288,7.241,5.989,7.241,5.989,0,0,4.556-4.089,6.458-5.796,4.572-4.104,18.707-15.052,20.671-17.058,2.166-2.213,5.924-.809,6.16,2.278.375,4.903-.65,11-.65,14.804,0,9.315.053,18.606.361,27.904.217,6.551.481,13.325,1.543,19.81.726,4.441,2.32,8.631,2.441,13.174.119,4.471-1.952,22.721-7.66,23.52,2.437-8.133,10.092-19.432,4.975-27.927-1.979-3.285-6.015-5.253-8.332-8.567-1.957-2.798-3.311-6.108-4.792-9.18-4.565-9.471-12.098-18.51-19.271-26.201-3.061-3.282-6.19-6.26-9.975-9.656-1.471-1.32-8.517-3.507-18.426-1.002-10.337,2.613-20.126,10.123-20.319,10.967-.767,3.354,9.657,10.441,11.946,12.072,5.628,4.011,11.543,8.705,17.955,11.48,2.226.963,5.01,1.062,6.833,2.302,2.004,1.364,2.149,3.488,3.156,5.521,3.275,6.613,1.551,7.051-2.259,12.875-3.594,5.494-.201,11.635,5.852,13.1-3.502,5.861,2.595,9.902,7.896,10.023-1.187,2.989-.26,6.253,2.816,7.701,2.552,1.201,5.013-.13,7.569-.135-1.952,1.688-2.926,4.632-.593,6.384,1.687,1.267,4.83.307,6.732-.374,1.571-.562,9.706-5.578,9.706-5.578,0,0,17.012,20.948,24.95,27.433,7.003,5.72,16.071,5.595,23.422,10.389,8.604,5.61,30.808,28.039,29.043,31.834-1.394,2.998-23.732,1.835-23.732,1.835,0,0,34.177,2.558,39.748,2.195,12.017-.784,24.046-1.967,35.909-4.031,6.215-1.081,23.835-4.1,28.094-9.133.968,8.264-2.222,23.033-10.323,26.342-34.713,14.178-95.986,8.487-113.032,7.074-15.075-1.25-25.708-13.597-26.885-28.934-.105-1.365.132-2.687.547-3.9,1.312-3.839,4.493-6.74,8.339-8.029,2.162-.725,4.734-1.346,6.667-1.075,4.824.677,11.012,4.018,14.947,6.681,2.383,1.613,7.415,5.755,8.908,9.248.332.777-.564,1.535-1.284,1.094-6.383-3.909-18.669-17.344-20.445-22.643-1.334-3.981-2.823-8.819-5.409-12.205-3.056-4.002-23.683-25.05-23.683-25.05,0,0,2.939,25.541,3.408,36.308.264,6.065,1.844,11.914,1.994,18.016.1,4.077-2.437,24.403-.997,27.891h-107.379" style="fill: none; stroke: #260707; stroke-linecap: round; stroke-linejoin: round; stroke-width: 2px;"/>
  </g>
  <g id="Layer_4" data-name="Layer 4">
    <path d="M1068.775,446.868c-5.923-2.781-12.514-3.809-18.992-4.243-6.866-.46-13.784-.173-20.659-.089-14.919.182-29.85.762-44.752,1.488-6.769.33-13.53.765-20.29,1.227-.432-.103-.863-.22-1.294-.335.037-.264.048-.538.026-.824-.168-2.148-1.892-3.772-3.64-4.817-4.095-2.449-9.058-3.534-13.73-4.18-5.105-.706-10.27-.929-15.413-1.192-2.614-.133-5.229-.25-7.845-.353-.145-.006-.271.017-.387.052-.041-.218-.083-.436-.131-.653-.232-1.056-.546-2.093-.941-3.1-.315-.804-1.136-1.943-.941-2.834.198-.906,1.274-1.356,2.295-1.597,1.478.172,3.005-.019,4.453-.274,2.45-.432,4.892-.922,7.297-1.561,4.648-1.235,9.225-3.062,13.028-6.062,3.412-2.692,6.182-6.376,7.392-10.585.65-2.26.618-4.45.545-6.774-.042-1.353.169-2.58.714-3.824.523-1.194,1.158-2.342,1.724-3.517,2.244-4.659,4.104-9.503,5.525-14.475.698-2.441,1.357-4.909,1.843-7.401.053-.271.006-.507-.098-.704,1.545.238,3.101.271,4.654.072,3.327-.428,6.425-1.821,9.005-3.958,2.367-1.961,4.931-5.243,4.906-8.509.303-1.364-.085-2.865-1.359-3.639-.266-.162-.546-.274-.833-.35-.161-.085-.332-.154-.508-.212,1.562-1.823,2.981-3.777,4.201-5.844,1.304-2.21,2.86-4.78,2.181-7.444-.628-2.465-2.75-4.176-4.995-5.129-.064-.027-.129-.051-.193-.077,2.757-6.264,5.504-12.532,8.242-18.803,1.129-2.584,2.255-5.169,3.391-7.751.578-1.313,1.155-2.626,1.733-3.939.462-1.05.849-2.114-.06-3.056-1.539-1.595-4.338-1.407-6.208-.63-2.187.909-3.771,2.728-5.099,4.627-5.602,8.01-8.571,17.576-10.988,26.95-5.009-1.247-10.29-2.255-15.45-1.801-.738-.402-1.523-.676-2.403-.768-1.301-.136-2.605.102-3.878.356-1.156.231-2.342.485-3.524.775-.021-.116-.064-.235-.14-.356-2.348-3.727-4.685-7.46-7.055-11.174-1.045-1.638-2.039-3.332-3.151-4.928.252.054.504.105.755.164.764.179,1.289-.458,1.176-1.176-.656-4.169-1.33-8.334-2.006-12.499-.322-1.982-.527-4.024-.984-5.979-.301-1.291-.94-2.687-2.276-3.167-.848-.304-1.717-.123-2.533.188-.992.378-1.97.8-2.951,1.204-1.902.782-3.804,1.564-5.707,2.345-3.896,1.598-7.786,3.21-11.688,4.792-3.365,1.364-6.718,2.804-10.16,3.977.903-.605,1.953-1.054,2.848-1.483,2.317-1.112,4.599-2.293,6.862-3.513,4.481-2.416,8.842-5.068,13.031-7.962,2.416-1.669,4.773-3.416,7.076-5.238.383-.303.405-.966.175-1.359-5.011-8.579-7.998-18.097-10.477-27.665-.703-2.716-1.363-5.443-2.024-8.169-.218-.9-1.698-.958-1.879,0-1.571,8.288-4.868,16.121-9.714,22.974,1.388-4.095,2.76-8.196,4.119-12.3.949-2.865,1.883-5.734,2.815-8.604l1.375-4.234c.456-1.405.977-2.81,1.26-4.263.548-2.811-.163-5.274-1.485-7.753-1.287-2.414-2.586-4.768-3.526-7.348-.93-2.553-1.609-5.199-2.035-7.882-.209-1.315-.342-2.641-.414-3.97-.075-1.394.012-2.796-.086-4.188-.104-1.49-.549-2.807-1.466-3.992-.894-1.155-2.021-2.12-3.08-3.118-2.153-2.029-4.316-4.045-6.502-6.038,1.691-1.101,3.174-2.519,4.343-4.173.49-.693,1.004-1.464,1.167-2.311.173-.896-.211-1.693-.23-2.574-.013-.582.077-1.135.257-1.645,1.169-.906,2.218-1.996,3.124-3.218,2.695-3.635,3.81-8.143,4.81-12.488.172-.069.344-.147.516-.238,1.099-.583,2.012-1.51,3.211-1.899,1.366-.443,2.823-.352,4.235-.255,2.628.18,5.137.206,7.633-.764,1.164-.452,2.256-1.047,3.263-1.751-.699.781-1.491,1.481-2.399,2.058-4.318,2.747-9.612,2.604-14.529,2.444-.397-.013-.775.292-.878.669-.998,3.65,3.968,5.17,6.593,5.723,3.461.729,7.087.647,10.53-.14,3.359-.769,6.562-2.251,9.292-4.354,3.015-2.323,5.402-5.417,5.238-9.405-.086-2.1-.737-4.125-1.513-6.06-.819-2.043-1.73-4.05-2.61-6.066-1.715-3.932-3.581-7.834-5.125-11.837-.768-1.991-1.128-3.914-1.2-6.042-.064-1.897-.256-3.722-1.096-5.448-1.335-2.746-3.977-4.651-6.677-5.916-1.43-.67-2.915-1.216-4.426-1.671-.713-.215-1.432-.41-2.155-.592-.818-.206-1.732-.354-2.435-.853-.662-.47-.933-1.293-1.234-2.013-.374-.893-.768-1.776-1.197-2.645-.805-1.63-1.714-3.209-2.728-4.718-4.094-6.097-9.83-11.042-16.789-13.543-3.56-1.279-7.411-1.896-11.193-1.694-1.901.101-3.785.411-5.621.911-.796.217-1.444.459-2.025-.271-.544-.683-.996-1.437-1.554-2.114-4.153-5.045-10.887-7.923-17.398-7.58-3.834.202-7.239,1.725-10.773,3.076-1.763.674-3.588,1.294-5.473,1.504-2.125.237-4.27.051-6.4.03-1.947-.019-4.047.029-5.875.774-1.895.773-2.912,2.255-3.12,4.275-.417,4.052.154,8.362,1.183,12.284.323,1.23.719,2.433,1.163,3.62-1.325.118-2.592.816-3.497,1.886-1.748,2.067-1.644,4.905-.817,7.346.794,2.347,2.02,4.794,3.788,6.562,1.569,1.569,3.606,2.303,5.691,2.914,1.349.395,2.887.763,4.077,1.578-.337.23-.644.524-.901.892-.815,1.168-.859,2.739.175,3.786,1.016,1.03,2.604-.558,1.587-1.587-.4-.405.308-1.621.816-1.397.95.418,2.185-.49,1.538-1.538-1.978-3.203-5.864-3.353-9.019-4.682-1.864-.785-3.134-2.218-4.115-3.952-1.078-1.905-2.219-4.268-1.933-6.518.205-1.617,1.987-3.796,3.812-2.887,1.079.537,1.996-.522,1.554-1.554-1.509-3.523-2.465-7.316-2.793-11.135-.161-1.876-.344-3.961-.016-5.826.299-1.7,1.885-2.19,3.403-2.416,3.974-.592,7.987.336,11.948-.573,3.643-.836,6.936-2.72,10.544-3.671,5.845-1.54,12.386.097,16.962,4.014,1.142.977,2.182,2.084,3.04,3.319.412.592.791,1.215,1.365,1.667.827.651,1.778.736,2.788.545,1.738-.328,3.382-.848,5.16-.992,1.755-.142,3.526-.102,5.274.109,6.961.838,13.276,4.479,17.993,9.583,2.294,2.482,4.209,5.292,5.767,8.288.765,1.471,1.309,3.05,2.072,4.516.897,1.722,2.514,2.376,4.305,2.821,4.975,1.236,11.891,3.372,12.835,9.276.308,1.925.113,3.882.511,5.805.398,1.925,1.195,3.742,1.979,5.536,1.673,3.829,3.353,7.655,5.03,11.483.793,1.81,1.654,3.602,2.323,5.463.653,1.818,1.178,3.822.823,5.761-.605,3.304-3.603,5.733-6.329,7.373-5.577,3.354-12.721,4.231-18.89,2.055-.82-.289-2.184-.955-2.466-1.914,3.899.056,7.982-.024,11.675-1.327,3.995-1.409,6.941-4.442,8.614-8.292.636-1.463,1.097-2.98,1.457-4.524.253-.852.434-1.733.518-2.641.05-.547-.5-1.004-1.009-1.009-.499-.005-.819.326-.95.747l-.023-.006c-.654,4.456-3.778,8.4-7.917,10.162-2.317.986-4.625.964-7.092.803-1.457-.095-2.93-.147-4.364.179-1.285.293-2.327.978-3.395,1.712-.389.267-.791.54-1.227.728-4.747-1.683-9.497-3.359-14.242-5.047-.229-.103-.457-.207-.686-.309-5.546-2.494-11.024-5.209-16.301-8.235-2.946-1.689-5.826-3.48-8.722-5.252-2.706-1.657-5.773-3.239-9.032-2.563-.676.14-.928,1.116-.415,1.572,10.263,9.115,23.881,13.256,36.569,17.753.165.059.33.117.495.175,1.759.807,3.525,1.597,5.303,2.361,1.74.747,3.589,1.733,5.457,1.91-1.52,6.362-3.993,14.171-11.197,15.594-2.067.408-4.222.062-6.256-.368-1.914-.405-3.817-.869-5.721-1.315-3.701-.866-7.396-1.756-11.073-2.72-7.359-1.929-14.666-4.151-21.691-7.092-3.436-1.439-6.8-3.065-10.047-4.891-3.22-1.811-6.462-3.796-9.324-6.145-.739-.606-1.352-1.262-1.529-2.229-.19-1.038.009-2.149.16-3.18.347-2.36.759-4.711,1.15-7.064.798-4.804,1.738-9.592,2.86-14.331.163-.689-.831-.957-1.055-.291-1.465,4.339-2.743,8.73-3.752,13.198-.494,2.187-.897,4.384-1.245,6.599-.075.475-.163.965-.247,1.462-.051.065-.095.14-.126.232-2.896,8.832-11.105,14.664-14.172,23.429-3.408,9.743,1.051,20.119,7.436,27.515,2.864,3.318,6.161,6.205,9.561,8.962-7.145-2.639-12.664-8.832-15.664-15.825-2.251-5.248-3.274-10.959-3.649-16.632-.181-2.74-.215-5.489-.172-8.234.039-2.497.082-5.034.672-7.473.621-2.567,1.894-5.035,4.357-6.235,2.05-.999,4.633-1.065,6.269.703.918.992,2.257-.444,1.453-1.453-1.825-2.287-4.865-3.158-7.702-2.822-3.283.389-6.084,2.323-8.431,4.545-4.841,4.582-9.492,10.396-10.176,17.252-.077.774-.084,1.545-.048,2.309-.637-1.65-1-3.413-1.039-5.237-.019-.857-.898-1.306-1.633-.937-17.709,8.896-35.532,17.572-53.282,26.386-1.813.9-3.489,2.046-2.481,4.321.548,1.237,1.394,2.381,2.097,3.535.307.504.614,1.009.921,1.513-3.046-.326-6.265-.092-8.354,2.37-1.433,1.689-2.068,3.935-2.842,5.97-.913,2.403-1.826,4.807-2.73,7.214-3.664,9.754-7.202,19.563-10.201,29.545-5.883,19.579-9.793,39.743-11.695,60.097-.929,9.943-1.769,20.184.295,30.042,1.941,9.269,6.828,17.787,11.594,25.864,4.296,7.281,9.271,14.429,15.936,19.745,1.675,1.336,3.433,2.579,5.299,3.634,1.883,1.064,4.103,1.934,6.271,1.244.66-.21,1.285-.536,1.89-.917-1.8,9.798-2.238,19.753-1.307,29.706.268,2.87.67,5.733,1.162,8.573.36,2.081.68,4.447,2.229,6.028.269.274.56.499.866.69-6.962-.184-13.925-.312-20.89-.356-21.094-.132-42.193.163-63.275.885-5.886.202,31.591,1.957,25.705,2.141-2.942.092,23.367,1.092,20.426,1.202-1.732.065,23.842-1.041,23.319,1.01-.174.681-48.5.179-47.83.223,7.955.525,24.371,4.197,32.341,4.373,8.058.178-44.001-3.612-35.942-3.488,15.954.246,31.911.33,47.866.14,16.018-.191,32.031-.678,48.026-1.556,15.822-.869,31.612-1.71,47.463-1.767,8.022-.029,16.043.078,24.063.254,3.972.087,7.94.219,11.91.37,3.263.125,6.796.623,10.006-.193.244-.062.478-.146.713-.228.091,1.804.55,3.648.996,5.29,1.056,3.884,2.987,7.304,5.969,10.03,2.758,2.52,6.027,4.535,9.397,6.127,13.499,6.379,29.196,5.971,43.486,2.817,7.147-1.578,14.512-3.969,19.904-9.147.258-.248.51-.507.759-.771.127-.033.253-.095.37-.202,1.495-1.355,2.531-3.051,3.241-4.892,1.611-3.109,2.486-6.608,2.153-10.033.385-.023.77-.047,1.155-.07.15.041.3.086.451.125,3.043.772,6.214.903,9.335,1.068,3.358.177,6.716.354,10.074.525,13.309.678,26.629,1.278,39.957,1.409,13.366.132,26.755-.195,40.08-1.293,1.643-.136,3.285-.284,4.925-.443.888-.086,1.513-1.414.51-1.884ZM871.134,154.699c-2.521-1.37-4.946-2.873-7.277-4.53,2.161.216,4.193,1.455,6.027,2.602,2.653,1.658,5.326,3.282,8.039,4.841,1.032.593,2.067,1.181,3.102,1.768-3.365-1.404-6.674-2.933-9.892-4.682ZM921.562,442.806c.25-1.045.429-2.103.531-3.173.12-1.265.118-2.542.009-3.81.028.003.054.01.084.012.346.013.692.032,1.038.046.167.042.331.092.488.16.956.415,1.365,1.316,1.574,2.281.393,1.813.664,4.31-.214,6.021-.535,1.043-2.224,2.072-3.336,1.184-.792-.633-.367-1.91-.174-2.72ZM920.417,438.338c-.039,1.22-.192,2.43-.462,3.62-.259,1.144-.644,2.36-.277,3.527.535,1.706,2.332,2.322,3.965,1.984,1.916-.397,3.097-2.027,3.431-3.885.195-1.086.173-2.189.089-3.285-.082-1.062-.158-2.175-.513-3.187-.146-.416-.344-.778-.569-1.108,3.676.163,7.351.346,11.023.572,1.858.115,3.718.237,5.572.412,3.043.653,6.007,1.6,8.789,3.059,1.615.847,3.348,1.917,4.801,3.234-1.649-.258-3.317-.372-5.01-.323-6.191.177-12.252,2.069-18.266,3.378-6.061,1.319-12.168,2.426-18.358,2.905-5.986.463-12.048.324-17.921-1.016-1.456-.332-2.897-.734-4.314-1.208-1.433-.48-2.825-1.106-4.286-1.497-2.683-.719-5.206-.024-7.873.355-.356.051-.711.083-1.064.093.139-.481-.075-1.012-.501-1.273v-.003c.181-.405.422-.79.759-1.143,1.083-1.136,2.582-1.788,4.046-2.277,1.06-.354,2.127-.684,3.197-1.001,1.564-.266,3.143-.449,4.715-.647l7.597-.959c4.969-.627,9.936-1.264,14.903-1.908,2.146-.279,4.295-.675,6.452-.893.074.821.102,1.646.076,2.473ZM958.254,447.059c-.45.229-.892.424-1.256.591-1.992.915-4.094,1.584-6.224,2.091-4.37,1.041-8.862,1.381-13.333,1.686-4.784.327-9.57.638-14.361.842-9.512.404-19.108.378-28.538-1.082-2.376-.368-4.739-.824-7.078-1.382-2.105-.502-4.425-.939-6.359-1.943-.258-.134-.523-.301-.778-.492.764-.017,1.536-.106,2.29-.217,1.381-.203,2.793-.403,4.181-.145,1.491.276,2.883.94,4.3,1.455,5.635,2.05,11.654,2.887,17.633,2.919,6.164.033,12.297-.805,18.342-1.956,6.129-1.167,12.143-2.892,18.278-4.01,3.142-.572,6.43-.946,9.61-.472,1.171.175,2.306.477,3.43.822.03.048.056.097.086.146-.288.309-.364.774-.223,1.147ZM943.787,416.612c-2.017,1.356-4.292,2.438-6.531,3.371-4.519,1.883-9.176,2.876-14.013,3.484-.293.037-.597.085-.902.141-.322-.037-.642-.088-.957-.173-2.04-.548-2.709-2.364-2.291-4.332.494-2.326,1.792-4.286,3.454-5.912.275.592.696,1.129,1.209,1.545,1.812,1.469,4.302,1.18,6.436.756,2.655-.527,5.301-1.111,7.946-1.687,1.238-.27,2.476-.587,3.725-.801.796-.136,1.67-.196,2.461.003.668.168,1.281.57,1.26,1.336-.026.974-1.069,1.777-1.798,2.268ZM962.579,370.39c-.96,4.926-2.226,9.727-3.989,14.432-.864,2.305-1.825,4.572-2.883,6.795-1.04,2.184-2.474,4.335-2.784,6.78-.289,2.281.211,4.55-.257,6.831-.414,2.02-1.235,3.915-2.34,5.65-.876,1.375-1.913,2.618-3.07,3.734.131-1.308-.622-2.54-1.92-3.068-1.518-.618-3.245-.351-4.795-.016-2.43.525-4.86,1.051-7.286,1.591-1.21.269-2.418.554-3.632.803-1.132.233-2.337.43-3.485.195-1.021-.209-2.074-.935-2.524-1.885.824-.684,1.704-1.301,2.603-1.848,3.627-2.206,7.692-3.42,11.608-4.986,4.024-1.61,7.997-3.633,10.77-7.071,2.77-3.435,4.244-7.642,5.55-11.801,1.581-5.037,3.143-10.084,4.559-15.171.803-2.883,1.544-5.836,2.607-8.652.381.628.905,1.104,1.511,1.455-1.36.619-2.672,1.723-2.283,3.394.275,1.18,1.253,1.884,2.338,2.29-.142.123-.25.302-.298.546ZM974.933,366.158c-2.98,1.684-6.63,2.509-10.033,1.94-.675-.113-1.665-.26-2.143-.827-.496-.588.365-1.08.827-1.34.649-.365,1.344-.668,2.059-.93.013.001.026.004.038.005,1.983.178,4.07-.095,6.017-.468,2-.383,3.955-.987,5.81-1.829.909-.412,1.894-.87,2.789-1.445-1.32,2.048-3.347,3.753-5.366,4.894ZM981.174,356.014c.106.191.192.397.257.614.023.174.021.37-.014.594-.282,1.792-2.514,2.668-3.959,3.306-1.774.783-3.648,1.389-5.545,1.793-.511.109-1.028.2-1.548.28-.175-.197-.437-.323-.757-.276-.908.133-1.806.317-2.695.533-.215-.001-.431.007-.645-.002-1.375-.057-3.283-.474-3.464-2.139-.068-.631.279-1.017.817-1.281.915-.449,2.007-.659,2.979-.952,1.096-.331,2.194-.656,3.291-.985.253.364.623.595,1.194.727.509.118,1.03.128,1.545.069.337.047.676.059,1.007.025,1.883-.195,3.426-1.262,4.762-2.54.045-.016.088-.036.133-.052.897-.3,2.11-.361,2.643.286ZM968.85,355.045c.057.294.156.573.284.837-.537.136-1.073.273-1.61.407-1.05.262-2.101.522-3.151.785-.086.022-.173.043-.259.065,1.005-1.499,2.195-2.879,3.608-4.006.776-.619,1.631-1.149,2.525-1.582-.973.915-1.69,1.99-1.397,3.494ZM983.332,338.685c.707.683,1.286,1.551,1.45,2.537.186,1.118-.276,2.225-.761,3.206-1.053,2.128-2.322,4.159-3.746,6.058-.807,1.076-1.687,2.228-2.673,3.243-.027.007-.054.013-.08.019-1.14.287-2.275.594-3.416.879-1.002.25-2.002.504-3.003.759-.029-.035-.058-.07-.085-.107.003-1.193.624-2.366,1.407-3.392.624-.519,1.258-1.022,1.808-1.632.01-.011.018-.022.028-.033.779-.419,1.445-.97,1.866-1.707.178-.312.273-.626.304-.936.804-1.008,1.441-2.122,1.66-3.437.048-.291-.053-.51-.214-.649.951-2.143,1.897-4.289,2.843-6.434.961.401,1.866.905,2.613,1.627ZM975.327,329.219c1.264-4.591,2.714-9.152,4.641-13.511.955-2.162,2.025-4.275,3.23-6.309,1.17-1.975,2.417-4.043,4.154-5.576,1.506-1.329,4.089-2.409,5.995-1.228.598.371.268.788.03,1.33-.278.634-.556,1.269-.834,1.903-.536,1.223-1.072,2.447-1.609,3.67-3.663,8.351-7.353,16.69-11.023,25.038-1.826-.615-3.725-1.068-5.581-1.54.322-1.262.651-2.521.996-3.777ZM972.723,339.532c.268-1.169.561-2.333.847-3.498.088-.359.18-.717.269-1.076,1.16.319,2.316.65,3.471.988.573.168,1.163.335,1.753.518-.406.925-.815,1.848-1.22,2.773-.813,1.857-1.617,3.718-2.421,5.579-.302-.263-.644-.486-.997-.685-.773-.437-1.581-.78-1.858-1.697-.281-.929-.054-1.984.157-2.904ZM969.863,333.938c.735.173,1.467.357,2.198.547-.483,1.802-.975,3.617-1.289,5.442-.089.519-.136,1.029-.131,1.521-1.871-1.519-3.742-3.038-5.613-4.557-1.917-1.556-3.83-3.133-5.785-4.645,3.571.313,7.101.865,10.621,1.693ZM937.965,319.822c2.238,3.598,4.5,7.181,6.759,10.765-.295.186-.351.675.086.78.194.047.364.111.522.186.016.025.032.05.048.076-3.193.955-6.229,2.378-8.426,4.928-.781.906.383,2.027,1.295,1.295,2.669-2.143,5.717-3.609,8.948-4.69.104-.035.191-.091.269-.155.449-.113.898-.219,1.346-.321,2.056-.464,4.438-1.242,6.503-.486,1.068.391,1.933,1.192,2.793,1.908l2.928,2.439c3.981,3.316,7.987,6.604,12.007,9.872.22.179,1.045.704,1.081.871.038.179-.552.603-.754.721-.893.52-1.951.809-2.957,1.012-2.138.431-4.372.246-6.453-.379-4.514-1.356-7.962-4.866-10.255-8.869-.746-1.302-2.727-.142-2.011,1.175,2.283,4.193,5.87,7.71,10.344,9.474,1.535.605,3.189.974,4.853,1.086-.03.023-.062.045-.093.069-3.704,2.866-5.983,7.049-7.526,11.391-.546,1.536-1.004,3.101-1.443,4.671-.054-.011-.109-.017-.165-.018-1.083-.004-2.162-.034-3.243-.047-.221-.003-.443-.008-.665-.014-.112-.13-.257-.245-.467-.312-1.059-.34-2.167-.375-3.267-.502-1.175-.136-2.347-.299-3.511-.517-2.094-.392-4.185-.946-6.112-1.87-1.717-.823-3.314-1.886-4.63-3.269-1.224-1.286-1.848-2.86-2.852-4.291-.478-.682-1.041-1.324-1.788-1.717-.408-.215-.834-.341-1.29-.395-.587-.07-1.195.067-1.774-.026-.906-.144-1.653-1.015-2.305-1.587l-2.878-2.524c-3.617-3.172-7.252-6.322-10.888-9.472-2.078-1.8-4.161-3.595-6.242-5.392-1.041-.899-2.085-1.793-3.128-2.689-.623-.535-1.614-1.273-1.728-2.17,1.747-.652,3.441-1.827,3.965-3.677.018-.063.015-.119.003-.173,4.64-2.895,9.457-5.508,14.421-7.804,3.508-1.623,7.086-3.09,10.721-4.401.835-.301,1.758-.701,2.633-.792.411.04.822.087,1.231.14.35.138.68.37.974.743.539.683.954,1.478,1.413,2.216.568.914,1.137,1.828,1.705,2.742ZM900.037,327.966c.4-2.062,1.773-3.825,3.344-5.261,2.135-1.95,4.734-3.458,7.316-4.733,5.179-2.558,10.93-3.962,16.7-4.153-.297.121-.592.241-.884.356-1.907.747-3.797,1.536-5.669,2.365-3.603,1.595-7.138,3.348-10.596,5.238-3.494,1.91-6.894,3.986-10.212,6.187ZM901.628,204.715c.989.976,2,1.935,2.963,2.938.851.886,1.598,1.846,1.82,3.084.229,1.28.064,2.635.082,3.929.019,1.336.104,2.671.252,3.999.299,2.667.83,5.298,1.627,7.861.781,2.514,1.797,4.965,3.027,7.293,1.166,2.208,2.701,4.431,2.591,7.037-.059,1.394-.526,2.754-.949,4.071-.453,1.413-.91,2.825-1.364,4.237-.894,2.777-1.797,5.552-2.675,8.335-2.009,6.364-4.023,12.729-5.947,19.119-.063.208-.036.41.047.586-.962,1.059-2.093,1.948-3.414,2.553-.186-1.631,1.093-3.404,1.821-4.707,1.004-1.797,2.007-3.867,1.258-5.945-.233-.646-1.277-.968-1.628-.213-3.388,7.286-6.458,14.823-7.81,22.784-.342,2.015-.576,4.046-.931,6.059-.353,1.999-.874,3.929-1.524,5.85-.621,1.836-1.229,3.682-1.351,5.631-.122,1.946.381,3.856.928,5.706.559,1.889,1.064,3.748,1.184,5.724.118,1.95-.017,3.911-.273,5.845-.523,3.953-1.493,7.833-1.92,11.802-.445,4.149.106,8.193.615,12.307.521,4.217.667,8.455.563,12.701-.059,2.403-.186,4.804-.343,7.202-.077,1.175-.16,2.35-.247,3.524-.043.587-.085,1.174-.131,1.76-.024.316-.021.731-.264.963-.32.305-1.019.389-1.425.519-.564.182-1.128.363-1.692.545l-3.385,1.09c-2.351.757-4.701,1.513-7.052,2.27-.151.049-.274.121-.38.204-.608-.417-1.223-.823-1.856-1.2-1.227-.73-2.515-1.343-3.863-1.78.116-.107.214-.243.281-.417.87-2.257.693-4.707.468-7.065-.207-2.169-.583-4.596.288-6.673.853-2.035,3.586-3.995,1.684-6.334-1.37-1.684-4.418-2.275-4.872-4.663-.204-1.074.246-1.874,1.377-1.94,1.369-.081,2.651.193,3.919-.498.445-.242.55-.727.481-1.183-.508-3.381-.64-6.821-.414-10.232.113-1.708.317-3.408.62-5.093.284-1.583.808-3.19.822-4.809,1.542-.918,2.756-2.434,3.494-4.057,1.331-2.927,1.837-6.245,2.569-9.357.783-3.328,1.515-6.67,2.333-9.989.367-1.489.774-2.995,1.439-4.382.558-1.163,1.344-2.149,2.061-3.2,1.795-.85,2.411-3.187,2.365-5.164-.037-1.597-.269-3.201-.423-4.79-.17-1.754-.341-3.508-.517-5.261-.35-3.507-.715-7.012-1.112-10.513-.397-3.497-.829-6.989-1.319-10.475-.46-3.276-.865-6.596-1.565-9.831-.536-2.478-1.446-4.979-3.484-6.614-2.397-1.923-5.556-1.81-8.442-2.248-3.339-.507-6.596-1.409-9.818-2.401-1.55-.477-3.101-.962-4.636-1.486-.628-.214-1.25-.441-1.622-1.023-.33-.516-.365-1.137-.375-1.734-.016-.985.094-1.969.012-2.946,1.799-.035,3.592-.28,5.3-.74,4.335-1.169,8.239-3.483,11.768-6.21,1.802-1.393,3.511-2.894,5.184-4.438.768-.71,1.51-1.578,2.429-2.097.917-.518,2.017-.291,3.022-.443,1.937-.292,2.911-1.84,3.007-3.689.09-1.714-.518-3.53.067-5.196.642-1.827,2.413-3.124,3.851-4.307,1.613-1.326,3.151-2.853,3.878-4.857.246-.68.33-1.385.292-2.092.597-.222,1.175-.49,1.739-.783,1.814,1.866,3.641,3.717,5.493,5.544ZM887.705,400.104c-.551-.618-1.68.222-1.166.899.695.916,1.404,1.804,2.124,2.678.56.908,1.136,1.806,1.757,2.684.525.742,1.051,1.484,1.575,2.226.396.56,1.492,1.708,1.404,2.451-.14,1.175-2.11.587-2.783.253-1.376-.683-2.671-1.593-4.28-1.44-.878.083-1.581,1.209-.79,1.907.855.754,1.983,1.634,2.308,2.783.358,1.267-.466,2.08-1.667,2.247-2.204.306-5.158-1.587-6.912.455-.626.729-.832,1.656-1.625,2.274-.784.61-1.846.956-2.828,1.023-2.727.185-5.024-1.459-7.633-1.861-.343-.053-.68.05-.961.229-.774-.08-1.554-.135-2.334-.197-2.377-.189-4.734-.566-7.053-1.122-2.276-.546-4.583-1.217-6.724-2.173-.986-.44-1.962-.96-2.798-1.648-.863-.709-1.602-1.557-2.342-2.388-2.772-3.112-6.107-5.229-10.036-6.6-3.89-1.357-7.99-1.924-12.043-2.557-9.94-1.553-19.86-3.24-29.759-5.039-9.95-1.809-19.859-3.8-29.759-5.865-.78-.163-1.559-.328-2.338-.492l23.37-18.47c2.005-1.584,4.034-3.142,6.014-4.758.709-.578,1.392-1.214,1.968-1.924.38.243.812.418,1.235.565,1.066.37,2.15.692,3.217,1.061,4.478,1.548,8.867,3.34,13.255,5.124,8.733,3.551,17.544,7.148,26.904,8.661,4.565.738,9.194,1.042,13.8.512,4.565-.525,9.044-1.867,13.669-1.782,2.24.041,4.435.498,6.462,1.468,1.975.945,3.765,2.227,5.519,3.526,3.79,2.807,7.444,5.795,11.018,8.871,3.583,3.084,7.084,6.261,10.562,9.461,1.636,1.506,3.35,2.964,4.893,4.565.418.434.845.937,1.17,1.482h.432c.618.476,1.256.939,1.786,1.482,1.012,1.038,1.936,2.5,1.948,3.996.001.194.015,1.03-.229,1.138-.258.114-.592-.157-.817-.274-.656-.341-1.26-.798-1.902-1.168-1.342-.775-2.665-1.583-3.954-2.443-2.493-1.662-4.869-3.502-7.109-5.492-2.262-2.009-4.532-4.067-6.547-6.325ZM883.239,295.816c-.736-1.291,1.117-2.208,2.174-1.738,1.03.458.797,1.518.22,2.589-.177.084-.377.133-.601.134-.682.003-1.45-.382-1.793-.984ZM817.722,198.462c-1.678-4.549-2.211-9.54-.764-14.224,1.294-4.189,3.96-7.791,6.535-11.274,2.184-2.955,4.361-5.92,5.891-9.229.037.17.07.34.123.506.63,1.988,2.415,3.15,4.015,4.32,1.616,1.182,3.279,2.297,4.982,3.349,3.326,2.055,6.799,3.864,10.364,5.468,7.298,3.285,14.929,5.754,22.647,7.841,3.834,1.037,7.692,1.982,11.558,2.893,1.975.466,3.952.925,5.93,1.378,2.124.486,4.295.955,6.485.928,1.986-.025,3.825-.538,5.482-1.408-.014.175-.019.352-.01.534.052.972.457,1.749-.064,2.664-1.691,2.968-4.681,5.062-7.905,6.042-.557.169-.851.717-.726,1.278.441,1.984-1.105,3.758-2.455,5.003-1.418,1.307-3.019,2.386-4.214,3.922-1.192,1.534-1.631,3.223-1.512,5.147.052.843.165,1.685.153,2.53-.008.574-.054,1.275-.552,1.651-.722.545-1.927.282-2.768.39-1.069.137-1.94.649-2.76,1.327-1.63,1.347-3.123,2.86-4.757,4.208-3.305,2.727-6.962,5.204-11.016,6.666-6.517,2.349-15.344,1.796-19.701-4.314-2.594-3.637-3.471-8.382-4.499-12.643-1.156-4.791-2.114-9.63-2.871-14.5-.381-2.449-.708-4.906-.982-7.37-.138-1.237-.265-2.476-.395-3.713-.06-.572-.117-1.144-.171-1.716-.047-.507-.166-1.099.07-1.571.388-.777,1.359-1.263,1.909-1.93.558-.677.974-1.437,1.24-2.274.532-1.671.479-3.553-.191-5.175-.346-.837-.838-1.582-1.479-2.223-.31-.31-.873-.412-1.254-.162-4.233,2.781-5.753,8.867-2.898,13.178.101.153.221.269.351.353.005.078.01.155.015.232.088,1.288.188,2.575.322,3.859.27,2.579.596,5.153.973,7.719.745,5.066,1.707,10.099,2.883,15.082.572,2.425,1.169,4.852,1.882,7.24.085.285.173.57.264.855-.035-.04-.073-.078-.117-.113-7.91-6.223-16.417-12.967-20.016-22.725ZM832.31,182.928c-.797-2.723-.049-5.94,2.102-7.825.762,1.132,1.053,2.582.76,3.922-.175.801-.536,1.593-1.084,2.208-.55.617-1.242,1.072-1.777,1.695ZM747.447,398.462c-2.113,1.203-4.239.009-6.099-1.122-1.706-1.038-3.33-2.205-4.858-3.491-6.088-5.123-10.668-11.741-14.683-18.545-4.406-7.465-8.93-15.284-11.008-23.767-2.219-9.058-1.606-18.544-.846-27.748,1.551-18.792,4.865-37.434,9.855-55.618,2.499-9.106,5.461-18.071,8.663-26.952,1.639-4.544,3.333-9.067,5.044-13.585.823-2.174,1.555-4.419,2.512-6.538.838-1.855,2.125-3.064,4.172-3.397,1.808-.294,3.697.014,5.479.337.951.172,1.889-.784,1.32-1.717-1.184-1.943-2.367-3.886-3.551-5.828-.189-.311-.873-1.175-.737-1.546.075-.205.589-.385.769-.479,1.061-.555,2.147-1.068,3.22-1.601,4.078-2.028,8.157-4.056,12.235-6.084,8.228-4.091,16.449-8.195,24.668-12.303,4.137-2.068,8.265-4.155,12.41-6.207.48,4.419,2.59,8.59,5.991,11.506,1.134.972,2.505-.47,1.61-1.61-4.934-6.282-1.255-14.746,3.12-20.139,2.277-2.806,4.861-5.772,8.136-7.421.088-.045.181-.083.271-.125-.563.443-1.075.941-1.5,1.495-3.459,4.519-3.128,11.088-3.038,16.475.196,11.752,2.604,24.141,11.206,32.758,4.132,4.139,9.273,7.141,15.125,7.921.642.086,1.124-.568,1.139-1.181.553,1.628,1.23,3.223,2.152,4.671,3.095,4.86,8.577,7.184,14.157,7.384.114,2-.926,4.191.443,5.94.753.962,1.936,1.311,3.047,1.686,1.379.466,2.759.927,4.146,1.369,2.809.894,5.669,1.67,8.574,2.182,1.354.239,2.715.392,4.08.547,1.233.14,2.528.322,3.652.88,2.047,1.016,2.95,3.214,3.472,5.318.661,2.666.957,5.447,1.341,8.163.857,6.061,1.568,12.144,2.214,18.231.32,3.018.623,6.038.92,9.058.153,1.559.311,3.117.457,4.677.023.243.045.489.064.737-.303-.252-.657-.447-1.055-.565-1.846-.544-4.234.506-4.573,2.522-.325,1.931,1.24,3.594,3.05,3.99-.198.256-.368.473-.472.622-1.513,2.176-2.25,4.78-2.888,7.321-.738,2.942-1.449,5.889-2.162,8.837-.665,2.744-1.158,5.617-2.149,8.267-.465,1.244-1.258,2.568-2.335,3.455-.261-.606-.642-1.156-1.163-1.587-1.04-.861-2.493-1.083-3.652-.312-1.074.715-1.722,2.094-1.155,3.33.583,1.272,2.072,1.745,3.381,1.713.305-.007.601-.044.892-.096-.101.748-.307,1.496-.453,2.196-.3,1.439-.53,2.892-.706,4.352-.357,2.97-.439,5.973-.243,8.958.075,1.14.204,2.275.355,3.407-.893.181-1.943-.063-2.818.059-1.208.168-2.204.859-2.673,1.998-.974,2.366.542,4.61,2.374,5.992.493.372,1.012.707,1.525,1.05.424.284,1.128.629,1.331,1.13.174.429-.145.894-.367,1.243-.371.582-.829,1.103-1.198,1.686-1.311,2.074-1.345,4.61-1.154,6.975.217,2.684.751,5.491-.247,8.082-.073.189-.084.359-.058.512-.159-.031-.317-.064-.478-.09-2.236-.352-4.495-.27-6.732.033-4.604.624-9.096,1.826-13.759,1.986-9.428.324-18.567-2.287-27.324-5.54-4.44-1.65-8.811-3.477-13.223-5.199-2.181-.851-4.369-1.691-6.585-2.451-1.151-.395-2.308-.775-3.47-1.135-1.016-.315-2.119-.524-3.092-.957-.09-.04-.189-.089-.289-.145.272-.512.487-1.058.603-1.651.745-3.791-1.876-7.454-5.729-7.832-1.132-.111-2.221.078-3.222.507-1.141-3.843-6.271-5.007-9.564-6.59-.923-.444-1.851-.989-2.532-1.77,2.295-11.146,4.586-22.293,6.878-33.439,2.016-9.803,4.393-19.887,3.908-29.963-.258-5.359-1.418-10.648-3.797-15.476-.555-1.127-1.978-.411-2.106.57-1.777,13.602-3.05,27.286-4.55,40.921l-2.251,20.461c-.366,3.331-.733,6.662-1.099,9.992-.307,2.792-.875,5.776.977,8.173,1.609,2.083,4.232,3.003,6.617,3.875,2.272.83,5.503,2.308,5.385,5.172-.045,1.111,1.28,1.437,2.014.834,3.087-2.534,7.682.396,6.723,4.26-.463,1.866-2.261,3.088-3.683,4.213-1.934,1.529-3.869,3.058-5.804,4.587-7.677,6.066-15.353,12.133-23.03,18.199-1.935,1.529-3.869,3.058-5.804,4.587-.676.535-1.35,1.112-2.033,1.687-.361-.31-.987-.286-1.122.315-.055.244-.104.488-.156.732-.774.613-1.568,1.189-2.4,1.663ZM872.342,328.189c-.304.068-.621.101-.952.092-.691-.019-1.865-.525-.857-1.17.784-.503,1.511.361,1.809,1.078ZM772.458,336.97c.168-1.472.339-2.944.501-4.416l4.474-40.683c.687-6.248,1.44-12.495,2.07-18.751,2.822,7.687,2.32,16.277,1.013,24.291-.804,4.931-1.922,9.803-2.931,14.695-1.12,5.432-2.24,10.864-3.36,16.296-.589,2.856-1.178,5.713-1.767,8.569ZM690.991,448.904c-8.777-.113-17.553-.272-26.329-.455-5.706-.119,41.172,1.23,35.457,1.125,1.638-.095-49.323-1.768-47.685-1.858,5.09-.279,10.178-.531,15.273-.678,10.264-.297,20.53-.491,30.798-.541,20.378-.098,40.758.27,61.126.917,4.758.151,9.516.328,14.273.507-27.622,1.202-55.262,1.338-82.913.983ZM789.823,447.122c-3.305-.281-6.605-.621-9.917-.835,8.349.044,16.697.088,25.046.132-5.043.197-10.085.437-15.129.702ZM877.252,442.515c-.305.504-.478,1.041-.546,1.586-.065.136-.125.273-.18.412-22.345-.258-44.694-.286-67.039-.407-11.359-.062-22.718-.123-34.078-.185-5.759-.031-11.519-.062-17.279-.094-2.489-.014-5.124.249-6.104-2.535-.817-2.321-1.032-4.972-1.361-7.398-1.571-11.582-1.438-23.46.316-35.026.744-.61,1.46-1.245,2.163-1.801,1.85-1.462,3.7-2.924,5.551-4.387.097.053.203.098.329.125,10.129,2.157,20.3,4.135,30.486,6.003,10.141,1.861,20.308,3.565,30.5,5.12,4.292.655,8.618,1.232,12.789,2.48,1.939.58,3.826,1.308,5.586,2.315,1.828,1.046,3.36,2.373,4.78,3.921,1.556,1.695,3.105,3.253,5.194,4.284,2.077,1.025,4.334,1.736,6.568,2.33,2.393.636,4.835,1.077,7.296,1.346,1.303.142,2.655.17,3.983.311,2.376,2.017,5.879,3.071,8.967,2.666,1.426-.187,2.804-.648,3.973-1.504.526-.386.98-.819,1.377-1.336.243-.316.724-1.516,1.014-1.631.613-.245,1.873.206,2.502.287.782.102,1.543.158,2.328.054,1.272-.169,2.551-.741,3.254-1.866.807-1.291.736-2.608.234-3.829.536.212,1.086.377,1.669.429,1.496.135,3.251-.477,3.9-1.936.236-.529.28-1.048.198-1.553,2.391,1.99,4.93,3.818,7.59,5.419.807.486,1.615.911,2.471,1.3.82.373,1.611.815,2.546.658,1.788-.301,2.048-2.257,1.991-3.764-.067-1.785-.708-3.413-1.76-4.846-.963-1.312-2.374-2.759-3.903-3.46-1.158-1.238-2.487-2.344-3.722-3.483-1.72-1.587-3.445-3.169-5.18-4.74-3.503-3.171-7.053-6.292-10.704-9.292-1.812-1.488-3.65-2.945-5.514-4.367-.487-.372-.976-.744-1.467-1.113,3.81-1.221,7.62-2.44,11.428-3.665.769-.247,1.54-.499,2.08-1.135.65-.764.716-1.762.789-2.717.166-2.153.324-4.306.454-6.461.26-4.303.396-8.62.175-12.928-.221-4.313-1.085-8.562-1.279-12.873-.36-8.015,3.181-15.758,2.237-23.777-.241-2.045-.839-3.957-1.399-5.929-.541-1.902-.837-3.757-.432-5.718.401-1.939,1.175-3.773,1.725-5.67.569-1.963.887-3.986,1.169-6.006.64-4.579,1.432-9.061,2.778-13.494.175-.576.357-1.148.544-1.719.048.137.102.275.164.413.141.312.639.514.96.391,2.368-.904,4.504-2.599,5.694-4.832,5.622-6.761,9.807-14.764,12.097-23.264,2.024,8.443,4.234,16.876,7.691,24.855.997,2.3,2.106,4.549,3.326,6.738-8.13,6.284-16.825,11.812-26.074,16.302-2.154,1.046-4.303,2.245-5.2,4.597-.264.692.522,1.357,1.17,1.17,3.767-1.082,7.378-2.617,10.997-4.107,3.712-1.529,7.431-3.04,11.149-4.552,3.627-1.475,7.256-2.948,10.881-4.428.603-.246,1.494-.756,2.12-.333.498.336.702,1.058.844,1.603.447,1.72.609,3.544.883,5.298.621,3.975,1.247,7.949,1.883,11.922-1.107-.216-2.219-.403-3.338-.53-.045-.005-.09-.008-.135-.012-4.705-.52-9.482-.259-14.117.78-6.048,1.355-12.283,4.026-16.939,8.198-2.432,2.18-4.504,5.184-4.178,8.596.05.525.548,1.021,1.074.908-.13,1.862,1.75,3.315,3.006,4.452,1.891,1.711,3.795,3.407,5.694,5.109,3.798,3.404,7.593,6.814,11.418,10.189,1.898,1.675,3.779,3.372,5.695,5.025.822.71,1.699,1.355,2.808,1.481.879.1,1.837-.228,2.591.362.663.52,1.072,1.359,1.476,2.077.481.855.996,1.666,1.61,2.434,1.248,1.56,2.856,2.835,4.584,3.829,2.14,1.23,4.51,2.035,6.912,2.57,1.295.289,2.606.499,3.92.677,1.353.183,2.762.47,4.124.324.202-.022.366-.102.508-.203.273.026.547.052.82.083.996.114,1.994.212,2.991.327-.088.32-.175.64-.263.96-.734,2.664-1.512,5.316-2.311,7.961-.782,2.588-1.578,5.173-2.385,7.754-.7,2.238-1.431,4.48-2.425,6.607-.964,2.061-2.163,4.023-3.763,5.653-1.577,1.606-3.471,2.833-5.47,3.847-5.472,2.775-12.208,4.185-17.252,7.823-.203-.197-.614-.224-.798.062-.177.275-.299.563-.378.856-1.335,1.129-2.52,2.452-3.485,4.058-1.056,1.757-1.874,3.955-1.641,6.032.18,1.604,1.06,2.882,2.363,3.648-.35.236-.665.519-.926.86-1.402,1.836.107,3.857.73,5.681.324.949.571,1.918.75,2.9-.463.049-.926.107-1.386.159-.114.013-.228.025-.342.038-1.802.1-3.601.225-5.392.382-2.148.189-4.294.388-6.444.534-2.053.14-4.102.492-6.14.768-2.742.371-5.44.936-8.133,1.537-.68.086-1.36.172-2.039.258-2.471.313-4.97.593-7.364,1.307-2.056.613-4.438,1.534-5.604,3.463ZM959.52,452.263c-.108,1.206-.33,2.418-.681,3.585-.511,1.109-1.12,2.168-1.819,3.147-3.957,5.542-10.829,8.427-17.177,10.186-6.681,1.851-13.647,2.918-20.576,3.124-6.876.203-13.79-.466-20.361-2.578-3.265-1.049-6.402-2.459-9.332-4.243-2.976-1.812-5.913-4.003-7.856-6.946-1.942-2.942-2.985-6.671-3.375-10.17,1.607,1.566,3.925,2.155,6.026,2.727,9.995,2.719,20.405,3.449,30.726,3.382,5.187-.033,10.369-.273,15.546-.575,4.964-.29,9.96-.492,14.897-1.109,4.786-.599,9.632-1.633,13.909-3.953.022-.012.044-.025.067-.038.161,1.142.107,2.325.005,3.462ZM959.29,443.922c-.416-.534-.871-1.038-1.356-1.506-1.423-1.372-3.002-2.501-4.684-3.442,1.235.392,2.451.846,3.622,1.399.585.276,1.295.634,1.948,1.081.012.064.027.128.064.196.43.789.759,1.608,1.014,2.445-.202-.059-.405-.119-.607-.173ZM1028.776,448.405c-13.264-.049-26.521-.551-39.768-1.206-3.917-.194-7.846-.351-11.77-.556,8.686-.403,17.377-.728,26.063-1.044,7.331-.267,14.669-.421,21.997-.751,6.958-.313,13.927-.756,20.896-.629,6.129.112,12.15.852,17.876,2.886-11.737.982-23.516,1.345-35.294,1.301Z"/>
  </g>
  <g id="Layer_5" data-name="Layer 5">
    <path d="M516.925,380.187l.123-.834-.12.011.334-2.266.035-.004.562-3.822-19.639,2.01-.232-.024-2.432,16.547.031.101c-.181-.252-.426-.472-.71-.638-.428-.259-.921-.422-1.424-.518-1.011-.188-2.066-.076-3.005.24-.94.317-1.772.89-2.321,1.623-.536.717-.894,1.631-.518,2.469.387.837,1.393,1.312,2.365,1.508.998.204,2.057.116,2.995-.199.937-.318,1.792-.854,2.371-1.582.286-.362.508-.767.612-1.202.056-.196.066-.402.047-.604l1.598-10.837,18.57-1.899-1.476,10.047.03.103c-.18-.252-.425-.473-.71-.639-.428-.259-.92-.422-1.424-.519-1.012-.186-2.065-.075-3.005.241-.94.318-1.771.888-2.32,1.625-.538.716-.895,1.628-.518,2.467.387.837,1.393,1.312,2.366,1.508.998.204,2.054.116,2.995-.196.937-.321,1.79-.855,2.369-1.585.287-.36.508-.769.614-1.202.055-.198.065-.403.046-.604l1.669-11.311.121-.013Z" style="fill: #ccc; opacity: .85;"/>
    <path d="M533.715,348.094l.291-.851-.541-.16-5.656,16.505c-.119-.239-.299-.461-.519-.642-.328-.276-.724-.481-1.138-.629-.83-.294-1.736-.339-2.575-.199-.837.144-1.619.516-2.18,1.064-.551.535-.977,1.261-.771,2.021.217.759,1.004,1.295,1.801,1.592.817.305,1.725.373,2.562.233.835-.144,1.629-.483,2.217-1.022.291-.268.532-.582.682-.936.028-.064.049-.135.066-.203v.005s3.507-10.217,3.507-10.217c.105,2.859,4.212,3.332,3.262,8.685l3.098-9.038c-.017-2.933-3.202-3.255-4.106-6.208ZM532.318,352.168l.451-1.32c.284,1.951,3.356,1.689,3.323,6.252-.763-2.147-3.062-2.768-3.774-4.932Z" style="fill: #ccc; opacity: .85;"/>
    <g style="opacity: .85;">
      <g>
        <rect x="506.218" y="350.249" width=".465" height="16.357" style="fill: #ccc;"/>
        <rect x="511.558" y="349.644" width=".465" height="16.356" style="fill: #ccc;"/>
      </g>
      <g>
        <rect x="504.287" y="354.996" width="9.668" height=".619" transform="translate(-72.572 138.328) rotate(-14.454)" style="fill: #ccc;"/>
        <rect x="504.287" y="360.634" width="9.668" height=".619" transform="translate(-73.8 138.037) rotate(-14.408)" style="fill: #ccc;"/>
      </g>
    </g>
    <path d="M529.348,405.659l-.518-.222-5.962,13.897c-.104-.284-.288-.553-.523-.775-.328-.322-.733-.572-1.162-.762-.864-.381-1.827-.503-2.733-.419-.907.084-1.769.42-2.412.96-.631.527-1.143,1.266-.983,2.095.17.827.969,1.463,1.795,1.843.848.392,1.81.537,2.714.454.904-.087,1.779-.385,2.449-.913.332-.262.614-.578.802-.942.021-.043.035-.089.055-.134v.019s6.48-15.1,6.48-15.1Z" style="fill: #ccc; opacity: .85;"/>
  </g>
  <g id="Layer_2" data-name="Layer 2">
    <path d="M3.413,452.918h126.333c5.808,0,11.655.2,17.46,0,.083-.003.167,0,.251,0,.543,0,.997-.458,1-1,.092-16.404,1.271-32.776,2.818-49.101.39-4.118.803-8.234,1.228-12.348.385-3.737,1.458-7.145,2.772-10.653,1.28-3.416,2.657-6.845,3.194-10.475.552-3.734.383-7.543.398-11.304.008-1.936.052-3.873.244-5.801.205-2.064.633-4.081.694-6.161.11-3.76-.551-7.509-1.519-11.129s-2.351-7.143-3.241-10.797c-.944-3.88-1.768-7.79-2.526-11.71-1.494-7.719-2.738-15.484-4.156-23.217-.723-3.941-1.491-7.875-2.361-11.787-.753-3.388-1.254-6.839-1.937-10.244-3.145-15.682-7.647-32.581-2.451-48.327h-1.929c1.201,7.309,2.465,14.615,3.223,21.986.65,6.311.45,12.653,1.283,18.937.351,2.647.751,5.466.18,8.11-.627,2.898-2.895,4.72-5.233,6.344-4.541,3.153-9.826,4.975-15.031,6.699-2.588.857-5.186,1.686-7.74,2.644-2.592.972-5.057,2.279-7.786,2.842-4.502.929-8.109-.938-11.168-4.137-1.664-1.74-3.141-3.654-4.628-5.544-.375-.477-.735-.977-1.132-1.436-.48-.554-1.117-.911-1.721-1.326-1.09-.748-2.173-1.505-3.246-2.278-3.252-2.342-6.502-4.819-9.167-7.834-1.835-2.077-3.248-4.46-3.952-7.152-.752-2.877-.755-5.896-.644-8.848.247-6.561,1.095-13.069,1.114-19.638.019-6.637.127-13.293-.11-19.927-.283-7.943-4.75-15.497-9.889-21.295-6.176-6.97-13.869-12.351-20.787-18.525-3.522-3.143-6.908-6.507-9.664-10.354-.743-1.037-1.573-2.097-2.015-3.3-.522-1.42-.625-2.947-.914-4.421-.583-2.972-2.352-5.207-4.095-7.601-1.763-2.421-3.592-4.927-4.332-7.875l-.964,1.266c2.253.07,4.449.632,6.678.926l-1-1c.072,2.872-.039,5.756-.103,8.628-.025,1.132,1.668,1.352,1.964.266.575-2.109.971-4.377,1.75-6.418.469-1.229,2.227-1.066,3.336-.985.654.048,1.282.176,1.925.29.582.103-.01.056.003-.045-.071.543.061,1.218.022,1.783-.15,2.182-.432,4.455-.284,6.638.091,1.337.505,2.434,1.091,3.61,1.416,2.841,3.001,5.606,4.611,8.342.951,1.616,1.919,3.224,2.955,4.787.603.91,1.224,1.985,2.07,2.696.677.57,2.072.051,1.671-.973-1.517-3.873-4.17-7.381-4.985-11.516-.195-.989-.046-1.847.087-2.836.193-1.431.264-2.87.323-4.311.112-2.722.139-5.575,1.869-7.83l-.598.46c1.121-.442,3.11-.009,4.219.319.063.019.335.068.406.127.181.15-.176-.187.006.16.189.361.296.824.398,1.215.212.81.322,1.634.367,2.469.18,3.345-.531,6.683-.077,10.021.531,3.9,2.859,6.877,6.138,8.955,1.484.94,2.91,2.386,4.528.854.775-.733.962-1.992,1.266-2.979.415-1.348.791-2.707,1.138-4.074,1.223-4.82,2.092-9.717,2.77-14.637.096-.698.281-1.454.639-2.066.178-.303.388-.619.711-.783.442-.224.807.007,1.26-.078.741-.14,1.225-.579,2.024-.742,2.101-.429,4.321-.367,6.454-.437,2.749-.09,5.503-.222,8.219-.682,2.85-.483,5.727-1.382,7.998-3.233,2.511-2.048,3.637-5.057,3.823-8.225.032-.541-.484-.998-1-1-7.821-.029-15.643-.059-23.464-.088-1.13-.004-2.259-.009-3.389-.013l.707,1.707c1.475-1.592,2.654-3.639,2.237-5.885-.306-1.644-1.459-3.003-2.968-3.687-1.64-.744-3.523-.646-5.121.16-.962.485-1.69,1.223-2.394,2.02-.649.735-1.494,1.632-.897,2.666.998,1.73,3.175.802,4.027-.478.814-1.223,1.376-3.039,1.236-4.518-.338-3.568-4.228-4.761-7.244-4.227-3.248.576-7.209,3.165-6.793,6.921.093.835,1.037,1.352,1.707.707,2.214-2.129,3.397-5.606.425-7.672-2.259-1.57-5.595-1.216-7.313.977-1.408,1.797-1.429,4.166-1.112,6.324.079.537.76.826,1.23.698,4.809-1.303,1.698-7.735-.186-10.219-1.247-1.644-2.686-2.837-4.833-2.927-2.482-.105-4.644,1.418-6.111,3.3-1.683,2.16-2.808,5.01-2.661,7.777.043.808,1.097,1.392,1.707.707,1.934-2.169,3.067-5.511.658-7.809-1.974-1.882-5.069-1.548-6.794.48-1.053,1.239-1.92,3.278-1.691,4.915.114.817.474,1.747,1.37,1.968,1.138.28,1.905-.694,2.132-1.658.64-2.716.697-6.096-1.585-8.098-4.091-3.588-10.39.184-11.472,4.814-.341,1.459-.318,3.074.082,4.521.678,2.45,3.682.723,3.669-1.241-.014-2.041-2.203-3.753-4.071-3.944-1.491-.152-3.05.096-4.326.918-2.677,1.723-3.446,5.26-2.683,8.2.926,3.57,3.973,5.833,7.613,5.955,1.288.043,1.285-1.954,0-2-6.385-.228-12.845.262-19.223.549-.583.026-1.219.629-.964,1.266,1.633,4.093,4.982,6.668,9.201,7.756,2.786.719,5.643.763,8.499.762,5.24-.001,10.481.011,15.721.032,7.082.028,14.164.071,21.245.164,4.881.064,9.795.037,14.666.387.842.061.773-.031,1.459.227,1.506.565,1.771,2.321,1.802,3.738.075,3.394-.842,6.865-1.288,10.223-.502,3.781-1.249,7.944.379,11.562.832,1.849,2.318,3.31,4.106,4.246,1.956,1.024,3.687,2.475,5.285,3.994,3.221,3.062,6.577,7.267,6.542,11.949-.008,1.009-.194,2.009-.56,2.951-.27.695-.577,1.044-.292,1.779.188.485.454.954.678,1.423,2.649,5.554,5.313,11.101,8.015,16.629,1.32,2.699,2.641,5.4,4.02,8.069.514.995,1.053,1.971,1.611,2.942.642,1.12,1.325,2.268,1.627,3.536.343,1.439-.004,2.717-.472,4.076-3.457,10.047-9.799,19.437-17.578,26.643-1.809,1.675-3.724,3.223-5.763,4.61-.742.505-.579,1.522.239,1.828,5.791,2.165,11.373-4.32,14.498-8.272,1.807-2.286,3.458-4.69,5.002-7.16,1.739-2.781,3.538-5.445,5.456-8.111,2.556-3.552,4.866-7.581,3.794-12.1l-1.23,1.23c3.609,1.09,7.824,2.482,9.601,6.126.45.923.514,1.887.84,2.832.341.986,1.019,1.929,1.456,2.884.892,1.95,1.594,3.99,2.103,6.073,1.897,7.751.783,16.047-3.492,22.831-2.571,4.08-6.162,7.379-10.274,9.867-.948.573-.339,2.172.771,1.828,2.653-.824,4.885-3.167,6.763-5.101,2.769-2.851,5.28-5.978,7.552-9.237,1.711-2.454,3.614-5.171,4.419-8.094,1.284-4.662,1.333-10,.333-14.712-1.142-5.381-4.007-10.163-8.068-13.85l.293.707c-.028-.523.714-1.09,1.051-1.399.729-.668,1.533-1.249,2.339-1.819,1.482-1.049,2.895-2.097,4.29-3.259,2.18-1.817,4.493-3.465,6.704-5.243,1.951-1.569,3.954-3.221,5.341-5.332,2.645-4.027,3.485-8.943,5.669-13.2,2.708-5.277,6.246-10.056,9.487-15.005,2.651-4.048,4.964-8.926,9.124-11.668,4.829-3.182,10.851-3.212,16.414-3.366,4.929-.137,9.884-.396,14.068-3.29,1.773-1.226,3.384-2.816,4.344-4.769.924-1.88.974-3.87,1.225-5.909.374-3.041,1.079-6.951-1.006-9.56-1.056-1.321-2.666-1.977-4.298-2.245-.684-.112-1.391-.078-1.844-.226-.443-.144-.88-.395-1.307-.581-5.815-2.522-12.251-5.028-16.886-9.494-.943-.909-1.853-1.952-2.345-3.184-.216-.54-.366-1.147-.333-1.733.058-1.039.886-1.963,1.421-2.827,1.144-1.843,2.267-3.726,2.504-5.926.127-1.174-.08-2.258-.3-3.403-.139-.723-.151-1.147.197-1.818.269-.519.602-1.002.847-1.535.39-.846.543-1.745.349-2.665-.204-.972-.986-1.76-1.145-2.714-.311-1.871,2.355-2.833,2.73-4.58.48-2.238-1.604-3.559-3.05-4.799-1.304-1.118-1.746-2.517-1-4.111,1.477-3.155,5.325-5.141,8.133-6.915,1.439-.909,2.841-1.837,4.193-2.871,1.06-.811,2.48-1.369,2.929-2.757.718-2.22-1.719-3.757-2.857-5.278-.647-.865-.832-1.655-.165-2.57,1.326-1.82,3.211-3.158,4.92-4.585,1.683-1.405,3.19-2.971,4.072-5.008l-1.368.359c8.012,5.536,15.973,11.239,23.111,17.887,6.102,5.683,12.563,12.598,14.486,20.979.957,4.168.357,8.379-1.679,12.133-.54.997.738,2.005,1.571,1.212,1.577-1.502,2.708-3.565,4.001-5.303,1.357-1.823,3.111-4.455,5.362-5.253,2.661-.943,2.559,3.691,2.136,5.193-.82,2.913-3.391,5.022-5.892,6.505-2.98,1.767-6.349,2.952-9.769,3.493-.53.084-.835.757-.698,1.23,2.331,8.087,13.421,5.37,18.013,1.013,1.449-1.375,2.56-3.228,3.579-4.929,1.061-1.771,1.992-3.653,2.6-5.631.951-3.091.987-6.567-1.104-9.208-2.945-3.719-8.392-4.457-12.805-4.696-1.312-.071-1.243,1.848,0,2h.001c.828.101,1.144-.905.863-1.505-.208-.445-.615-.862-.906-1.253-.775-1.042-1.569-2.07-2.37-3.092-2.611-3.327-5.334-6.569-8.173-9.703-3.453-3.811-7.08-7.489-11.013-10.808-3.473-2.931-7.313-5.341-10.947-8.059-2.94-2.198-5.836-4.459-8.694-6.763l.156,1.212c1.416-2.288,3.281-4.348,5.109-6.306,5.253-5.626,11.316-10.451,17.726-14.691.646-.427.64-1.298,0-1.727-4.871-3.261-6.084-9.004-4.626-14.442,1.449-5.407,5.002-9.611,9.754-12.471,4.722-2.841,10.272-4.294,15.77-4.344,2.701-.025,5.397.291,8,1.022,2.521.707,4.395,1.975,6.064,4.006,3.222,3.922,5.351,9.544,5.149,14.651-.119,3.001-1.694,7.055-4.962,7.915-3.425.901-1.059-6.477-.287-7.805,1.843-3.17,5.273-4.888,8.833-5.303,7.074-.824,16.068,2.941,17.647,10.536.695,3.345.715,7.076.51,10.463-.105,1.73-.261,3.698-1.105,5.251-.323.593-1.747,1.924-2.175.751-.191-.524.196-1.407.365-1.882.341-.961.827-1.872,1.336-2.753.863-1.493,1.695-2.781,3.095-3.797,4.56-3.307,10.648-1.249,14.579,2.063,4.059,3.42,5.923,8.144,5.871,13.395-.053,5.35-1.775,10.718-4.566,15.259-1.328,2.161-2.937,4.156-4.875,5.8-1.005.852-2.17,1.743-3.457,2.095-.436.119-.762.083-1.193.1-.175.007-.168-.089-.289-.124.14.04-.074.272.039.181.921-.74,2.454-.709,3.557-.478,1.294.272,2.321,1.047,3.182,2.025,1.963,2.23,3.409,5.166,4.215,8.013,1.342,4.742.662,10.004-2.587,13.838-3.175,3.747-8.008,5.497-12.852,5.252-2.949-.149-5.809-1.034-8.445-2.337-.486-.24-1.077-.133-1.368.359-4.181,7.069-9.963,13.109-15.532,19.087-.657.705-1.314,1.41-1.969,2.116-.563.607-1.374,1.25-1.793,1.963-.255.434-.264.991-.33,1.49-.279,2.122-.571,4.241-.886,6.358-.195,1.308-.395,2.617-.632,3.918-.08.441-.161.884-.263,1.321-.037.157-.117.349-.129.508-.015.205-.064.158-.033.105l.598-.46c-7.927,3.276-15.595,7.167-22.802,11.827-3.171,2.05-6.316,4.09-9.545,6.05-3.029,1.839-6.045,3.781-8.65,6.201-1.255,1.167-2.402,2.458-3.361,3.88-.893,1.325-1.42,2.921-2.048,4.386-.949,2.215-1.873,4.453-2.995,6.588-1.579,3.007-3.56,5.183-6.96,5.971-2.208.512-4.514.568-6.77.588-1.55.014-3.101-.014-4.651-.055-1.526-.04-3.05.399-4.471.941-5.358,2.042-9.167,6.459-11.829,11.402-2.79,5.181-4.502,10.861-6.198,16.469-2.456,8.12-4.162,16.372-5.106,24.806-2.02,18.059-.859,36.266.252,54.343.136,2.214.271,4.427.401,6.641.064,1.095,1.655,1.395,1.964.266,1.944-7.091.255-15.96,5.874-21.647,1.034-1.047,2.866-1.832,3.472.136.207.672.235.827-.309,1.154-.292.175-.593.347-.907.481-1.008.43-2.061.517-2.884.142-2.292-1.044-3.239-4.319-3.79-6.624-.918-3.84-1.099-7.855-.996-11.789.109-4.187.581-8.39,1.586-12.461.711-2.88,1.648-6.264,3.771-8.461.717-.742,2.039-1.69,3.093-.684.882.841-.863,2.312-1.639,2.504-3.143.774-2.405-7.057-2.29-8.547.385-4.99,1.433-9.943,2.745-14.765,1.398-5.139,3.145-10.238,5.552-14.998,1.676-3.314,3.847-7.33,7.265-9.147,1.193-.634,3.132-.988,3.613.743.418,1.505-.959,3.353-2.298,3.901-2.335.954-3.881-2.432-2.958-4.242,1.409-2.762,5.62-4.368,8.516-4.312,3.69.072,7.196,1.585,10.922.865,2.741-.529,5.084-2.192,6.943-4.217,1.982-2.16,3.517-4.685,5.076-7.154,1.213-1.92,2.654-3.707,3.619-5.769.9-1.925,1.972-4.298,1.707-6.478-.195-1.608-2.065-3.136-3.513-1.799-1.041.962-1.386,2.702-1.574,4.037-.244,1.739-.234,3.697.616,5.285.9,1.681,2.647,2.298,4.468,1.969,1.596-.288,3.12-1.137,4.569-1.823,1.924-.911,3.813-1.897,5.664-2.948,3.664-2.082,7.085-4.483,10.567-6.844,2.211-1.499,4.586-2.749,6.887-4.101,4.341-2.55,9.45-5.678,11.088-10.753.81-2.51.467-5.171-.493-7.585-.275-.692-1.442-1.117-1.828-.239-1.382,3.143-1.33,6.402.446,9.382,2.028,3.404,5.354,5.952,8.455,8.316,4.473,3.409,9.127,6.573,13.6,9.983,5.703,4.348,11.143,9.05,16.098,14.241,6.03,6.317,11.296,13.325,15.683,20.877,2.606,4.486,4.914,9.149,6.912,13.937,2.188,5.245,3.876,10.63,5.58,16.044,3.278,10.412,5.884,21.04,8.136,31.718,2.499,11.847,4.541,23.805,5.947,35.832.663,5.672,1.183,11.364,1.477,17.068.134,2.601.06,5.244.326,7.831.271,2.626.342,5.337-.181,7.937-.743,3.694-2.757,6.688-5.748,8.946-3.21,2.424-6.949,4.088-10.452,6.031-1.986,1.101-3.925,2.278-5.782,3.586-.809.57-.522,1.808.505,1.863,7.013.381,13.016-2.766,17.302-8.226l-1.707-.707c.316,5.456-3.929,8.795-8.36,11.059-5.153,2.633-10.772,4.175-16.075,6.459-2.529,1.089-4.747,2.732-7.269,3.791-3.492,1.465-7.201,1.882-10.42-.45-1.661-1.203-2.977-2.882-4.37-4.374-1.415-1.516-2.832-3.045-4.07-4.713-1.188-1.601-2.26-3.35-2.826-5.274-.511-1.738-.482-3.592-.568-5.388-.408-8.505-.86-18.436,3.632-26.039h-1.727c2.769,3.65,4.86,7.696,7.087,11.683,1.997,3.574,4.221,6.963,6.927,10.043,4.562,5.193,10.059,10.431,16.768,12.604l.532-1.929c-3.807-1.212-7.439-3.147-10.842-5.214-4.035-2.451-7.561-5.352-10.661-8.914-6.232-7.161-8.249-16.676-8.644-25.921-.403-9.448.684-18.869.73-28.313.011-2.309.306-4.551.417-6.852.104-2.172-.289-4.255-1.332-6.175-2.112-3.888-4.626-7.495-7.283-11.029-5.781-7.688-12.954-16.537-10.208-26.808l-1.469.598c2.21,1.162,2.905,4.253,3.42,6.478.682,2.945,1.012,5.954,1.519,8.931.568,3.333,1.839,6.362,3.328,9.39,1.976,4.02,4.59,7.968,5.951,12.257.731,2.306.918,4.944,1.2,7.34.272,2.316.466,4.641.592,6.969.262,4.823.238,9.657.045,14.482-.383,9.588-1.424,19.132-2.255,28.688-.94,10.796-1.604,21.648-.784,32.475l.495-.863c-5.495,3.954-12.911,4.382-19.444,4.581-7.12.217-14.325-.325-21.414.52-1.67.199-3.39.104-5.073.146-1.793.045-3.586.112-5.378.187-3.718.155-7.435.343-11.154.458-7.544.232-15.185.225-22.638-1.113-8.074-1.449-15.759-4.607-21.67-10.427-.482-.475-1.562-.336-1.671.441-.488,3.472.893,6.736,1.08,10.165.08,1.468-.368,3.022-.487,4.493-.09,1.111-.118,2.228.013,3.337.573,4.861,4.743,7.089,8.848,8.84,3.909,1.668,8.553,2.062,12.751,2.354,4.986.346,9.998.249,14.983-.063,10.943-.685,21.825-2.39,32.568-4.541,9.215-1.845,18.375-4.033,27.397-6.666,2.839-.828,5.677-1.689,8.455-2.705,1.057-.387,3.176-.848,3.787-1.947.243-.437.173-.954-.168-1.318l-1.414,1.414c3.813,3.572,6.598,8.124,8.948,12.75,2.821,5.55,5.024,11.402,6.934,17.321,3.837,11.892,6.549,24.18,8.454,36.524.699,4.531,1.331,9.103,1.554,13.687.026.54.437,1,1,1h122.887c1.656,0,3.348.102,5.002,0,.072-.004.146,0,.219,0,1.287,0,1.289-2,0-2h-126.169c-.543,0-1.184-.095-1.72,0-.068.012-.149,0-.219,0l1,1c-.48-9.856-2.359-19.755-4.431-29.379-2.745-12.751-6.255-25.589-11.909-37.388-2.588-5.401-5.728-10.799-10.137-14.929-.941-.881-2.296.473-1.414,1.414-.476-.508-.119-.838-.029-1.253-.034.156.081-.027.012-.004-.198.067-.398.227-.589.32-.644.314-1.182.51-2.021.818-2.564.943-5.182,1.747-7.801,2.521-8.288,2.449-16.698,4.501-25.155,6.274-10.174,2.132-20.459,3.861-30.819,4.767-8.967.784-18.321,1.186-27.187-.675-2.275-.478-4.357-1.197-6.433-2.258-1.727-.882-3.543-1.954-4.502-3.709-.928-1.7-.845-3.78-.684-5.648.118-1.374.53-2.804.488-4.176-.049-1.614-.448-3.234-.743-4.816-.302-1.623-.654-3.338-.421-4.994l-1.671.441c11.061,10.891,27.124,12.424,41.884,12.215,7.583-.108,15.152-.687,22.735-.778,3.396-.04,6.776-.469,10.182-.523,3.801-.06,7.602.008,11.402-.044,6.876-.095,14.409-.308,20.671-3.492.683-.347,1.346-.734,1.975-1.171.937-.652.83-1.184.756-2.282-.169-2.502-.26-5.009-.286-7.516-.053-5.026.149-10.052.478-15.067,1.31-19.947,4.736-40.026,2.152-60.016-.299-2.311-.442-4.944-1.285-7.123-.799-2.065-1.753-4.066-2.758-6.038-2.031-3.984-4.484-7.956-5.74-12.277-1.615-5.555-.975-12.025-4.063-17.116-.599-.988-1.387-1.868-2.419-2.41-.564-.296-1.296-.049-1.469.598-2.47,9.237,2.389,17.511,7.685,24.709,2.692,3.66,5.582,7.201,7.938,11.096,1.173,1.939,2.63,4.001,3.023,6.266.412,2.376-.271,4.726-.323,7.094-.105,4.741-.186,9.465-.422,14.204-.247,4.956-.481,9.92-.346,14.883.254,9.305,1.892,18.956,7.541,26.613,3.144,4.262,7.103,7.774,11.551,10.622,3.899,2.497,8.147,4.789,12.575,6.198,1.23.392,1.752-1.533.532-1.929-6.438-2.086-11.687-7.282-16.042-12.269-5.569-6.377-8.457-14.437-13.544-21.142-.44-.58-1.311-.704-1.727,0-4.293,7.266-4.293,16.538-4.003,24.714.144,4.081.14,8.001,2.215,11.647,2.109,3.705,5.257,6.724,8.12,9.837,2.707,2.943,6.165,4.739,10.229,4.197,2.083-.278,4.051-1.034,5.939-1.935,1.255-.598,2.367-1.451,3.605-2.093,5.48-2.842,11.562-4.336,17.154-6.94,5.547-2.582,11.188-6.69,10.794-13.489-.044-.766-1.128-1.445-1.707-.707-1.895,2.413-4.131,4.532-6.885,5.931-2.797,1.42-5.893,1.878-9.002,1.709l.505,1.863c3.633-2.559,7.598-4.515,11.482-6.651,3.236-1.779,6.446-3.798,8.679-6.805,2.573-3.466,3.306-7.837,3.178-12.067-.083-2.736-.295-5.472-.405-8.211s-.277-5.481-.489-8.217c-1.813-23.419-6.196-46.846-12.389-69.492-2.848-10.413-6.005-20.83-10.561-30.637-3.994-8.597-9.009-16.692-14.983-24.053-8.909-10.977-19.873-19.578-31.271-27.796-3.662-2.64-7.503-5.253-10.592-8.576-2.079-2.236-3.596-4.948-3.088-7.768.133-.737.391-1.56.66-2.172l-1.828-.239c1.073,2.697,1.254,5.51-.21,8.098-1.408,2.488-3.771,4.333-6.109,5.898-2.481,1.661-5.116,3.071-7.684,4.589-3.352,1.982-6.442,4.37-9.749,6.429-3.769,2.346-7.793,4.74-11.979,6.266-1.847.674-3.263.267-3.701-1.744-.354-1.626-.144-3.627.525-5.154.072-.163.331-.608.33-.604.047-.122.165-.135.083-.09-.228.124-.094-.033-.067.076.057.223.228.411.244.733.028.581-.113,1.168-.257,1.725-.57,2.201-1.569,4.214-2.87,6.061-1.834,2.606-3.355,5.422-5.268,7.974-1.802,2.405-4.072,4.652-7.083,5.373-3.971.951-7.872-1.122-11.85-.82-3.128.238-6.718,1.917-8.66,4.442-1.827,2.375-1.351,5.873,1.189,7.592,3.701,2.505,8.693-2.736,6.956-6.497-.892-1.932-3.085-2.571-5.001-1.952-1.698.549-3.147,1.698-4.358,2.979-3.405,3.602-5.576,8.346-7.392,12.895-2.145,5.373-3.755,10.98-4.889,16.651-.896,4.481-1.727,9.268-1.284,13.853.178,1.848.608,4.041,2.381,5.031,1.763.985,3.856.004,4.971-1.488,1.106-1.479,1.17-3.576-.628-4.536-1.669-.892-3.379-.501-4.75.654-2.508,2.112-3.694,5.724-4.531,8.773-1.183,4.306-1.738,8.81-1.908,13.266-.164,4.334.024,8.779,1.022,13.015.664,2.816,1.822,6.315,4.536,7.808,1.186.652,2.557.757,3.856.417.754-.197,1.482-.541,2.148-.941,1.197-.718,1.625-1.883,1.27-3.27-.377-1.473-1.64-2.727-3.184-2.874-1.5-.142-2.798.8-3.786,1.831-2.499,2.61-3.851,6.104-4.468,9.609-.749,4.249-.662,8.624-1.808,12.803l1.964.266c-1.19-20.285-2.921-40.709-.653-60.985,1.031-9.221,3.13-18.134,5.859-26.985,1.928-6.254,4.073-12.849,8.249-18.011,1.982-2.45,4.462-4.53,7.415-5.698,1.727-.683,3.313-.936,5.159-.897,1.669.035,3.339.052,5.008.003,4.095-.12,8.562-.571,11.493-3.766,3.507-3.822,4.782-9.271,7.021-13.82,1.726-3.505,5.457-6.15,8.622-8.246,3.438-2.277,7.062-4.246,10.475-6.561,4.033-2.736,8.227-5.231,12.54-7.499,2.144-1.128,4.318-2.198,6.517-3.215,1.027-.475,2.059-.937,3.096-1.388.873-.379,2.502-.677,3.06-1.501.342-.506.41-1.281.524-1.862.225-1.15.406-2.309.584-3.468.377-2.454.715-4.914,1.041-7.375.062-.467.123-.933.183-1.4l-.293.707c6.832-7.478,14.337-14.691,19.529-23.47l-1.368.359c5.682,2.807,12.318,3.666,18.204.943,5.053-2.338,8.552-7.164,9.231-12.682.387-3.146-.142-6.364-1.303-9.301s-2.89-6.3-5.5-8.208c-2.029-1.483-6.044-2.25-8.045-.269-1.76,1.743.351,3.551,2.229,3.437,2.885-.176,5.554-2.68,7.405-4.704,2.069-2.263,3.74-4.89,5.017-7.673,2.555-5.566,3.875-12.073,2.505-18.133-1.348-5.963-5.962-10.828-11.637-12.968-5.225-1.971-11.018-.696-14.189,4.068-1.35,2.029-5.602,9.655-.115,9.504,4.436-.122,4.537-7.159,4.577-10.221.051-3.909.071-8.535-1.675-12.122-1.984-4.077-6.045-6.825-10.269-8.173-4.276-1.365-9.149-1.421-13.281.453-4.45,2.018-7.148,6.401-7.308,11.251-.056,1.707.368,3.849,2.213,4.459,1.627.537,3.347-.384,4.579-1.389,3.911-3.188,4.437-8.25,3.543-12.927-1.073-5.614-4.188-12.369-9.512-15.121-2.652-1.371-5.992-1.831-8.935-2.024-3.267-.214-6.58.081-9.769.813-6.175,1.416-12.191,4.598-16.196,9.597-3.746,4.676-5.768,11.725-3.796,17.547.989,2.921,2.936,5.256,5.483,6.961v-1.727c-6.546,4.33-12.765,9.257-18.131,15.003-1.941,2.079-3.918,4.281-5.421,6.71-.212.343-.178.942.156,1.212,2.347,1.892,4.724,3.749,7.12,5.579,3.562,2.72,7.38,5.111,10.884,7.899,7.433,5.914,13.861,13.138,19.779,20.536.997,1.247,1.979,2.505,2.936,3.783.344.46.826.951,1.072,1.475l.863-1.505h-.001v2c3.522.191,7.82.66,10.541,3.182,1.977,1.833,2.323,4.458,1.758,6.996-.785,3.529-2.791,6.765-4.917,9.638-1.785,2.412-4.69,3.855-7.566,4.52-3.281.758-7.108.269-8.17-3.417l-.698,1.23c3.485-.551,6.933-1.783,9.99-3.545,2.964-1.708,5.837-4.142,6.955-7.483.845-2.523.729-7.274-2.438-8.115-2.635-.7-5.05,1.92-6.569,3.691-1.182,1.377-2.248,2.849-3.303,4.324-.758,1.06-1.469,2.244-2.419,3.149l1.571,1.212c1.909-3.52,2.762-7.45,2.269-11.439s-2.131-7.744-4.247-11.133c-5.229-8.377-13.018-15.061-20.739-21.063-4.527-3.519-9.202-6.842-13.919-10.101-.407-.281-1.164-.112-1.368.359-1.212,2.798-3.657,4.454-5.907,6.362-1.46,1.239-3.599,2.993-3.794,5.049-.138,1.459.706,2.662,1.63,3.7.533.599,2.08,1.773,1.956,2.635-.073.507-.868.964-1.3,1.217-.872.509-1.619,1.198-2.456,1.77-1.874,1.28-3.842,2.416-5.712,3.704-3.021,2.081-7.237,5.298-6.106,9.52.317,1.185,1.114,2.017,2.04,2.778.777.638,2.576,1.641,2.213,2.878-.271.926-1.556,1.604-2.083,2.413-.711,1.092-.882,2.413-.371,3.613.452,1.064,1.24,1.932.799,3.163-.46,1.282-1.63,2.358-1.558,3.826.04.803.461,1.597.542,2.414.065.655.041,1.318-.089,1.964-.286,1.419-1.024,2.675-1.77,3.896-.683,1.119-1.757,2.349-2.006,3.648-.149.775-.083,1.601.1,2.364.412,1.718,1.534,3.214,2.749,4.454,2.946,3.006,6.828,5.108,10.569,6.95,2.813,1.385,5.711,2.755,8.632,3.899,1.079.422,2.348.252,3.477.639.909.312,1.705.855,2.175,1.71.926,1.686.657,3.913.476,5.743-.244,2.471-.228,5.375-1.501,7.561-1.377,2.364-3.796,4.079-6.295,5.102-3.151,1.29-6.726,1.294-10.079,1.388-3.436.096-6.899.137-10.278.84-3.047.634-6.092,1.832-8.514,3.817-2.251,1.845-3.957,4.281-5.518,6.711-3.851,5.997-8.133,11.809-11.582,18.049-1.472,2.663-2.55,5.425-3.578,8.282-.966,2.682-1.955,5.617-3.898,7.772-2.336,2.591-5.282,4.626-8.032,6.743-2.107,1.623-4.096,3.352-6.274,4.877-1.552,1.087-3.951,2.449-4.61,4.353-.402,1.162.249,1.606,1.04,2.379,1.226,1.199,2.333,2.513,3.277,3.945,3.377,5.127,4.394,11.278,3.803,17.32-.233,2.382-.606,4.694-1.695,6.836-.964,1.895-2.13,3.689-3.348,5.428-2.705,3.862-5.756,7.612-9.278,10.761-1.088.973-2.334,2.094-3.757,2.536l.771,1.828c7.635-4.618,13.333-12,15.065-20.837.827-4.222.77-8.564-.081-12.778-.45-2.228-1.13-4.402-2-6.502-.425-1.026-.889-2.036-1.4-3.023-.581-1.122-.743-2.331-1.235-3.492-1.911-4.507-6.705-6.321-11.063-7.637-.755-.228-1.401.511-1.23,1.23.875,3.689-1.126,7.057-3.173,9.97-1.866,2.657-3.739,5.235-5.441,8-2.847,4.625-6.014,9.341-10.211,12.855-2.039,1.707-4.747,3.376-7.466,2.359l.239,1.828c6.192-4.209,11.367-9.797,15.656-15.902,2.195-3.124,4.156-6.417,5.821-9.853.806-1.663,1.544-3.361,2.201-5.087.625-1.642,1.357-3.377,1.282-5.166-.119-2.82-1.882-5.157-3.159-7.564-.847-1.595-1.651-3.213-2.455-4.83-2.237-4.502-4.424-9.03-6.603-13.56-1.403-2.917-2.801-5.835-4.191-8.758v1.009c2.7-5.562-.016-11.342-3.735-15.683-1.929-2.252-4.192-4.235-6.635-5.915-1.16-.797-2.439-1.272-3.425-2.324-.872-.931-1.401-2.092-1.686-3.325-.596-2.581-.188-5.348.155-7.936.296-2.231.621-4.443.989-6.663.579-3.502,1.425-9.682-3.365-10.611-2.017-.391-4.199-.298-6.241-.355-3.882-.109-7.767-.163-11.65-.208-8.99-.106-17.981-.146-26.972-.165-2.902-.006-5.804-.01-8.706-.009-4.374.002-9.322-.237-12.737-3.35-1.124-1.025-1.966-2.289-2.529-3.7l-.964,1.266c6.379-.287,12.839-.777,19.223-.549v-2c-3.712-.124-6.319-3.312-5.857-6.993.184-1.469.922-2.917,2.265-3.631.73-.388,1.548-.518,2.368-.494.625.018,1.116.104,1.622.5.336.263.672.608.874.985.034.064.284,1.013.059.864l.46.598c-.631-2.458-.257-5.048,1.667-6.829,1.361-1.26,3.506-2.015,5.319-1.361,2.194.792,2.568,3.277,2.324,5.325-.047.394-.294.997-.255,1.379.007.071-.352,1.1.466.271-.02.021-.077-.607-.073-.667.047-.847.453-1.843.911-2.549.587-.906,1.531-1.594,2.655-1.491.947.087,1.821.696,2.176,1.587.587,1.471-.344,3.003-1.296,4.071l1.707.707c-.126-2.383.843-4.861,2.34-6.696,1.34-1.641,3.704-3.152,5.849-2.037,1.723.895,6.441,7.961,3.071,8.874l1.23.698c-.399-2.715.541-6.323,3.999-5.682.918.17,1.923.71,2.246,1.641.467,1.35-.696,2.671-1.587,3.528l1.707.707c-.426-3.845,5.892-6.415,8.795-4.451,1.74,1.177,1.428,3.613.341,5.169-.011.016-.681.747-.705.495.056.61.794-.325.867-.405.293-.321.569-.648.913-.919.97-.762,2.201-1.129,3.42-.862,1.139.25,2.147,1.049,2.49,2.185.498,1.648-.547,3.246-1.617,4.401-.581.628-.182,1.704.707,1.707,7.821.029,15.643.059,23.464.088,1.13.004,2.259.009,3.389.013l-1-1c-.651,11.049-14.288,9.779-22.177,10.308-1.608.108-3.618.175-4.978,1.166l.771-.101c-2.814-.505-4.281,1.881-4.674,4.36-.613,3.861-1.184,7.71-2.034,11.533-.456,2.05-.965,4.089-1.554,6.105-.265.906-.448,2.091-.917,2.915-.173.304-.131.333-.394.314-.307-.022-.858-.625-1.114-.795-2.802-1.856-5.108-3.82-5.81-7.26-.531-2.6-.124-5.308-.013-7.93.098-2.309.182-5.612-1.214-7.611-.619-.886-2.18-.988-3.145-1.116-1.041-.138-2.375-.375-3.408-.056-1.298.401-1.954,2.451-2.274,3.635-.465,1.718-.533,3.531-.607,5.3-.048,1.139-.085,2.28-.19,3.416-.088.958-.336,1.912-.36,2.873-.038,1.513.462,3.042,1,4.435,1.183,3.061,2.984,5.84,4.178,8.888l1.671-.973c-.777-.654-1.328-1.638-1.877-2.474-.99-1.506-1.921-3.052-2.835-4.605-1.699-2.887-3.406-5.806-4.851-8.831-.743-1.555-.614-3.571-.479-5.458.071-.997.088-1.994.162-2.99.073-.979.221-2.162-.244-3.074-.603-1.181-2.53-1.171-3.684-1.255-1.515-.111-3.444-.051-4.573,1.128-.824.861-1.005,2.473-1.306,3.577-.379,1.389-.757,2.777-1.136,4.166l1.964.266c.063-2.872.175-5.756.103-8.628-.015-.594-.451-.927-1-1-2.234-.295-4.416-.856-6.678-.926-.665-.021-1.118.654-.964,1.266.749,2.986,2.506,5.556,4.289,8.016.865,1.194,1.757,2.37,2.57,3.6.965,1.46,1.418,2.929,1.705,4.639.24,1.429.428,2.85.995,4.197.528,1.253,1.384,2.379,2.181,3.475,1.367,1.88,2.865,3.661,4.457,5.353,6.654,7.073,14.732,12.578,21.779,19.226,3.381,3.189,6.537,6.657,8.972,10.634,1.256,2.05,2.318,4.217,3.113,6.487.392,1.12.725,2.261.996,3.416.127.541.24,1.085.341,1.631.061.333.125.668.169,1.003.016.119-.03-.302-.005-.02.227,2.508.143,5.07.16,7.585.025,3.811.025,7.623.017,11.435-.004,2.016.042,4.04-.02,6.055-.14,4.57-.739,9.134-1.003,13.699-.355,6.138-.205,12.358,3.57,17.509,2.217,3.025,5.095,5.481,8.046,7.762,1.996,1.542,4.051,3.006,6.13,4.435,2.211,1.52,3.662,3.966,5.379,6.012,2.711,3.232,5.928,6.38,10.295,6.965,5.27.707,10.073-2.272,14.876-3.936,5.393-1.868,10.922-3.419,16.07-5.923,4.508-2.193,10.103-5.445,11.011-10.804.458-2.702.152-5.436-.205-8.131-.387-2.926-.539-5.749-.608-8.697-.173-7.436-1.121-14.831-2.254-22.175-.545-3.532-1.137-7.056-1.716-10.583-.172-1.045-1.648-.852-1.929,0-4.552,13.795-1.778,28.622,1.039,42.471,3.049,14.992,5.867,30.014,8.554,45.076,1.393,7.806,2.667,15.819,5.165,23.359,1.164,3.515,2.288,7.062,2.911,10.72.318,1.867.484,3.761.46,5.656-.026,2.076-.421,4.085-.652,6.14-.452,4.018-.229,8.067-.308,12.1-.074,3.763-.607,7.258-1.818,10.821-1.194,3.514-2.709,6.921-3.672,10.512-1.014,3.779-1.126,7.818-1.512,11.7-1.82,18.292-3.291,36.639-3.394,55.032l1-1H21.124c-5.808,0-11.655-.2-17.46,0-.083.003-.167,0-.251,0-1.287,0-1.289,2,0,2h0Z"/>
  </g>
</svg>