<svg width="65" height="64" viewBox="0 0 65 64" fill="none" xmlns="http://www.w3.org/2000/svg">
<g clip-path="url(#clip0_222_4456)">
<path d="M32.5 52C46.3071 52 57.5 40.8071 57.5 27C57.5 13.1929 46.3071 2 32.5 2C18.6929 2 7.5 13.1929 7.5 27C7.5 40.8071 18.6929 52 32.5 52Z" fill="#EBEDF0"/>
<path d="M51.5 50.0599C59.53 51.9999 59.5 56.8999 59.5 61.9999H5.5C5.5 56.8999 5.48 51.9999 13.5 50.0599C14.71 49.7599 16.09 49.3799 17.46 48.9009C20.77 53.9999 26.43 56.9999 32.5 56.9999C38.57 56.9999 44.23 53.9999 47.54 48.8999C48.92 49.3899 50.29 49.7699 51.5 50.0599Z" fill="#8FF3AD"/>
<path d="M49.5 24V28C49.5 29.86 48.23 31.43 46.5 31.87C46.18 31.96 45.85 32 45.5 32H45C44.33 32 43.77 31.57 43.59 30.97C43.53 30.82 43.5 30.66 43.5 30.5V21.5C43.5 21.14 43.62 20.81 43.84 20.56C44.02 20.331 44.27 20.151 44.56 20.071C44.7 20.02 44.85 20 45 20H45.5C46.24 20 46.94 20.21 47.54 20.56C48.72 21.26 49.5 22.54 49.5 24Z" fill="#8FF3AD"/>
<path d="M45.59 48.1498C46.231 48.4288 46.89 48.6788 47.54 48.8998C44.23 53.9998 38.57 56.9998 32.5 56.9998C26.43 56.9998 20.77 53.9998 17.46 48.8998C21.49 47.4998 25.5 45.2598 25.5 41.9998V38.0498C27.41 39.8298 29.84 40.9998 32.5 40.9998C35.16 40.9998 37.59 39.8298 39.5 38.0498V40.9998C39.5 40.9998 39.34 42.4698 40.24 44.1598C39.99 44.0398 39.719 43.9798 39.429 43.9998L35.099 44.2898C34.299 44.3398 33.559 44.7198 33.079 45.3298C32.589 45.9398 32.399 46.7198 32.549 47.4798L32.619 47.8298C32.779 48.5798 33.259 49.2398 33.949 49.6298C34.629 50.0198 35.459 50.1098 36.219 49.8698L40.349 48.5588C41.15 48.3088 41.629 47.5188 41.469 46.7298L41.36 46.1898L41.78 46.0888C42.66 46.8798 43.89 47.6098 45.59 48.1498Z" fill="white"/>
<path d="M44.5001 17L44.5601 20.07C44.2701 20.15 44.0201 20.33 43.8401 20.559C43.5901 19.62 41.0601 18.209 41.0601 18.209C40.1401 17.53 38.9501 17 37.5001 17C35.7001 17 33.5501 17 31.0001 17C29.5101 17 28.0501 16.47 26.5001 15C26.3301 17.32 25.3301 18.96 24.2601 20.07C24.2601 20.07 23.3701 21.07 21.4301 21.08C21.3001 20.59 20.9201 20.21 20.4301 20.07L20.5001 17C20.5001 10.75 25.0801 6 32.5001 6C39.9201 6 44.5001 10.75 44.5001 17Z" fill="#8FF3AD"/>
<path d="M43.59 30.97L43.5 31C42.98 33.58 41.54 36.16 39.5 38.05C37.59 39.83 35.16 41 32.5 41C29.84 41 27.41 39.83 25.5 38.05C23.46 36.16 22.02 33.58 21.5 31L21.41 30.97C21.47 30.82 21.5 30.66 21.5 30.5V21.5C21.5 21.35 21.48 21.21 21.43 21.08C23.37 21.07 24.26 20.07 24.26 20.07C25.33 18.96 26.33 17.32 26.5 15C28.05 16.47 29.51 17 31 17H37.5C38.95 17 40.14 17.53 41.06 18.21C41.06 18.21 43.59 19.62 43.84 20.56C43.62 20.81 43.5 21.14 43.5 21.5V30.5C43.5 30.66 43.53 30.82 43.59 30.97Z" fill="white"/>
<path d="M41.47 46.7299C41.63 47.5189 41.151 48.3089 40.35 48.5589L36.22 49.8699C35.46 50.1099 34.63 50.0189 33.95 49.6299C33.26 49.2399 32.78 48.5799 32.62 47.8299L32.55 47.4799C32.401 46.7189 32.59 45.9399 33.08 45.3299C33.559 44.7199 34.3 44.3399 35.1 44.2899L39.43 43.9999C39.72 43.9799 39.991 44.0399 40.241 44.1599C40.481 44.6199 40.801 45.0899 41.231 45.5589L41.361 46.1899L41.47 46.7299Z" fill="#8FF3AD"/>
<path d="M21.5 21.5V30.5C21.5 30.66 21.47 30.82 21.41 30.97C21.23 31.57 20.67 32 20 32H19.5C17.29 32 15.5 30.21 15.5 28V24C15.5 22.54 16.28 21.26 17.46 20.56C18.06 20.21 18.76 20 19.5 20H20C20.15 20 20.29 20.02 20.43 20.07C20.92 20.21 21.3 20.59 21.43 21.08C21.48 21.21 21.5 21.35 21.5 21.5Z" fill="#8FF3AD"/>
<path d="M47.54 20.56C48.72 21.26 49.5 22.54 49.5 24V28C49.5 29.86 48.23 31.43 46.5 31.87C46.18 31.96 45.85 32 45.5 32H45C44.33 32 43.77 31.57 43.59 30.97C43.53 30.82 43.5 30.66 43.5 30.5V21.5C43.5 21.14 43.62 20.81 43.84 20.56C44.02 20.331 44.27 20.151 44.56 20.071C44.7 20.02 44.85 20 45 20H45.5C46.24 20 46.94 20.21 47.54 20.56Z" stroke="#303E58" stroke-width="1.5" stroke-miterlimit="10" stroke-linecap="round" stroke-linejoin="round"/>
<path d="M17.46 20.56C16.28 21.26 15.5 22.54 15.5 24V28C15.5 30.21 17.29 32 19.5 32H20C20.67 32 21.23 31.57 21.41 30.97C21.47 30.82 21.5 30.66 21.5 30.5V21.5C21.5 21.35 21.48 21.21 21.43 21.08C21.3 20.59 20.92 20.21 20.43 20.07C20.29 20.02 20.15 20 20 20H19.5C18.76 20 18.06 20.21 17.46 20.56Z" stroke="#303E58" stroke-width="1.5" stroke-miterlimit="10" stroke-linecap="round" stroke-linejoin="round"/>
<path d="M21.5 31C22.02 33.58 23.46 36.16 25.5 38.05C27.41 39.83 29.84 41 32.5 41C35.16 41 37.59 39.83 39.5 38.05C41.54 36.16 42.98 33.58 43.5 31" stroke="#303E58" stroke-width="1.5" stroke-miterlimit="10" stroke-linecap="round" stroke-linejoin="round"/>
<path d="M20.5 17C20.5 10.75 25.08 6 32.5 6C39.92 6 44.5 10.75 44.5 17" stroke="#303E58" stroke-width="1.5" stroke-miterlimit="10" stroke-linecap="round" stroke-linejoin="round"/>
<path d="M17.46 20.56C17.46 6.44 22.5 2 32.5 2C42.5 2 47.54 6.44 47.54 20.56" stroke="#303E58" stroke-width="1.5" stroke-miterlimit="10" stroke-linecap="round" stroke-linejoin="round"/>
<path d="M24.26 20.07C25.33 18.96 26.33 17.32 26.5 15C28.05 16.47 29.51 17 31 17H37.5C38.95 17 40.14 17.53 41.06 18.21" stroke="#303E58" stroke-width="1.5" stroke-miterlimit="10" stroke-linecap="round" stroke-linejoin="round"/>
<path d="M5.5 62C5.5 56.9 5.48 52 13.5 50.06C14.71 49.76 16.09 49.38 17.46 48.901C21.49 47.5 25.5 45.26 25.5 42" stroke="#303E58" stroke-width="1.5" stroke-miterlimit="10" stroke-linecap="round" stroke-linejoin="round"/>
<path d="M45.59 48.1499C46.231 48.4289 46.89 48.6789 47.54 48.8999C48.92 49.3889 50.29 49.7689 51.5 50.0589C59.53 51.9999 59.5 56.8999 59.5 61.9999" stroke="#303E58" stroke-width="1.5" stroke-miterlimit="10" stroke-linecap="round" stroke-linejoin="round"/>
<path d="M39.5 38.0498V40.9998" stroke="#303E58" stroke-width="1.5" stroke-miterlimit="10" stroke-linecap="round" stroke-linejoin="round"/>
<path d="M41.3601 46.1899L41.4691 46.7299C41.6291 47.5189 41.1501 48.3089 40.3491 48.5589L36.2191 49.8699C35.4591 50.1099 34.6291 50.0189 33.9491 49.6299C33.2591 49.2399 32.7791 48.5799 32.6191 47.8299L32.5491 47.4799C32.4001 46.7189 32.5891 45.9399 33.0791 45.3299C33.5581 44.7199 34.2991 44.3399 35.0991 44.2899L39.4301 43.9999C39.7201 43.9799 39.9911 44.0399 40.2411 44.1599C40.7201 44.3599 41.0811 44.7799 41.1801 45.2999L41.2311 45.5599L41.3601 46.1899Z" stroke="#303E58" stroke-width="1.5" stroke-miterlimit="10" stroke-linecap="round" stroke-linejoin="round"/>
<path d="M46.5 31.8701V42.6201C46.5 44.0101 45.54 45.2201 44.18 45.5401L41.781 46.0901L41.361 46.1911" stroke="#303E58" stroke-width="1.5" stroke-miterlimit="10" stroke-linecap="round" stroke-linejoin="round"/>
<path d="M47.54 48.8999C44.23 53.9999 38.57 56.9999 32.5 56.9999C26.43 56.9999 20.77 53.9999 17.46 48.8999" stroke="#303E58" stroke-width="1.5" stroke-miterlimit="10" stroke-linecap="round" stroke-linejoin="round"/>
</g>
<defs>
<clipPath id="clip0_222_4456">
<rect width="64" height="64" fill="white" transform="translate(0.5)"/>
</clipPath>
</defs>
</svg>
