<svg width="65" height="64" viewBox="0 0 65 64" fill="none" xmlns="http://www.w3.org/2000/svg">
<g clip-path="url(#clip0_222_4395)">
<path d="M25.5 50C37.6503 50 47.5 40.1503 47.5 28C47.5 15.8497 37.6503 6 25.5 6C13.3497 6 3.5 15.8497 3.5 28C3.5 40.1503 13.3497 50 25.5 50Z" fill="#EBEDF0"/>
<path d="M39.5 18C43.0601 18 46.5402 19.0557 49.5003 21.0335C52.4603 23.0114 54.7675 25.8226 56.1298 29.1117C57.4922 32.4008 57.8487 36.02 57.1541 39.5116C56.4596 43.0033 54.7453 46.2106 52.2279 48.7279C49.7106 51.2453 46.5033 52.9596 43.0116 53.6541C39.52 54.3487 35.9008 53.9922 32.6117 52.6298C29.3226 51.2675 26.5114 48.9603 24.5335 46.0003C22.5557 43.0402 21.5 39.5601 21.5 36C21.5 31.2261 23.3964 26.6477 26.7721 23.2721C30.1477 19.8964 34.7261 18 39.5 18ZM42.1 34.5L51.62 29C50.3911 26.8728 48.6244 25.1062 46.4971 23.8775C44.3697 22.6489 41.9567 22.0014 39.5 22V33C38.8397 33.0004 38.1979 33.2187 37.6743 33.621C37.1507 34.0232 36.7744 34.587 36.6038 35.2249C36.4332 35.8628 36.4778 36.5392 36.7307 37.1492C36.9837 37.7591 37.4308 38.2686 38.0028 38.5986C38.5747 38.9285 39.2396 39.0606 39.8942 38.9742C40.5489 38.8879 41.1567 38.588 41.6236 38.121C42.0904 37.654 42.3902 37.046 42.4763 36.3913C42.5624 35.7367 42.4302 35.0719 42.1 34.5Z" fill="white"/>
<path d="M39.5 22C41.9567 22.0014 44.3697 22.6489 46.4971 23.8775C48.6244 25.1062 50.3911 26.8728 51.62 29L42.1 34.5C41.8365 34.0437 41.4575 33.6648 41.0011 33.4014C40.5447 33.1381 40.0269 32.9997 39.5 33V22Z" fill="#979FAF"/>
<path d="M44.5 6V10H39.5H34.5V6H44.5Z" fill="#8FF3AD"/>
<path d="M42.1 34.5C42.4301 35.0719 42.5624 35.7367 42.4763 36.3913C42.3901 37.046 42.0904 37.654 41.6236 38.121C41.1567 38.588 40.5488 38.8879 39.8942 38.9742C39.2395 39.0606 38.5747 38.9285 38.0027 38.5986C37.4308 38.2686 36.9837 37.7591 36.7307 37.1492C36.4778 36.5392 36.4331 35.8628 36.6037 35.2249C36.7743 34.587 37.1506 34.0232 37.6743 33.621C38.1979 33.2187 38.8397 33.0004 39.5 33C40.0264 33.0023 40.5431 33.1418 40.9991 33.4049C41.455 33.668 41.8345 34.0454 42.1 34.5Z" fill="#8FF3AD"/>
<path d="M55.06 20.44C58.6644 24.0403 60.9088 28.7792 61.4107 33.8489C61.9126 38.9187 60.6409 44.0056 57.8124 48.2427C54.9838 52.4799 50.7735 55.6051 45.8988 57.0857C41.0242 58.5663 35.787 58.3107 31.0797 56.3624C26.3724 54.4141 22.4864 50.8938 20.0839 46.4013C17.6814 41.9089 16.9111 36.7223 17.9043 31.7255C18.8975 26.7287 21.5927 22.231 25.5307 18.9988C29.4686 15.7666 34.4055 14 39.5 14C42.39 13.9953 45.2524 14.5618 47.9228 15.667C50.5931 16.7722 53.0186 18.3943 55.06 20.44ZM57.5 36C57.5 32.44 56.4443 28.9598 54.4664 25.9998C52.4886 23.0397 49.6774 20.7326 46.3883 19.3702C43.0992 18.0078 39.48 17.6514 35.9884 18.3459C32.4967 19.0404 29.2894 20.7548 26.7721 23.2721C24.2547 25.7895 22.5404 28.9967 21.8459 32.4884C21.1513 35.9801 21.5078 39.5993 22.8702 42.8883C24.2325 46.1774 26.5396 48.9886 29.4997 50.9665C32.4598 52.9443 35.9399 54 39.5 54C44.2739 54 48.8523 52.1036 52.2279 48.728C55.6036 45.3523 57.5 40.7739 57.5 36Z" fill="#8FF3AD"/>
<path d="M23.94 20.44C20.3356 24.0403 18.0911 28.7792 17.5893 33.8489C17.0874 38.9187 18.3591 44.0056 21.1876 48.2427C24.0162 52.4799 28.2265 55.6051 33.1012 57.0857C37.9758 58.5663 43.213 58.3107 47.9203 56.3624C52.6276 54.4141 56.5136 50.8938 58.9161 46.4013C61.3186 41.9089 62.0889 36.7223 61.0957 31.7255C60.1025 26.7287 57.4073 22.231 53.4693 18.9988C49.5314 15.7666 44.5945 14 39.5 14C36.61 13.9953 33.7476 14.5618 31.0772 15.667C28.4069 16.7722 25.9814 18.3943 23.94 20.44Z" stroke="#303E58" stroke-width="1.5" stroke-linecap="round" stroke-linejoin="round"/>
<path d="M39.5 54C49.4411 54 57.5 45.9411 57.5 36C57.5 26.0589 49.4411 18 39.5 18C29.5589 18 21.5 26.0589 21.5 36C21.5 45.9411 29.5589 54 39.5 54Z" stroke="#303E58" stroke-width="1.5" stroke-linecap="round" stroke-linejoin="round"/>
<path d="M39.5 33C38.8397 33.0004 38.1979 33.2187 37.6743 33.621C37.1506 34.0232 36.7743 34.587 36.6037 35.2249C36.4331 35.8628 36.4778 36.5392 36.7307 37.1492C36.9837 37.7591 37.4308 38.2686 38.0027 38.5986C38.5747 38.9285 39.2395 39.0606 39.8942 38.9742C40.5488 38.8879 41.1567 38.588 41.6236 38.121C42.0904 37.654 42.3901 37.046 42.4763 36.3913C42.5624 35.7367 42.4301 35.0719 42.1 34.5C41.8365 34.0437 41.4575 33.6648 41.0011 33.4014C40.5446 33.1381 40.0269 32.9997 39.5 33Z" stroke="#303E58" stroke-width="1.5" stroke-linecap="round" stroke-linejoin="round"/>
<path d="M44.5 10H39.5H34.5V6H44.5V10Z" stroke="#303E58" stroke-width="1.5" stroke-linecap="round" stroke-linejoin="round"/>
<path d="M39.5 14V10" stroke="#303E58" stroke-width="1.5" stroke-linecap="round" stroke-linejoin="round"/>
<path d="M14.5 28H6.5" stroke="#979FAF" stroke-width="1.5" stroke-linecap="round" stroke-linejoin="round"/>
<path d="M13.5 35H3.5" stroke="#979FAF" stroke-width="1.5" stroke-linecap="round" stroke-linejoin="round"/>
<path d="M13.5 42H6.5" stroke="#979FAF" stroke-width="1.5" stroke-linecap="round" stroke-linejoin="round"/>
<path d="M58.5 17L55.06 20.44" stroke="#303E58" stroke-width="1.5" stroke-linecap="round" stroke-linejoin="round"/>
<path d="M20.5 17L23.94 20.44" stroke="#303E58" stroke-width="1.5" stroke-linecap="round" stroke-linejoin="round"/>
<path d="M56.5 15L58.5 17L60.5 19" stroke="#303E58" stroke-width="1.5" stroke-linecap="round" stroke-linejoin="round"/>
<path d="M22.5 15L20.5 17L18.5 19" stroke="#303E58" stroke-width="1.5" stroke-linecap="round" stroke-linejoin="round"/>
<path d="M39.5 22V24.19" stroke="#303E58" stroke-width="1.5" stroke-linecap="round" stroke-linejoin="round"/>
<path d="M51.62 29L42.1 34.5" stroke="#303E58" stroke-width="1.5" stroke-linecap="round" stroke-linejoin="round"/>
<path d="M26.5 36H27.5" stroke="#303E58" stroke-width="1.5" stroke-linecap="round" stroke-linejoin="round"/>
<path d="M51.5 36H52.5" stroke="#303E58" stroke-width="1.5" stroke-linecap="round" stroke-linejoin="round"/>
<path d="M25.5 36H26.5" stroke="#303E58" stroke-width="1.5" stroke-linecap="round" stroke-linejoin="round"/>
<path d="M52.5 36H53.5" stroke="#303E58" stroke-width="1.5" stroke-linecap="round" stroke-linejoin="round"/>
<path d="M27.38 43L28.24 42.5" stroke="#303E58" stroke-width="1.5" stroke-linecap="round" stroke-linejoin="round"/>
<path d="M32.5 48.1198L33 47.2598" stroke="#303E58" stroke-width="1.5" stroke-linecap="round" stroke-linejoin="round"/>
<path d="M46.5 48.1198L46 47.2598" stroke="#303E58" stroke-width="1.5" stroke-linecap="round" stroke-linejoin="round"/>
<path d="M33 24.7399L32.5 23.8799" stroke="#303E58" stroke-width="1.5" stroke-linecap="round" stroke-linejoin="round"/>
<path d="M51.62 43L50.76 42.5" stroke="#303E58" stroke-width="1.5" stroke-linecap="round" stroke-linejoin="round"/>
<path d="M28.24 29.5L27.38 29" stroke="#303E58" stroke-width="1.5" stroke-linecap="round" stroke-linejoin="round"/>
<path d="M39.5 50V48" stroke="#303E58" stroke-width="1.5" stroke-linecap="round" stroke-linejoin="round"/>
</g>
<defs>
<clipPath id="clip0_222_4395">
<rect width="64" height="64" fill="white" transform="translate(0.5)"/>
</clipPath>
</defs>
</svg>
