<svg width="65" height="64" viewBox="0 0 65 64" fill="none" xmlns="http://www.w3.org/2000/svg">
<g clip-path="url(#clip0_222_4361)">
<g clip-path="url(#clip1_222_4361)">
<path d="M32.5 54C44.6503 54 54.5 44.1503 54.5 32C54.5 19.8497 44.6503 10 32.5 10C20.3497 10 10.5 19.8497 10.5 32C10.5 44.1503 20.3497 54 32.5 54Z" fill="#EBEDF0"/>
<path d="M51.6 27L58.15 35H47.5V27H51.6Z" fill="white"/>
<path d="M62.5 43V45C62.4984 45.5299 62.2872 46.0377 61.9125 46.4125C61.5377 46.7872 61.0299 46.9984 60.5 47H57.5L57.4 47.01C57.1705 45.8797 56.5573 44.8635 55.6643 44.1336C54.7712 43.4037 53.6534 43.005 52.5 43.005C51.3466 43.005 50.2288 43.4037 49.3357 44.1336C48.4427 44.8635 47.8295 45.8797 47.6 47.01L47.5 47H43.5V23H52.32C52.6899 23.0002 53.055 23.0829 53.3889 23.242C53.7228 23.4012 54.017 23.6328 54.25 23.92L61.93 33.31C62.2971 33.7548 62.4986 34.3132 62.5 34.89V39H58.5V43H62.5ZM58.15 35L51.6 27H47.5V35H58.15Z" fill="#8FF3AD"/>
<path d="M57.4 47.0099C57.4689 47.3353 57.5024 47.6673 57.5 47.9999C57.5 49.326 56.9732 50.5977 56.0355 51.5354C55.0979 52.4731 53.8261 52.9999 52.5 52.9999C51.1739 52.9999 49.9021 52.4731 48.9645 51.5354C48.0268 50.5977 47.5 49.326 47.5 47.9999C47.4976 47.6673 47.5311 47.3353 47.6 47.0099C47.8295 45.8796 48.4427 44.8634 49.3357 44.1335C50.2288 43.4036 51.3466 43.0049 52.5 43.0049C53.6534 43.0049 54.7712 43.4036 55.6643 44.1335C56.5573 44.8634 57.1705 45.8796 57.4 47.0099ZM54.5 47.9999C54.5 47.6043 54.3827 47.2177 54.1629 46.8888C53.9432 46.5599 53.6308 46.3035 53.2654 46.1521C52.8999 46.0008 52.4978 45.9612 52.1098 46.0383C51.7219 46.1155 51.3655 46.306 51.0858 46.5857C50.8061 46.8654 50.6156 47.2218 50.5384 47.6097C50.4613 47.9977 50.5009 48.3998 50.6522 48.7653C50.8036 49.1307 51.06 49.4431 51.3889 49.6628C51.7178 49.8826 52.1044 49.9999 52.5 49.9999C53.0299 49.9983 53.5377 49.7871 53.9125 49.4124C54.2872 49.0376 54.4984 48.5298 54.5 47.9999Z" fill="white"/>
<path d="M52.5 50C53.6046 50 54.5 49.1046 54.5 48C54.5 46.8954 53.6046 46 52.5 46C51.3954 46 50.5 46.8954 50.5 48C50.5 49.1046 51.3954 50 52.5 50Z" fill="#979FAF"/>
<path d="M20.5 36H22.5C23.0299 35.9984 23.5377 35.7872 23.9125 35.4125C24.2872 35.0377 24.4984 34.5299 24.5 34V33C24.4984 32.4701 24.2872 31.9623 23.9125 31.5875C23.5377 31.2128 23.0299 31.0016 22.5 31H20.5V36ZM7.5 31V19H43.5V47H23.5L23.4 47.01C23.1705 45.8797 22.5573 44.8635 21.6643 44.1336C20.7712 43.4037 19.6534 43.005 18.5 43.005C17.3466 43.005 16.2288 43.4037 15.3357 44.1336C14.4427 44.8635 13.8295 45.8797 13.6 47.01L13.5 47H7.5V31Z" fill="white"/>
<path d="M24.5 33V34C24.4984 34.5299 24.2872 35.0377 23.9125 35.4125C23.5377 35.7872 23.0299 35.9984 22.5 36H20.5V31H22.5C23.0299 31.0016 23.5377 31.2128 23.9125 31.5875C24.2872 31.9623 24.4984 32.4701 24.5 33Z" fill="white"/>
<path d="M23.4 47.0099C23.4689 47.3353 23.5024 47.6673 23.5 47.9999C23.5 49.326 22.9732 50.5977 22.0355 51.5354C21.0979 52.4731 19.8261 52.9999 18.5 52.9999C17.1739 52.9999 15.9021 52.4731 14.9645 51.5354C14.0268 50.5977 13.5 49.326 13.5 47.9999C13.4976 47.6673 13.5311 47.3353 13.6 47.0099C13.8295 45.8796 14.4427 44.8634 15.3357 44.1335C16.2288 43.4036 17.3466 43.0049 18.5 43.0049C19.6534 43.0049 20.7712 43.4036 21.6643 44.1335C22.5573 44.8634 23.1705 45.8796 23.4 47.0099ZM20.5 47.9999C20.5 47.6043 20.3827 47.2177 20.1629 46.8888C19.9432 46.5599 19.6308 46.3035 19.2654 46.1521C18.8999 46.0008 18.4978 45.9612 18.1098 46.0383C17.7219 46.1155 17.3655 46.306 17.0858 46.5857C16.8061 46.8654 16.6156 47.2218 16.5384 47.6097C16.4613 47.9977 16.5009 48.3998 16.6522 48.7653C16.8036 49.1307 17.06 49.4431 17.3889 49.6628C17.7178 49.8826 18.1044 49.9999 18.5 49.9999C19.0299 49.9983 19.5377 49.7871 19.9125 49.4124C20.2872 49.0376 20.4984 48.5298 20.5 47.9999Z" fill="white"/>
<path d="M18.5 50C19.6046 50 20.5 49.1046 20.5 48C20.5 46.8954 19.6046 46 18.5 46C17.3954 46 16.5 46.8954 16.5 48C16.5 49.1046 17.3954 50 18.5 50Z" fill="#979FAF"/>
<path d="M13.6 47.0099C13.5311 47.3353 13.4976 47.6673 13.5 47.9999C13.5 49.326 14.0268 50.5977 14.9645 51.5354C15.9021 52.4731 17.1739 52.9999 18.5 52.9999C19.8261 52.9999 21.0979 52.4731 22.0355 51.5354C22.9732 50.5977 23.5 49.326 23.5 47.9999C23.5024 47.6673 23.4689 47.3353 23.4 47.0099C23.1705 45.8796 22.5573 44.8634 21.6643 44.1335C20.7712 43.4036 19.6534 43.0049 18.5 43.0049C17.3466 43.0049 16.2288 43.4036 15.3357 44.1335C14.4427 44.8634 13.8295 45.8796 13.6 47.0099Z" stroke="#303E58" stroke-width="1.5" stroke-linecap="round" stroke-linejoin="round"/>
<path d="M47.6 47.0099C47.5311 47.3353 47.4976 47.6673 47.5 47.9999C47.5 49.326 48.0268 50.5977 48.9645 51.5354C49.9021 52.4731 51.1739 52.9999 52.5 52.9999C53.8261 52.9999 55.0979 52.4731 56.0355 51.5354C56.9732 50.5977 57.5 49.326 57.5 47.9999C57.5024 47.6673 57.4689 47.3353 57.4 47.0099C57.1705 45.8796 56.5573 44.8634 55.6643 44.1335C54.7712 43.4036 53.6534 43.0049 52.5 43.0049C51.3466 43.0049 50.2288 43.4036 49.3357 44.1335C48.4427 44.8634 47.8295 45.8796 47.6 47.0099Z" stroke="#303E58" stroke-width="1.5" stroke-linecap="round" stroke-linejoin="round"/>
<path d="M44.5 47H43.5V23H52.32C52.6899 23.0002 53.055 23.0829 53.3889 23.242C53.7228 23.4012 54.017 23.6328 54.25 23.92L61.93 33.31C62.2971 33.7548 62.4986 34.3132 62.5 34.89V45C62.4984 45.5299 62.2872 46.0377 61.9125 46.4125C61.5377 46.7872 61.0299 46.9984 60.5 47" stroke="#303E58" stroke-width="1.5" stroke-linecap="round" stroke-linejoin="round"/>
<path d="M47.5 35H58.15L51.6 27H47.5V35Z" stroke="#303E58" stroke-width="1.5" stroke-linecap="round" stroke-linejoin="round"/>
<path d="M62.5 39H58.5V43H62.5" stroke="#303E58" stroke-width="1.5" stroke-linecap="round" stroke-linejoin="round"/>
<path d="M43.5 47H27.5" stroke="#303E58" stroke-width="1.5" stroke-linecap="round" stroke-linejoin="round"/>
<path d="M7.5 35V47H9.5" stroke="#303E58" stroke-width="1.5" stroke-linecap="round" stroke-linejoin="round"/>
<path d="M43.5 23V19H7.5V22" stroke="#303E58" stroke-width="1.5" stroke-linecap="round" stroke-linejoin="round"/>
<path d="M2.5 31H7.5H9.5" stroke="#303E58" stroke-width="1.5" stroke-linecap="round" stroke-linejoin="round"/>
<path d="M5.5 26H7.5H13.5" stroke="#303E58" stroke-width="1.5" stroke-linecap="round" stroke-linejoin="round"/>
<path d="M38.5 31H35.5V35V39H38.5" stroke="#979FAF" stroke-width="1.5" stroke-linecap="round" stroke-linejoin="round"/>
<path d="M31.5 31H28.5V35V39H31.5" stroke="#979FAF" stroke-width="1.5" stroke-linecap="round" stroke-linejoin="round"/>
<path d="M20.5 36H22.5C23.0299 35.9984 23.5377 35.7872 23.9125 35.4125C24.2872 35.0377 24.4984 34.5299 24.5 34V33C24.4984 32.4701 24.2872 31.9623 23.9125 31.5875C23.5377 31.2128 23.0299 31.0016 22.5 31H20.5V39" stroke="#979FAF" stroke-width="1.5" stroke-linecap="round" stroke-linejoin="round"/>
<path d="M16.5 31H13.5V35V39" stroke="#979FAF" stroke-width="1.5" stroke-linecap="round" stroke-linejoin="round"/>
<path d="M35.5 35H37.5" stroke="#979FAF" stroke-width="1.5" stroke-linecap="round" stroke-linejoin="round"/>
<path d="M28.5 35H30.5" stroke="#979FAF" stroke-width="1.5" stroke-linecap="round" stroke-linejoin="round"/>
<path d="M13.5 35H15.5" stroke="#979FAF" stroke-width="1.5" stroke-linecap="round" stroke-linejoin="round"/>
<path d="M22.5 36L24.5 39" stroke="#979FAF" stroke-width="1.5" stroke-linecap="round" stroke-linejoin="round"/>
</g>
</g>
<defs>
<clipPath id="clip0_222_4361">
<rect width="64" height="64" fill="white" transform="translate(0.5)"/>
</clipPath>
<clipPath id="clip1_222_4361">
<rect width="64" height="64" fill="white" transform="translate(0.5)"/>
</clipPath>
</defs>
</svg>
