<?xml version="1.0" encoding="UTF-8"?>
<svg xmlns="http://www.w3.org/2000/svg" width="3520" height="1980" xmlns:xlink="http://www.w3.org/1999/xlink" viewBox="0 0 3520 1980">
  <defs>
    <clipPath id="clippath">
      <rect y="0" width="3520" height="1980" style="fill: none;"/>
    </clipPath>
  </defs>
  <g id="Layer_2" data-name="Layer 2">
    <rect y="0" width="3520" height="1980" style="fill: #161616;"/>
  </g>
  <g id="Layer_3" data-name="Layer 3">
    <g style="clip-path: url(#clippath);">
      <path d="M521.11,1691.401c10.116-35.57,14.525-72.704,12.859-109.651-1.679-37.241-9.26-73.869-19.764-109.56-5.305-18.026-11.345-35.805-17.62-53.504V-851.664c53.216-.003,106.432-.016,159.648-.016,59.044,0,118.089-.018,177.133-.018s118.247-.012,177.371-.012,118.088-.012,177.133-.012c58.387,0,116.775.031,175.163-.008,58.916-.04,117.833-.003,176.749-.003h176.721c59.084,0,118.168-.023,177.252.005,58.737.027,117.475.007,176.213.007,29.114,0,58.432-.984,87.519.273,7.276.315,14.367.612,19.941,5.566,5.854,5.202,5.249,11.677,1.247,18.173-6.56,10.647-16.27,19.38-25.028,28.199-39.895,40.176-80.139,80.155-115.538,124.45-33.883,42.397-63.641,89.138-79.274,141.506-16.195,54.256-13.532,110.727,1.142,164.979,14.13,52.241,37.09,101.772,57.525,151.735,20.364,49.791,42.532,98.697,65.194,147.477,22.859,49.204,45.358,98.616,65.36,149.063,20.56,51.853,38.355,104.715,52.523,158.678,13.91,52.98,24.123,106.861,32.575,160.959,8.673,55.508,12.836,113.416,28.797,167.442,15.078,51.036,40.879,98.176,63.536,146.079,23.314,49.291,44.918,100.5,52.787,154.835,7.999,55.227.745,110.323-19.408,162.249-20.057,51.678-50.324,98.715-82.238,143.763-31.522,44.493-63.929,88.27-94.755,133.262-31.174,45.5-62.702,90.881-91.045,138.226-28.345,47.348-53.43,96.932-70.909,149.378-17.882,53.655-27.32,109.429-29.513,165.902-2.237,57.602,2.638,115.089,3.59,172.658.475,28.745-.338,57.64-4.249,86.15-3.867,28.193-8.76,56.177-10.87,84.587-4.392,59.155.613,118.492,11.116,176.756,6.107,33.875,13.986,67.352,22.789,100.622,9.256,34.982,19.56,69.668,29.682,104.405,9.933,34.091,19.823,68.207,28.355,102.681,8.786,35.503,16.113,71.454,20.109,107.835,4.006,36.47,4.712,73.643-.932,109.98-2.528,16.278-4.449,39.225-18.789,49.935-14.422,10.771-38.626,6.973-55.519,7.007-37.857.076-75.714.137-113.57.271-37.193.132-74.385.34-111.579.43-38.028.093-76.056.188-114.084.282-38.311.095-76.623.19-114.934.285-37.575.093-75.151.185-112.726.278-38.225.095-76.449.186-114.674.284-38.225.097-76.449.19-114.674.285-37.573.093-75.147.187-112.72.279-38.311.094-76.622.19-114.934.284-38.03.094-76.06.189-114.089.283-37.684.093-75.367.187-113.051.28-38.616.096-77.231.191-115.847.286-37.684.093-75.367.185-113.051.28-13.058.033-26.115.065-39.173.097v-1110.307c9.784-21.115,18.149-42.868,24.525-65.287Z" style="fill: #fff;"/>
      <path d="M645.864-851.508c69.297-.019,138.595-.074,207.892-.129,69.297-.055,138.594-.088,207.891-.125,68.815-.036,137.631-.062,206.447-.117,69.297-.055,138.594-.057,207.891-.113,69.299-.056,138.598-.066,207.897-.113,33.147-.022,178.913-.078,218.649-.109,39.953-.032,79.905-.028,119.858-.06,40.082-.032,80.166-.102,120.248-.048,9.714.013,20.82-1.008,30.175,2.03,10.679,3.469,13.505,13.754,7.81,23.234-9.602,15.984-26.649,29.343-39.763,42.405-27.909,27.799-55.747,55.729-82.161,84.966-24.331,26.931-47.641,54.988-67.936,85.117-20.865,30.974-38.806,64.067-50.523,99.626-12.139,36.842-17.081,75.562-14.784,114.283,2.24,37.76,11.003,74.784,21.877,110.901,10.406,34.565,21.969,68.883,34.36,102.785,3.046,8.335,6.205,16.625,9.521,24.856,22.421,55.649,48.486,109.677,74.401,163.759,25.971,54.2,51.485,108.632,74.293,164.253,22.635,55.201,42.278,111.741,57.797,169.362,16.49,61.228,27.591,123.28,38.409,185.695,5.183,29.906,12.431,58.845,23.317,87.219,10.503,27.377,22.849,53.964,35.018,80.626,24.534,53.756,48.995,108.269,60.051,166.679,12.172,64.309,4.98,129.316-18.654,190.189-21.781,56.103-54.158,107.164-87.376,157.063-33.454,50.255-65.706,101.336-99.749,151.192-34.424,50.413-69.421,100.503-100.471,153.104-7.562,12.81-14.782,25.805-21.826,38.916-.004.008-3.531,6.704-3.534,6.71-3.886,7.582-7.766,15.152-11.445,22.84-20.482,42.798-37.075,87.186-48.304,133.317-11.974,49.197-17.344,99.582-19.805,150.074-2.555,52.432-2.092,105.178-8.283,157.37-6.259,52.767-11.25,104.319-6.661,157.5,4.309,49.937,14.43,99.18,27.77,147.448,1.739,6.292,3.479,12.584,5.339,18.851,12.034,40.559,25.632,80.575,39.63,120.483,4.136,11.791,8.253,23.588,12.37,35.395,16.429,47.112,32.622,94.436,44.534,142.919,12.856,52.322,21.653,107.367,15.721,161.302-2.627,23.888-5.226,56.008-33.488,61.725-13.418,2.714-27.997,1.358-41.624,1.382-13.876.024-27.752.052-41.628.09-53.922.148-107.844.401-161.766.522-54.975.123-109.95.246-164.924.369-54.931.123-109.863.246-164.794.369-54.802.122-109.603.247-164.405.369-54.585.122-109.17.246-163.756.368-54.762.123-109.524.245-164.286.369-55.108.125-110.216.249-165.325.373-54.976.124-109.952.248-164.928.371-48.749.109-97.497.22-146.246.33V-851.421c49.76-.035,99.519-.074,149.279-.087Z"/>
      <path d="M558.032-851.212c41.169-.048,82.337-.101,123.505-.134,40.71-.032,81.421-.095,122.131-.127,41.621-.033,83.242-.074,124.863-.129,40.887-.053,81.774-.065,122.661-.125,41.1-.061,82.2-.093,123.3-.126,41.342-.033,82.683-.09,124.025-.123,40.822-.033,81.644-.089,122.466-.121,41.446-.033,82.892-.09,124.339-.123,40.973-.033,81.945-.083,122.918-.116,40.973-.033,81.945-.065,122.918-.116,41.446-.052,82.893-.09,124.339-.123,40.822-.033,81.644-.075,122.466-.116,20.809-.021,41.617-.039,62.426-.056,20.168-.016,41.584-2.026,61.599.704,5.076.692,10.621,1.438,13.925,5.549,3.564,4.434,4.618,8.897,2.67,14.257-3.212,8.836-10.855,16.189-17.176,22.95-13.666,14.62-27.984,28.636-42.035,42.884-26.908,27.283-53.675,54.705-79.182,83.313-25.389,28.476-49.649,58.143-70.779,89.949-21.056,31.696-39.046,65.465-51.354,101.541-12.641,37.053-18.587,75.962-17.979,115.096.617,39.712,7.827,78.987,16.986,117.524,8.987,37.814,19.406,75.241,32.942,111.699,12.991,34.992,28.158,69.162,44.09,102.903,16.662,35.285,34.281,70.109,51.758,104.994,17.213,34.359,34.436,68.72,50.856,103.468,16.198,34.278,31.616,68.95,45.726,104.142,13.767,34.337,26.28,69.197,36.967,104.619,11.06,36.658,20.276,73.844,27.334,111.481,7.239,38.601,12.124,77.275,24.719,114.652,12.158,36.079,27.838,70.835,42.906,105.759,15.182,35.189,29.692,70.668,40.738,107.405,11.39,37.882,18.311,77.34,18.301,116.965-.01,38.642-6.825,76.969-18.595,113.715-11.57,36.121-27.805,70.55-45.776,103.883-18.813,34.894-39.717,68.635-60.181,102.571-20.326,33.707-39.934,67.757-61.871,100.468-21.008,31.325-42.899,62.042-64.56,92.915-22.002,31.36-43.603,63.01-63.908,95.502-19.986,31.981-38.539,64.905-54.687,98.999-16.285,34.384-29.932,69.94-40.493,106.495-10.677,36.956-17.817,74.793-22.731,112.922-5.102,39.585-7.445,79.443-10.52,119.217-3.076,39.791-8.844,79.466-9.414,119.414-.578,40.531,3.433,80.961,10.817,120.792,7.127,38.444,17.449,76.229,29.405,113.432,11.56,35.97,24.701,71.444,38.416,106.642,13.682,35.116,27.655,70.127,40.908,105.408,13.352,35.546,25.988,71.433,35.966,108.09,10.004,36.752,17.65,74.504,19.416,112.634.92,19.86.27,39.772-3.06,59.403-1.701,10.03-3.698,20.322-9.882,28.624-6.175,8.29-15.371,11.485-25.443,12.511-20.266,2.064-41.274.739-61.641.833-20.289.094-40.579.109-60.869.149-41.342.081-82.683.161-124.025.244-40.822.082-81.644.16-122.466.242-41.444.083-82.888.164-124.333.245-40.974.081-81.947.161-122.921.243-40.974.082-81.947.163-122.921.245-41.446.083-82.893.164-124.339.247-40.822.082-81.644.162-122.466.243-41.341.083-82.683.166-124.025.249-41.1.082-82.2.165-123.3.247-40.885.082-81.77.165-122.655.245-41.623.082-83.246.166-124.869.251-13.263.027-26.526.053-39.79.08V-851.148c20.482-.021,40.965-.04,61.447-.064Z" style="fill: #fff;"/>
      <path d="M584.224-850.981c50.245-.078,100.49-.131,150.735-.211,49.989-.08,99.978-.15,149.967-.21,49.812-.06,99.624-.124,149.437-.203,50.159-.08,100.317-.125,150.476-.205,50.508-.081,101.017-.148,151.526-.202,49.92-.053,99.841-.123,149.762-.202,49.704-.079,99.408-.117,149.112-.197,50.335-.081,100.671-.119,151.006-.2,50.508-.081,101.017-.133,151.526-.201,49.852-.066,99.704-.13,149.556-.191,12.513-.016,25.026-.052,37.539-.042,11.037.009,25.622-1.68,35.771,3.472,24.058,12.214-14.728,45.87-24.127,55.778-33.084,34.874-66.83,69.136-98.912,104.948-31.173,34.797-61.173,70.832-87.01,109.822-25.82,38.966-47.714,81.001-60.91,125.99-13.717,46.766-17.814,95.164-14.339,143.697,3.39,47.331,11.683,95.277,24.731,140.91,12.674,44.322,29.882,87.157,49.069,129.028,19.4,42.335,40.647,83.756,62.115,125.069,21.285,40.963,42.693,81.87,63.125,123.267,20.535,41.607,40.08,83.788,56.873,127.061,16.63,42.856,30.887,86.608,40.924,131.501,10.53,47.099,14.566,95.027,29.825,141.053,14.816,44.69,34.205,87.7,51.56,131.425,17.037,42.923,32.144,87.061,40.014,132.678,8.466,49.073,8.393,99.263-1.708,148.102-9.594,46.389-26.692,90.621-47.035,133.281-20.508,43.005-43.692,84.71-66.2,126.687-22.121,41.256-47.355,80.385-74.392,118.577-27.681,39.101-56.345,77.497-83.836,116.735-27.022,38.569-52.787,78.009-75.756,119.142-22.343,40.012-41.553,81.999-56.137,125.466-15.27,45.513-25.384,92.372-31.732,139.926-6.427,48.148-10.251,96.904-13.266,145.379-3.116,50.098-.09,99.863,8.631,149.282,8.234,46.664,21.616,92.277,36.988,137.039,15.143,44.1,32.884,87.277,50.712,130.342,17.447,42.144,35.269,84.143,51.148,126.914,15.812,42.59,29.806,86.173,37.922,130.947,4.341,23.949,7.476,48.486,6.86,72.867-.502,19.883-.297,56.275-22.145,65.741-11.511,4.988-24.024,4.527-36.317,4.569-12.553.043-25.106.046-37.659.066-24.885.041-49.771.082-74.656.124-49.812.084-99.624.167-149.437.251-50.159.084-100.317.168-150.476.252-50.509.084-101.017.166-151.526.255-49.921.088-99.841.169-149.762.255-49.704.085-99.408.168-149.112.254-50.335.086-100.671.17-151.006.259-50.267.088-100.534.171-150.801.258-50.094.087-100.188.173-150.281.258-49.773.085-99.545.171-149.318.259-5.565.01-11.13.019-16.694.029V-850.858c29.213-.038,58.425-.077,87.638-.123Z"/>
      <path d="M503.342-850.555c48.973-.078,97.945-.168,146.918-.246,49.015-.078,98.03-.163,147.045-.241,49.145-.078,98.29-.163,147.435-.242,49.362-.079,98.723-.144,148.084-.243,49.361-.098,98.723-.158,148.084-.236,49.322-.079,98.643-.157,147.965-.236,49.08-.078,98.16-.157,147.24-.235,48.993-.078,97.987-.156,146.98-.235,48.993-.078,97.987-.157,146.98-.235,49.08-.079,98.16-.151,147.24-.229,24.571-.039,49.143-.081,73.714-.112,24.536-.031,49.566-1.488,74.045.313,5.284.389,13.891.699,18.433,3.762,4.854,3.273,6.528,10.729,5.126,15.829-3.055,11.111-12.369,20.506-19.779,29.079-15.632,18.086-31.972,35.597-48.074,53.263-31.312,34.352-62.415,68.953-91.678,105.083-30.368,37.495-58.457,76.71-81.926,118.909-21.249,38.207-37.883,79.182-47.665,121.856-10.995,47.968-13.003,97.108-9.58,146.086,3.392,48.542,11.842,96.242,26.452,142.689,13.857,44.052,31.901,86.64,51.489,128.418,19.427,41.434,40.787,81.892,62.05,122.401,21.829,41.587,43.764,83.13,64.424,125.315,20.332,41.517,39.427,83.775,54.957,127.347,15.794,44.312,27.345,89.376,34.29,135.914,3.568,23.905,7.178,47.497,13.554,70.856,6.143,22.507,13.883,44.613,22.202,66.399,16.258,42.574,34.078,84.596,48.728,127.77,15.211,44.829,27.043,90.855,30.988,138.149,4.048,48.53-.418,97.624-12.517,144.782-11.72,45.682-29.237,89.267-48.465,132.241-19.149,42.798-38.678,86.071-62.183,126.675-23.818,41.146-51.771,79.781-79.884,118.059-27.998,38.12-56.42,75.928-83.424,114.767-26.755,38.48-52.027,78.071-74.017,119.487-22.429,42.245-41.212,86.652-54.564,132.611-13.405,46.141-21.384,93.342-26.1,141.115-4.796,48.582-8.044,97.914-5.503,146.717,2.486,47.753,10.522,95.035,22.449,141.307,11.753,45.6,27.036,90.151,43.964,134.068,17.304,44.893,36.425,89.041,54.977,133.424,18.327,43.844,36.552,87.806,51.411,132.974,14.878,45.226,27.666,92.683,29.847,140.473.945,20.711,2.228,50.681-11.897,67.556-7.828,9.352-21.318,10.778-32.755,11.003-12.365.244-24.742.131-37.109.147-49.015.065-98.03.132-147.045.198-48.972.066-97.943.131-146.915.198-49.015.067-98.03.133-147.045.2-49.145.067-98.289.134-147.435.202-49.361.069-98.723.136-148.084.203-49.361.067-98.723.137-148.084.206-49.145.069-98.29.135-147.435.206-49.015.071-98.03.135-147.045.206-48.972.07-97.943.138-146.915.209-36.901.053-73.801.105-110.702.157V-850.544c2.252-.003,4.505-.008,6.757-.011Z" style="fill: #fff;"/>
      <path d="M498.425-850.215c36.771-.059,73.542-.141,110.312-.2,36.641-.059,73.282-.141,109.923-.199,36.598-.059,73.195-.141,109.793-.199,36.641-.059,73.282-.141,109.923-.199,36.769-.059,73.537-.128,110.306-.2,36.987-.072,73.974-.121,110.962-.195,36.987-.074,73.974-.142,110.962-.201,36.771-.059,73.542-.125,110.312-.194,36.639-.068,73.278-.114,109.917-.197,36.597-.083,73.195-.137,109.793-.195,36.641-.059,73.282-.135,109.923-.193,36.771-.059,73.542-.135,110.312-.194,36.985-.059,73.971-.136,110.956-.195,36.987-.059,73.974-.136,110.962-.195,18.131-.029,36.486-.839,54.58.445,8.246.585,19.77,1.629,24.448,9.75,4.522,7.85-2.069,17.904-6.423,24.213-18.14,26.284-40.346,50.274-60.953,74.628-22.363,26.432-44.591,53.004-66.075,80.159-20.872,26.382-41.141,53.299-59.82,81.287-18.981,28.442-36.439,57.877-51.425,88.628-14.272,29.284-26.102,59.821-34.775,91.232-9.308,33.712-14.877,68.261-17.24,103.143-2.476,36.545-1.718,73.488,2.166,109.907,3.679,34.495,11.128,68.568,21.015,101.797,9.885,33.222,22.013,65.766,35.594,97.648,13.003,30.525,27.099,60.599,41.772,90.353,14.688,29.785,29.942,59.285,45.16,88.802,15.539,30.139,30.933,60.363,45.588,90.943,14.686,30.645,28.687,61.649,40.998,93.332,12.149,31.263,22.656,63.19,30.221,95.886,8.036,34.728,10.163,70.324,17.343,105.166,6.845,33.22,17.694,65.439,29.397,97.219,11.66,31.663,24.219,62.987,35.854,94.661,12.033,32.757,23.041,65.986,31.184,99.944,8.291,34.577,13.765,69.922,14.851,105.495,1.073,35.184-1.774,70.343-8.29,104.931-6.345,33.682-15.972,66.499-27.082,98.889-11.178,32.586-24.245,64.568-37.578,96.321-13.154,31.327-28.159,61.404-45.975,90.355-18.273,29.695-38.28,58.298-58.777,86.492-19.21,26.423-38.687,52.65-57.958,79.038-34.26,46.913-67.482,94.759-96.337,145.21-29.26,51.158-53.835,105.617-69.369,162.574-15.886,58.247-22.968,117.863-25.124,178.109-2.194,61.31,1.471,122.464,13.477,182.706,11.702,58.718,29.161,115.894,49.69,172.091,20.515,56.155,44.195,111.057,66.646,166.445,22.158,54.665,43.897,109.666,59.05,166.761,7.489,28.219,13.913,57.362,15.783,86.561.978,15.274.98,31.437-2.395,46.435-3.674,16.325-12.872,26.002-29.744,28.523-14.565,2.177-30.181.778-44.878.793-15.123.015-30.246.03-45.369.045-31.547.031-63.094.062-94.641.093-62.226.061-124.452.123-186.678.185-62.01.061-124.019.127-186.029.189-62.012.062-124.023.124-186.035.188-62.226.065-124.452.13-186.678.195-62.356.065-124.712.131-187.068.195-62.399.065-124.799.131-187.198.2-53.7.06-107.399.115-161.099.172V-850.212c.613-.001,1.226-.003,1.839-.004Z"/>
      <path d="M579.57-850.018c39.845-.084,79.689-.147,119.533-.227,39.805-.081,79.609-.149,119.414-.226,39.953-.078,79.906-.153,119.858-.227,40.344-.075,80.688-.132,121.032-.226,40.104-.093,80.208-.153,120.313-.225,40.194-.072,80.389-.164,120.583-.228,39.736-.064,79.473-.147,119.209-.226,39.913-.08,79.826-.157,119.739-.221,40.015-.064,80.031-.135,120.047-.223,40.368-.089,80.735-.163,121.103-.227,40.082-.064,80.165-.158,120.248-.222,40.021-.064,80.042-.158,120.064-.222,9.897-.016,19.801-.119,29.698.028,9.184.137,20.127-.179,28.744,3.43,22.76,9.534,2.068,34.382-6.631,46.565-20.874,29.234-43.036,57.571-64.676,86.239-21.699,28.747-43.207,57.679-63.61,87.366-20.37,29.639-39.778,59.938-57.291,91.362-18.083,32.446-34.084,66.058-47.036,100.889-13.25,35.631-23.114,72.507-29.376,110.002-6.29,37.663-9.247,76.028-9.167,114.207.082,39.411,4.518,78.565,12.632,117.118,7.528,35.768,18.116,70.869,30.506,105.238,12.815,35.549,27.604,70.306,43.094,104.76,14.868,33.071,30.716,65.695,46.459,98.356,16.035,33.268,31.977,66.61,46.881,100.402,14.757,33.458,28.555,67.424,39.717,102.266,11.333,35.376,19.336,71.341,23.832,108.219,4.531,37.163,10.449,72.842,21.464,108.698,12.362,40.24,28.037,79.309,42.845,118.688,14.734,39.183,28.93,78.622,39.689,119.112,11.023,41.483,18.297,83.93,20.17,126.849,1.942,44.489-2.465,89.131-11.428,132.705-8.784,42.702-21.855,84.404-36.268,125.505-1.822,5.195-3.661,10.384-5.554,15.56-14.198,38.82-32.098,75.445-53.726,110.67-21.212,34.546-44.594,67.7-68.108,100.701-23.691,33.249-47.648,66.317-70.538,100.127-22.542,33.296-44.168,67.278-63.417,102.599-19.526,35.83-36.709,72.906-50.176,111.451-14.005,40.086-23.573,81.467-29.18,123.541-5.71,42.847-6.999,86.395-5.923,129.574,1.062,42.614,5.026,85.056,11.88,127.128,6.56,40.26,15.916,80.015,26.987,119.259,11.223,39.783,24.56,78.925,38.655,117.772,13.625,37.552,28.371,74.694,42.856,111.919,14.734,37.868,29.41,75.772,42.51,114.244,13.163,38.659,24.827,77.992,32.346,118.172,3.957,21.147,6.597,42.654,4.981,64.198-.75,10.002-2.287,20.562-8.114,28.992-5.689,8.23-16.315,11.609-25.889,12.397-21.754,1.792-44.11.419-65.928.433-22.033.014-44.066.027-66.099.04-43.779.025-87.558.053-131.337.079-43.953.025-87.907.054-131.861.082-44.412.029-88.823.057-133.235.084-44.235.026-88.47.055-132.705.084-43.888.028-87.777.059-131.666.086-43.78.028-87.561.059-131.341.087-43.954.028-87.907.059-131.861.088-44.412.03-88.823.06-133.235.092-44.235.032-88.47.061-132.705.092-40.663.028-81.326.056-121.99.085V-849.86c27.662-.051,55.323-.1,82.984-.158Z" style="fill: #fff;"/>
      <path d="M550.813-849.593c38.625-.077,77.25-.154,115.875-.221,38.233-.066,76.467-.158,114.7-.219,38.971-.062,77.943-.15,116.914-.222,38.347-.072,76.695-.158,115.042-.219,38.798-.062,77.596-.143,116.395-.221,38.694-.078,77.387-.131,116.081-.219,38.233-.087,76.467-.137,114.701-.215,38.971-.08,77.943-.149,116.914-.222,38.105-.071,76.211-.147,114.317-.218,39.04-.073,78.08-.14,117.12-.217,38.43-.075,76.861-.157,115.291-.22,38.428-.063,76.857-.136,115.285-.214,19.595-.04,39.19-.119,58.785-.1,15.997.016,41.291-3.252,50.595,13.242,7.101,12.589-11.872,34.993-18.563,45.464-8.447,13.22-17.039,26.349-25.675,39.446-17.745,26.91-35.559,53.777-52.977,80.902-9.225,14.366-18.306,28.819-27.231,43.386-32.49,53.029-62.235,107.928-85.582,165.631-24.583,60.759-41.331,124.287-49.866,189.275-8.848,67.372-9.394,134.803,1.736,201.945,10.367,62.543,29.39,123.387,51.918,182.534,22.409,58.836,48.334,116.207,72.697,174.238,3.057,7.283,6.117,14.565,9.123,21.876,5.07,12.33,10.078,24.674,14.849,37.122,22.138,57.767,40.131,116.337,47.099,178.006,3.523,31.183,6.852,61.725,14.746,92.199,7.617,29.404,17.574,58.163,28.096,86.636,11.861,32.094,24.526,63.885,36.307,96.022,15.126,41.262,29.04,83.03,38.813,125.908,9.908,43.469,15.624,87.929,15.539,132.553-.085,44.5-5.681,88.743-15.128,132.191-8.711,40.06-19.622,80.393-34.381,118.674-14.705,38.141-34.622,73.955-56.066,108.666-2.72,4.404-5.447,8.803-8.228,13.174-22.005,34.579-45.195,68.358-67.965,102.427-22.73,34.01-45.231,68.195-65.973,103.466-21.695,36.892-41.632,74.928-57.921,114.536-16.585,40.326-29.485,82.163-37.448,125.06-8.542,46.014-11.539,92.842-10.84,139.599.686,45.927,4.085,91.743,9.74,137.315,5.775,46.537,14.618,92.738,25.764,138.28,10.587,43.259,23.195,86.012,37.12,128.31,13.697,41.604,28.493,82.828,43.267,124.058,14.79,41.278,29.628,82.557,42.705,124.418,12.992,41.586,26.412,84.962,30.675,128.486,1.863,19.026,5.278,50.364-11.6,64.142-9.085,7.417-22.642,7.146-33.621,7.247-12.019.111-24.042.026-36.062.029-47.377.01-94.754.019-142.131.027-47.229.007-94.459.019-141.688.031-47.446.012-94.892.021-142.337.033-47.507.011-95.014.022-142.521.033-48.034.012-96.067.024-144.101.037-47.377.013-94.754.024-142.132.037-47.229.014-94.458.026-141.688.039-47.446.013-94.892.028-142.337.038-47.507.01-95.014.025-142.521.04-31.951.01-63.902.022-95.852.033V-849.491c18.076-.032,36.152-.066,54.228-.102Z"/>
      <path d="M588.877-849.286c41.446-.066,82.892-.162,124.339-.228,40.645-.065,81.291-.159,121.936-.224,41.205-.066,82.409-.146,123.614-.227,40.709-.08,81.418-.16,122.127-.225,41.099-.066,82.199-.145,123.298-.227,41.1-.082,82.2-.137,123.3-.23,40.71-.092,81.42-.148,122.131-.227,41.446-.081,82.892-.162,124.339-.228,40.581-.065,81.161-.148,121.741-.224,41.446-.077,82.892-.144,124.339-.228,40.708-.083,81.417-.18,122.125-.223,17.415-.018,43.116-3.959,57.725,7.545,16.017,12.614-2.857,37.732-10.025,51.144-17.533,32.807-35.867,65.184-53.705,97.825-17.654,32.304-34.912,64.818-51.248,97.81-16.751,33.83-32.318,68.283-46.221,103.384-13.974,35.283-26.144,71.239-36.317,107.802-10.65,38.279-18.871,77.238-25.076,116.477-6.294,39.804-10.982,79.93-12.027,120.242-1.04,40.131,1.378,80.368,6.929,120.123,5.245,37.566,13.184,74.699,22.978,111.332,9.731,36.396,21.352,72.253,33.692,107.839,12.372,35.676,25.645,71.031,38.426,106.561,12.574,34.954,24.595,70.087,35.446,105.617,5.575,18.255,10.732,36.697,15.468,55.186,4.723,18.438,7.617,37.243,12.201,55.664,4.59,18.443,7.136,37.422,12.109,55.78,4.936,18.223,12.398,36.137,18.81,53.88,6.531,18.075,13.089,36.168,21.049,53.676,7.742,17.028,15.438,35.562,17.872,54.203,2.535,19.419.355,39.001,3.769,58.362,3.129,17.747,10.384,34.691,16.396,51.601,12.006,33.775,23.058,67.822,31.509,102.682,2.486,10.254,4.789,20.545,6.799,30.914,6.634,34.238,10.673,68.859,11.513,103.731.851,35.334-1.882,70.689-7.115,105.62-5.063,33.799-12.513,67.384-22.159,100.171-9.376,31.87-22.113,62.423-37.136,92.034-14.693,28.959-31.12,57.008-47.885,84.804-16.888,28-34.288,55.688-51.219,83.662-16.863,27.861-33.319,55.954-48.787,84.618-15.279,28.311-29.466,57.332-41.702,87.095-12.634,30.734-23.461,62.16-31.641,94.382-8.368,32.961-13.921,66.48-16.942,100.348-3.119,34.965-3.283,70.132-1.769,105.187,1.55,35.899,4.296,71.863,7.983,107.605,3.513,34.058,7.857,68.012,13.36,101.808,5.723,35.145,12.794,70.047,20.828,104.733,7.504,32.401,16.062,64.565,25.272,96.52,9.264,32.139,19.213,64.075,29.407,95.93,10.138,31.679,20.491,63.288,30.634,94.966,9.974,31.148,19.558,62.445,28.089,94.023,8.56,31.687,17.725,64.25,19.403,97.176.798,15.652,1.863,39.554-13.108,49.53-14.029,9.348-33.663,6.499-49.617,6.495-35.887-.008-71.774-.016-107.661-.024-35.887-.009-71.774-.015-107.661-.021-35.885-.006-71.77-.013-107.655-.02-35.887-.007-71.774-.014-107.661-.02-35.818-.006-71.636-.013-107.455-.019-35.691-.006-71.382-.011-107.073-.017-36.081-.006-72.162-.011-108.243-.017-35.692-.006-71.384-.011-107.076-.017-36.082-.006-72.163-.01-108.245-.014-35.69-.004-71.38-.009-107.07-.013-36.082-.003-72.163-.009-108.245-.013-35.45-.004-70.901-.009-106.351-.012-29.717-.003-59.435-.005-89.153-.008V-849.078c30.764-.08,61.528-.159,92.292-.208Z" style="fill: #fff;"/>
      <path d="M513.28-848.614c48.691-.078,97.382-.175,146.073-.325,48.459-.149,96.918-.246,145.376-.336,49.145-.092,98.29-.152,147.435-.254,49.361-.101,98.723-.181,148.084-.26,49.361-.079,98.723-.159,148.084-.254,49.145-.095,98.29-.159,147.435-.264,49.015-.104,98.03-.146,147.045-.257,48.971-.111,97.943-.177,146.915-.255,48.838-.078,97.676-.18,146.515-.258,24.57-.039,49.145-.248,73.714-.095,19.548.121,57.438-.041,48.559,29.721-6.435,21.571-17.685,42.28-26.739,62.853-8.9,20.222-17.895,40.402-26.746,60.646-18.507,42.327-36.441,84.936-52.764,128.159-16.126,42.7-30.793,85.935-43.407,129.808-12.995,45.197-23.829,91.024-32.743,137.197-9.174,47.523-17.362,95.407-22.226,143.582-4.827,47.812-6.071,95.988-3.033,143.961,3.042,48.031,10.162,95.623,20.018,142.707,9.482,45.299,20.488,91.129,35.397,134.974,7.524,22.125,19.053,41.127,33.285,59.517,14.122,18.25,30.011,34.881,45.063,52.474,29.548,34.534,50.484,73.15,70.718,113.617,19.642,39.282,40.616,77.623,64.381,114.579,12.214,18.994,26.145,37.024,37.401,56.609,12.379,21.539,13.145,42.393,2.5,64.894-9.388,19.842-22.727,37.506-36.24,54.688-13.164,16.738-29.91,34.292-37.33,54.556-4.163,11.37-7.032,22.158-6.477,34.346.541,11.887,4.079,23.959,7.063,35.45,5.801,22.338,14.901,43.801,21.002,65.989,5.957,21.668,14.387,42.819,21.553,64.105,7.395,21.969,14.04,44.096,20.011,66.476,12.197,45.721,14.79,95.513,5.347,141.911-9.34,45.896-31.952,85.831-53.84,126.657-20.894,38.972-42.392,77.816-64.015,116.372-20.993,37.433-41.136,76.085-66.835,110.65-11.47,15.428-23.541,30.789-33.373,47.225-10.453,17.475-20.552,34.067-27.965,53.148-14.721,37.889-25.721,77.446-33.264,117.372-7.829,41.439-11.547,83.65-11.749,125.811-.203,42.371,3.108,84.631,6.531,126.833,3.406,41.995,7.261,83.96,12.141,125.811,4.946,42.416,11.131,84.683,18.802,126.694,7.65,41.894,16.874,83.489,27.172,124.808,9.891,39.685,20.972,79.051,32.26,118.356,11.238,39.132,23.059,78.096,34.045,117.301,11.003,39.267,24.017,79.661,28.417,120.325,1.897,17.53,5.667,47.854-11.748,59.144-16.732,10.848-42.374,6.382-61.389,6.371-43.438-.026-86.875-.055-130.313-.079-43.117-.025-86.233-.051-129.35-.077-43.243-.026-86.486-.051-129.729-.078-43.312-.028-86.623-.051-129.934-.075-43.048-.024-86.096-.049-129.144-.074-43.438-.024-86.875-.049-130.313-.073-42.7-.024-85.399-.048-128.099-.07-43.745-.022-87.489-.047-131.233-.07-42.702-.023-85.403-.045-128.105-.068-43.744-.023-87.489-.046-131.233-.067-18.567-.009-37.133-.02-55.7-.029V-848.587c5.565-.009,11.13-.018,16.694-.027Z"/>
      <path d="M570.164-848.355c48.73-.072,97.46-.144,146.19-.222,48.766-.078,97.532-.143,146.298-.275,49.008-.133,98.016-.242,147.023-.346,48.752-.104,97.503-.131,146.255-.244,48.752-.113,97.503-.159,146.255-.237,49.145-.079,98.29-.163,147.435-.241,49.361-.079,98.723-.164,148.084-.243,49.185-.078,98.369-.163,147.554-.242,24.573-.039,49.147-.084,73.72-.124,12.132-.019,24.265-.057,36.397-.054,11.7.003,24.251-.785,35.795,1.477,11.058,2.166,23.024,9.235,22.213,21.845-.727,11.303-6.343,23.116-9.98,33.757-7.313,21.398-14.711,42.766-21.912,64.202-13.552,40.344-26.732,80.803-38.851,121.602-13.635,45.902-26.108,92.132-37.103,138.741-10.659,45.181-20.083,90.647-28.676,136.265-8.913,47.314-17.488,94.711-25.582,142.173-8.059,47.252-14.401,94.826-17.386,142.686-3.048,48.869-2.661,98.01,1.538,146.801,2.089,24.275,4.747,48.555,8.517,72.631,3.8,24.269,9.487,46.922,27.343,64.848,16.337,16.402,38.416,25.971,58.405,37.121,20.244,11.292,40.131,23.412,58.707,37.311,38.323,28.674,66.543,63.745,89.492,105.522,22.214,40.439,41.849,82.022,66.348,121.212,12.266,19.622,25.525,38.645,38.98,57.466,12.988,18.168,28.811,37.067,34.223,59.203,5.983,24.47-5.019,47.279-17.081,67.938-11.554,19.789-24.907,38.995-39.3,56.82-14.788,18.314-32.254,35.204-45.137,54.959-14.079,21.589-10.853,47.195-7.556,71.568,6.23,46.057,28.472,86.557,48.15,127.944,20.34,42.778,38.477,86.199,47.283,132.985,8.743,46.45,7.298,96.477-6.661,141.801-13.377,43.435-33.975,84.961-53.901,125.702-19.87,40.626-40.51,81.025-63.054,120.24-22.435,39.026-46.821,81.604-84.127,108.313-18.668,13.365-39.461,21.713-61.576,27.469-11.371,2.959-22.96,5.227-32.267,12.807-8.947,7.286-14.287,17.546-17.567,28.472-13.732,45.74-17.829,95.867-19.582,143.368-1.794,48.603,1.425,97.279,5.713,145.678,4.264,48.127,8.363,96.267,12.51,144.404,4.163,48.332,9.348,96.58,16.022,144.631,6.516,46.912,14.849,93.616,24.732,139.934,10.219,47.896,22.116,95.391,34.607,142.738,11.827,44.828,24.351,89.472,35.872,134.381,5.877,22.906,12.336,45.952,15.509,69.422,2.838,20.998,7.271,53.991-15.599,65.351-10.736,5.333-24.807,3.626-36.448,3.618-12.374-.008-24.748-.024-37.122-.036-24.397-.024-48.793-.048-73.19-.072-49.015-.048-98.03-.1-147.045-.145-48.73-.044-97.46-.097-146.19-.144-48.903-.047-97.807-.093-146.71-.14-49.361-.047-98.723-.094-148.084-.141-49.362-.047-98.723-.094-148.084-.139-48.903-.045-97.806-.092-146.71-.135-48.73-.044-97.46-.092-146.19-.135-49.015-.043-98.03-.075-147.045-.182-25.01-.055-50.02-.081-75.029-.121V-848.234c24.526-.041,49.053-.085,73.579-.121Z" style="fill: #fff;"/>
      <path d="M596.302-848.064c44.235-.056,88.47-.118,132.705-.188,44.058-.071,88.116-.142,132.174-.189,43.539-.047,87.077-.12,130.616-.19,43.712-.07,87.424-.166,131.135-.251,43.921-.085,87.842-.229,131.763-.299,43.539-.07,87.077-.139,130.616-.209,43.887-.07,87.774-.128,131.66-.198,44.166-.07,88.332-.135,132.498-.206,43.885-.07,87.77-.143,131.655-.204,20.755-.029,43.814-2.719,64.264,1.218,9.281,1.786,20.595,6.5,22.729,16.669,2.145,10.22-2.298,21.64-4.906,31.453-10.635,40.009-20.814,80.12-30.086,120.469-9.493,41.315-18.004,82.854-25.675,124.544-7.713,41.919-14.51,84.002-20.957,126.133-6.516,42.584-12.625,85.231-19.353,127.783-6.767,42.792-14.686,85.356-22.913,127.887-8.025,41.486-15.637,83.064-21.445,124.926-5.823,41.968-9.773,84.22-11.108,126.577-.688,21.837-1.46,44.028.192,65.833,1.691,22.313,13.072,39.92,33.353,49.689,36.182,17.428,73.437,31.865,108.871,51.006,35.556,19.207,70.667,40.251,100.329,67.971,29.949,27.988,50.2,62.962,69.048,98.935,18.495,35.302,36.796,70.707,57.964,104.512,10.05,16.05,20.635,31.743,31.397,47.322,11.398,16.5,23.814,32.934,32.074,51.308,8.667,19.282,11.696,39.609,4.789,59.964-6.9,20.335-19.175,38.54-30.658,56.518-11.213,17.557-23.126,34.248-35.992,50.63-6.583,8.382-13.347,16.43-20.737,24.111-6.528,6.785-13.242,13.332-18.135,21.451-5.326,8.837-9.206,18.695-9.759,29.093-.594,11.175,3.911,20.97,6.77,31.496,5.675,20.9,2.018,43.061,7.318,64.259,9.962,39.838,30.952,76.293,48.827,112.932,18.16,37.224,34.162,76.106,41.442,117.06,7.552,42.482,9.341,86.454,2.609,129.144-6.413,40.667-20.378,79.709-35.214,117.96-14.581,37.594-30.588,74.458-48.182,110.739-17.465,36.016-34.675,73.192-57.276,106.335-21.265,31.184-49.903,56.738-86.202,68.767-20.74,6.873-42.41,9.099-64.147,9.903-10.581.391-21.17.336-31.754.07-10.031-.253-22.158-1.684-31.6,2.575-20.649,9.315-20.187,37.056-21.814,56.225-1.773,20.884-2.533,41.847-2.631,62.801-.204,43.568,3.181,87.001,7.292,130.345,4.07,42.914,8.759,85.749,12.1,128.733,3.376,43.438,6.379,86.901,10.099,130.313,3.626,42.324,8.399,84.544,14.178,126.627,5.791,42.168,13.249,84.101,21.704,125.811,8.244,40.67,17.76,81.083,27.823,121.339,10.17,40.683,20.933,81.215,31.117,121.895,5.083,20.303,10.797,40.663,13.918,61.384,2.822,18.735,7.196,46.253-5.928,62.005-7.495,8.996-18.645,10.136-29.654,10.415-10.689.271-21.408.046-32.1.032-21.857-.028-43.714-.058-65.571-.087-44.235-.058-88.47-.117-132.705-.175-44.058-.058-88.116-.119-132.174-.175-43.537-.056-87.075-.113-130.612-.169-43.711-.056-87.422-.115-131.133-.171-44.275-.057-88.549-.117-132.824-.172-43.712-.054-87.424-.111-131.136-.167-43.78-.056-87.561-.111-131.341-.167-43.885-.056-87.77-.112-131.655-.167-43.865-.054-87.728-.153-131.592-.312-28.591-.104-57.183-.125-85.774-.141V-847.918c33.239-.046,66.478-.104,99.716-.146Z"/>
      <path d="M639.496-847.855c50.61-.058,101.221-.169,151.831-.216,51.001-.047,102.001-.15,153.001-.211,50.999-.061,101.999-.133,152.998-.215,50.61-.081,101.219-.132,151.829-.213,50.862-.081,101.724-.244,152.586-.366,50.61-.121,101.219-.17,151.829-.251,51.346-.082,102.691-.146,154.037-.228,25.238-.04,50.479-.202,75.717-.091,12.277.054,24.738-.375,35.964,5.357,11.389,5.816,11.764,17.424,9.809,28.67-8.223,47.303-18.745,94.082-26.005,141.594-7.494,49.041-13.303,98.328-18.374,147.673-4.943,48.111-9.151,96.294-14.057,144.409-4.985,48.891-10.885,97.675-19.455,146.078-7.886,44.544-18.414,88.563-28.142,132.725-10.143,46.045-19.738,92.174-26.937,138.784-3.682,23.841-7.801,48.298-8.49,72.44-.359,12.578,2.343,24.567,11.687,33.492,8.89,8.492,20.619,12.236,32.028,16.162,44.388,15.275,87.415,33.821,129.003,55.618,40.628,21.294,81.44,44.298,115.821,74.992,35.119,31.353,57.989,71.364,80.177,112.278,21.73,40.071,43.614,80.056,67.912,118.646,23.11,36.704,59.38,78.69,55.316,124.977-2.13,24.266-15.81,45.265-29.517,64.672-13.394,18.964-28.369,36.351-42.91,54.391-7.451,9.244-13.338,19.569-21.315,28.395-8.376,9.267-16.286,17.358-21.372,28.986-4.7,10.748-8.724,22.191-11.807,33.512-3.565,13.087-1.777,23.079,4.056,35.089,10.892,22.426,5.846,47.879,12.461,71.682,6.31,22.704,16.802,44.032,27.801,64.778,21.641,40.816,44.897,81.167,57.468,125.96,13.036,46.45,19.826,97.685,18.194,145.912-.809,23.909-4.176,47.548-10.787,70.557-6.467,22.507-15.613,44.113-22.859,66.363-14.767,45.345-25.357,91.856-40.853,137.007-14.806,43.14-29.501,90.28-60.304,125.038-32.441,36.606-82.433,50.207-129.762,52.026-25.798.991-51.62-1.288-77.275-3.75-11.759-1.129-23.517-2.49-35.3-3.329-11.579-.824-25.969-.025-32.467,11.369-6.159,10.798-5.686,24.193-5.66,36.208.026,11.891.345,23.793.882,35.672,1.153,25.522,3.178,50.992,5.811,76.402,5.064,48.864,12.264,97.479,17.047,146.378,4.878,49.859,7.599,99.922,10.846,149.906,3.221,49.586,7.188,99.116,12.763,148.496,5.504,48.754,12.946,97.258,22.06,145.465,9.223,48.781,20.367,97.159,32.184,145.37,12.034,49.093,27.17,98.035,36.33,147.759,2.248,12.204,3.931,24.694,3.999,37.123.059,10.887-.69,25.933-8.475,34.531-8.507,9.396-22.639,9.366-34.187,9.458-12.791.103-25.586-.023-38.378-.044-51.174-.083-102.349-.17-153.523-.254-50.804-.083-101.609-.17-152.413-.251s-101.609-.166-152.413-.249c-51.172-.084-102.345-.169-153.517-.251-50.545-.081-101.089-.163-151.634-.244-51.346-.082-102.691-.164-154.037-.247-50.545-.082-101.089-.165-151.634-.243-51.172-.079-102.345-.14-153.517-.25-32.994-.071-65.987-.176-98.98-.267V-847.653c47.637-.057,95.274-.148,142.91-.202Z" style="fill: #fff;"/>
      <path d="M543.389-847.547c68.323-.109,136.646-.189,204.969-.298,67.935-.108,135.871-.218,203.806-.296,69.023-.078,138.046-.185,207.069-.296,67.933-.108,135.867-.181,203.8-.29,67.351-.107,134.701-.357,202.053-.465,34.121-.054,68.243-.103,102.365-.158,33.764-.054,67.762-1.245,101.5.136,17.497.717,31.671,8.739,30.673,27.867-.865,16.606-5.105,33.388-7.5,49.84-4.769,32.754-8.722,65.603-11.975,98.542-6.683,67.67-10.134,135.592-14.188,203.454-3.92,65.638-8.333,131.36-18.204,196.419-9.857,64.968-27.081,128.122-44.807,191.297-8.448,30.109-16.834,60.251-24.391,90.599-3.785,15.2-7.405,30.44-10.749,45.743-3.043,13.923-8.381,30.422-3.308,44.394,5.706,15.716,22.593,21.021,37.153,25.37,14.887,4.447,29.843,8.558,44.527,13.662,27.994,9.732,55.415,21.144,82.21,33.803,53.702,25.371,107.952,53.996,154.16,91.641,48.088,39.176,77.423,92.093,107.445,145.235,14.344,25.39,28.782,50.729,43.623,75.834,15.143,25.616,31.429,50.684,45.31,77.02,14.612,27.721,26.03,61.51,18.015,92.942-7.826,30.687-32.494,54.96-53.81,77.026-11.411,11.813-24.072,22.758-34.611,35.365-9.565,11.442-17.406,24.194-26.923,35.732-10.359,12.559-15.336,27.027-19.863,42.47-2.318,7.91-5.008,16.524-4.148,24.872.891,8.649,5.628,15.471,9.571,22.92,7.5,14.168,6.461,29.728,8.619,45.164,2.149,15.368,7.491,30.041,13.885,44.108,11.991,26.379,28.594,50.363,43.019,75.411,15.827,27.483,29.177,56.334,37.138,87.115,8.124,31.411,12.244,63.869,17.423,95.86,5.204,32.146,10.491,65.937,5.519,98.443-2.65,17.325-9.242,33.25-17.413,48.647-7.634,14.384-15.812,28.359-18.858,44.572-3.275,17.436-2.137,35.425-2.378,53.074-.237,17.381-1.386,34.719-3.469,51.977-4.106,34.024-9.332,68.387-16.22,101.959-6.856,33.418-19.483,64.361-46.076,86.885-25.024,21.195-56.169,32.067-88.283,36.771-34.37,5.034-69.671,3.395-104.142.279-33.588-3.036-66.971-7.944-100.676-9.693-16.337-.848-35.906.398-39.891,19.773-3.368,16.376.634,35.168,2.566,51.606,3.951,33.624,9.063,67.078,14.511,100.488,5.559,34.094,11.126,68.186,15.132,102.505,3.997,34.243,6.322,68.679,8.216,103.095,1.93,35.058,3.36,70.141,5.235,105.202,1.828,34.184,3.97,68.369,6.983,102.471,2.938,33.254,6.805,66.413,11.46,99.468,4.815,34.188,10.754,68.21,17.513,102.065,6.58,32.956,14.089,65.721,21.996,98.381,8.254,34.098,17.092,68.054,25.832,102.03,4.432,17.229,9.203,34.47,12.156,52.029,2.694,16.02,5.742,35.165,1.032,51.044-5.903,19.9-21.93,22.593-40.416,22.731-17.46.13-34.928-.054-52.389-.089-35.748-.071-71.496-.146-107.243-.218-35.573-.071-71.146-.144-106.719-.215-35.032-.07-70.064-.141-105.096-.211-35.311-.07-70.623-.142-105.934-.213-35.659-.071-71.319-.144-106.979-.215-35.313-.07-70.627-.142-105.94-.211-35.032-.069-70.064-.139-105.096-.208-35.571-.07-71.142-.144-106.713-.215-35.573-.071-71.146-.139-106.719-.208-35.032-.069-70.064-.137-105.096-.206-35.313-.069-70.627-.138-105.94-.208-35.658-.07-71.315-.137-106.973-.216-11.384-.025-22.768-.076-34.151-.122V-847.478c15.601-.024,31.202-.044,46.803-.069Z"/>
      <path d="M528.746-847.447c51.905-.083,103.809-.154,155.714-.237,51.973-.083,103.946-.16,155.92-.243,47.756-.076,95.512-.141,143.268-.217,51.731-.083,103.463-.153,155.194-.236,51.973-.083,103.947-.154,155.92-.237,51.809-.083,103.62-.055,155.429-.264,51.783-.208,103.566-.304,155.35-.387,26.355-.042,52.711-.078,79.067-.12,12.969-.021,25.939-.046,38.908-.062,12.19-.015,25.904-1.491,37.534,2.899,13.485,5.091,16.016,16.909,14.866,30.102-1.065,12.222-2.961,24.398-4.332,36.592-2.796,24.873-5.025,49.815-6.881,74.775-3.735,50.234-5.753,100.584-7.762,150.91-2.019,50.594-3.902,101.216-7.727,151.713-3.803,50.196-9.376,100.289-18.724,149.778-9.102,48.193-22.942,95.034-38.547,141.477-15.445,45.968-32.076,91.521-46.719,137.76-7.108,22.445-19.618,50.556,6.832,64.673,11.15,5.951,24.057,7.983,36.199,11.073,11.964,3.045,23.845,6.412,35.668,9.964,45.871,13.783,89.835,33.186,132.579,54.646,42.753,21.465,85.31,45.106,123.512,74.042,37.28,28.238,66.573,62.739,91.588,102.071,26.123,41.075,49.862,83.734,74.259,125.847,23.28,40.186,51.696,81.371,61.808,127.332,5.255,23.883,6.029,49.586-2.057,72.921-8.022,23.152-25.714,41.045-43.198,57.447-18.324,17.189-37.691,33.402-55.449,51.181-8.641,8.651-15.556,18.532-23.149,28.054-7.555,9.475-16.826,17.578-23.855,27.463-7.133,10.031-13.562,21.586-8.797,33.903,4.463,11.536,15.402,18.949,19.973,30.686,4.585,11.772,6.305,24.487,9.8,36.595,3.159,10.941,7.548,21.445,12.997,31.446,22.376,41.061,55.561,75.012,75.526,117.563,10.191,21.719,16.968,44.505,19.668,68.36,2.854,25.213,4.013,50.093,9.713,74.932,10.352,45.114,36.534,95.007,18.572,141.401-8.323,21.498-34.697,37.079-32.314,61.791,1.169,12.123,4.712,23.953,5.896,36.144,1.271,13.094,1.577,26.285,1.304,39.433-.532,25.678-2.908,51.268-3.152,76.961-.245,25.77,1.756,51.635.278,77.378-1.449,25.239-8.364,48.312-24.954,67.736-15.451,18.09-36.239,31.639-58.677,39.38-46.725,16.12-98.664,12.835-147.194,9.353-50.84-3.648-101.524-13.397-152.59-12.871-11.67.12-24.482-.275-35.414,4.325-12.691,5.34-16.074,16.894-15.074,29.813,1.925,24.895,8.447,50.013,13.382,74.45,9.9,49.025,21.225,97.86,27.835,147.48,6.676,50.116,8.739,100.694,10.164,151.189,1.445,51.182,2.415,102.373,5.198,153.506,2.73,50.151,7.42,100.131,14.573,149.848,7.384,51.32,17.627,102.155,29.609,152.588,11.767,49.524,26.166,98.336,38.495,147.705,3.119,12.49,5.664,25.092,6.939,37.914,1.205,12.113,2.324,26.413-2.548,37.923-5.593,13.213-19.051,16.242-31.972,16.636-12.954.396-25.949.092-38.908.061-51.973-.124-103.946-.25-155.92-.375-51.798-.124-103.596-.249-155.395-.37-51.797-.122-103.593-.249-155.39-.372-51.973-.123-103.947-.248-155.92-.371-51.731-.122-103.463-.247-155.195-.368-51.732-.121-103.463-.245-155.195-.369-51.973-.124-103.947-.246-155.92-.366-51.71-.12-103.42-.244-155.13-.365-29.213-.068-58.425-.113-87.638-.186V-847.397c10.72-.017,21.44-.033,32.16-.05Z" style="fill: #fff;"/>
      <path d="M506.678-847.417c45.648-.073,91.296-.156,136.945-.23,45.717-.075,91.433-.135,137.15-.225,45.108-.089,90.216-.15,135.324-.222,46.042-.074,92.085-.153,138.127-.227,45.176-.072,90.353-.15,135.53-.222,45.649-.073,91.298-.15,136.947-.225,44.549-.073,89.097-.32,133.646-.391,45.649-.073,91.298-.164,136.947-.236,22.479-.036,44.958-.078,67.437-.114,22.612-.036,46.106-1.892,68.616.421,10.231,1.052,20.86,6.087,24.168,16.569,3.138,9.944.345,22.347-.562,32.494-1.977,22.117-3.549,44.27-4.828,66.437-2.582,44.745-3.952,89.547-5.404,134.339-1.459,45.013-3.049,90.031-5.97,134.977-2.9,44.631-7.035,89.217-13.621,133.467-6.287,42.243-14.437,84.341-26.041,125.466-11.745,41.622-27.68,81.835-44.14,121.777-16.096,39.056-34.213,77.814-47.694,117.872-3.732,11.09-5.101,23.185,4.39,31.863,8.19,7.489,19.672,9.879,30.116,12.349,21.321,5.043,42.771,9.507,63.834,15.59,40.882,11.807,80.436,26.93,118.979,44.96,38.419,17.972,76.37,37.876,112.259,60.515,36.929,23.295,72.21,48.96,101.122,81.986,28.329,32.359,50.892,69.449,73.072,106.142,22.264,36.833,44.225,73.993,64.411,112.012,20.077,37.812,39.349,76.977,41.307,120.498.964,21.433-1.282,44.296-9.403,64.323-8.349,20.591-21.838,37.877-37.669,53.282-30.214,29.4-67.918,52.851-92.885,87.211-6.195,8.526-12.924,19.184-14.852,29.702-1.959,10.689,2.583,21.12,7.108,30.547,9.605,20.008,17.545,40.921,30.699,58.986,24.355,33.446,59.368,56.921,84.035,90.052,12.247,16.45,22.443,34.399,32.688,52.13,9.827,17.007,23.799,37.631,22.636,58.173-.631,11.155-6.538,21.3-10.809,31.343-4.328,10.178-7.416,20.734-8.337,31.771-1.833,21.965,5.442,41.723,15.771,60.722,10.258,18.869,20.663,36.612,24.46,58.084,3.971,22.452-1.411,39.654-15.703,57.171-6.212,7.613-14.21,15.388-16.481,25.255-2.536,11.018,3.201,20.948,6.975,30.988,8.19,21.788,2.658,41.793-3.147,63.326-5.792,21.485-8.641,42.897-8.021,65.178.623,22.403,4.649,44.267,7.675,66.406,5.916,43.271.877,88.185-32.61,119.624-32.212,30.243-78.743,35.504-120.973,35.694-44.983.202-89.988-3.492-134.707-8.063-44.551-4.554-89.509-12.559-134.367-7.446-20.359,2.32-49.089,5.921-51.573,31.167-1.102,11.2,2.9,23.233,5.55,33.982,2.666,10.816,5.352,21.627,8.094,32.423,10.969,43.196,22.406,86.416,29.934,130.379,7.582,44.279,10.33,89.127,11.209,133.995.892,45.518.249,91.046.503,136.569.251,44.926,1.549,89.777,4.875,134.588,3.326,44.815,9.054,89.411,16.958,133.646,7.623,42.659,17.562,84.863,28.625,126.749,11.233,42.533,26.654,84.558,35.368,127.672,3.848,19.04,10.6,49.712-5.661,64.614-8.331,7.635-21.198,7.088-31.909,7.15-11.641.067-23.284-.044-34.925-.076-45.281-.125-90.562-.251-135.843-.374-45.977-.125-91.955-.253-137.932-.378-45-.122-89.999-.247-134.999-.371-45.912-.126-91.825-.249-137.737-.377-45.523-.127-91.046-.249-136.568-.374-45.281-.125-90.562-.249-135.843-.373-45.977-.126-91.955-.252-137.932-.376-45-.122-90-.249-134.999-.369-45.912-.123-91.825-.247-137.737-.374-33.899-.094-67.798-.184-101.697-.275V-847.4c3.364-.006,6.728-.012,10.092-.017Z"/>
      <path d="M499.042-847.488c52.044-.102,104.087-.172,156.131-.279,51.973-.107,103.947-.201,155.92-.284,51.973-.083,103.946-.196,155.92-.279,51.973-.083,103.947-.178,155.92-.279,52.054-.101,104.107-.191,156.161-.381,51.893-.189,103.786-.248,155.679-.355,52.15-.107,104.3-.208,156.45-.291,26.42-.042,52.84-.093,79.26-.149,12.86-.027,25.737-.233,38.595-.027,12.339.197,26.692,1.216,33.345,13.408,5.748,10.534,2.588,26.01,1.896,37.461-.775,12.827-1.491,25.658-2.051,38.497-1.143,26.186-1.94,52.386-2.662,78.586-1.43,51.912-2.849,103.825-6.047,155.666-3.166,51.324-8.287,102.529-16.302,153.331-7.92,50.195-18.619,100.059-32.743,148.884-13.792,47.677-33.875,93.052-55.239,137.747-10.596,22.168-21.368,44.252-31.874,66.462-5.353,11.316-10.701,22.636-15.812,34.063-4.551,10.174-11.413,24.877-3.052,35.131,7.784,9.546,22.328,12.193,33.722,14.489,12.462,2.511,25,4.588,37.428,7.279,25.043,5.422,49.869,11.616,74.404,19.007,47.029,14.167,92.203,33.875,135.899,56.193,44.659,22.81,88.962,47.757,128.82,78.339,39.98,30.676,71.417,68.039,99.667,109.511,27.602,40.522,53.064,82.693,76.751,125.612,23.187,42.012,47.988,87.45,55.767,135.343,8.211,50.552-3.275,103.194-30.831,146.146-13.606,21.208-30.878,39.204-48.072,57.464-16.758,17.796-36.929,38.662-30.69,65.196,5.671,24.119,25.78,44.535,44.578,59.283,18.93,14.852,38.832,28.426,57.366,43.792,39.194,32.495,70.133,73.423,110.106,105.159,9.343,7.417,19.106,14.284,28.447,21.702,9.047,7.185,20.592,16.574,23.32,28.42,6.014,26.11-23.118,44.834-41.771,57.064-19.804,12.985-42.79,23.965-59.934,40.476-21.399,20.608-1.703,45.411,7.258,66.949,8.848,21.267,18.091,50.021,9.35,72.612-4.696,12.138-12.827,21.102-19.936,31.762-8.337,12.504-6.615,23.508-1.887,37.001,4.154,11.855,7.219,24.225,6.157,36.88-1.056,12.581-5.978,23.919-10.932,35.362-5.018,11.592-10.018,23.097-12.233,35.613-2.285,12.915-1.759,26.076-.019,39.032,6.768,50.388,27.321,98.921,7.374,149.14-9.591,24.146-26.715,45.775-50.447,57.213-22.873,11.023-47.83,14.33-72.983,15.152-51.247,1.673-102.585-1.329-153.615-5.809-50.93-4.471-103.575-14.392-154.51-5.353-21.42,3.801-54.569,11.641-62.084,35.275-3.754,11.806,1.289,25.683,4.518,37.05,3.504,12.335,7.206,24.615,10.784,36.929,14.177,48.791,27.597,98.125,33.327,148.734,5.844,51.615,5.316,103.667,3.804,155.508-1.515,51.97-3.748,103.913-3.167,155.92.577,51.628,4.055,103.189,11.275,154.324,7.085,50.183,17.959,99.739,31.266,148.622,6.31,23.179,13.213,46.189,20.368,69.12,7.327,23.482,16.025,46.77,21.549,70.764,4.608,20.018,14.186,60.359-12.93,68.289-12.726,3.722-27.035,2.231-40.153,2.192-13.036-.04-26.072-.08-39.108-.12-51.973-.158-103.947-.317-155.921-.476-52.15-.16-104.3-.318-156.45-.48-51.973-.162-103.946-.318-155.92-.478-51.973-.16-103.947-.318-155.92-.477-51.973-.16-103.947-.32-155.92-.48-51.973-.16-103.947-.32-155.92-.477-51.973-.158-103.946-.316-155.92-.479-52.042-.162-104.084-.318-156.126-.479-20.619-.063-41.239-.126-61.858-.189V-847.484c.819-.002,1.638-.003,2.457-.005Z" style="fill: #fff;"/>
      <path d="M609.798-847.855c62.985-.123,125.971-.226,188.957-.369,63.236-.144,126.472-.244,189.709-.366,62.01-.12,124.019-.343,186.029-.517,63.373-.177,126.747-.295,190.12-.404,62.986-.108,125.971-.25,188.957-.379,31.899-.066,63.797-.132,95.696-.194,15.478-.03,30.958-.15,46.436-.072,15.517.078,32.164.872,38.114,17.751,4.479,12.704,1.273,29.198.842,42.461-.522,16.087-.897,32.179-1.239,48.271-.665,31.339-1.158,62.682-2.142,94.013-1.949,62.069-6.046,124.094-14.691,185.618-8.373,59.583-20.956,118.497-37.249,176.412-16.234,57.704-36.407,112.872-63.814,166.242-13.705,26.688-28.178,52.969-42.387,79.389-6.68,12.42-13.329,24.855-19.812,37.378-5.585,10.787-17.288,27.266-10.869,39.63,7.07,13.619,27.541,15.11,40.815,17.337,15.22,2.553,30.455,5.091,45.632,7.887,30.773,5.668,61.373,12.994,91.41,21.742,57.016,16.606,111.343,41.18,163.558,69.281,52.942,28.493,105.368,60.685,148.103,103.421,41.455,41.457,73.681,92.766,104.196,142.516,31.295,51.022,61.655,105.004,79.558,162.391,18.601,59.625,7.154,119.169-10.522,177.476-8.36,27.576-21.69,57.952-18.558,87.311,3.087,28.937,28.052,48.931,48.267,67.215,21.24,19.211,42.851,37.929,63.422,57.876,22.186,21.513,42.856,44.51,64.813,66.28,23.026,22.828,48.27,44.568,67.948,70.421,10.108,13.279,18.901,29.155,18.161,46.316-.755,17.495-12.429,31.577-25.919,41.599-27.596,20.501-63.339,23.929-92.477,41.2-15.034,8.911-24.201,21.128-26.021,38.726-1.852,17.917.727,35.995,4.177,53.543,3.529,17.947,5.767,35.211-1.539,52.619-5.983,14.256-22.386,26.245-24.022,42.017-1.755,16.922,8.137,33.267,9.03,50.178.977,18.497-6.308,33.465-15.055,49.245-8.346,15.056-15.509,30.271-15.272,47.874.238,17.668,5.463,34.951,10.072,51.874,9.093,33.391,19.112,68.517,10.982,103.2-7.917,33.771-26.823,64.409-58.848,79.762-32.386,15.526-71.191,15.996-106.347,15.022-36.832-1.021-73.622-3.972-110.356-6.728-36.351-2.728-72.825-4.687-109.251-6.099-35.966-1.395-72.354,2.169-102.668,23.341-14.931,10.428-28.457,24.748-28.225,44.086.2,16.628,7.676,33.445,12.56,49.15,10.364,33.325,20.142,66.945,26.791,101.235,6.917,35.67,9.791,71.902,10.024,108.21.231,35.913-1.889,71.804-4.07,107.635-2.232,36.658-4.795,73.304-6.035,110.014-1.242,36.759-1.19,73.592,1.05,110.312,2.136,35.017,6.112,69.906,12.15,104.468,6.146,35.186,14.302,70.053,24.12,104.393,9.274,32.44,19.727,64.542,31.028,96.331,5.684,15.989,11.766,31.92,16.307,48.284,4.327,15.593,10.362,35.501,6.738,51.773-4.881,21.917-27.968,20.979-45.831,20.946-18.127-.033-36.253-.114-54.38-.175-37.054-.123-74.108-.245-111.161-.369-36.987-.124-73.974-.246-110.962-.37-36.947-.124-73.895-.246-110.843-.37-36.706-.123-73.412-.246-110.117-.366-36.881-.122-73.761-.247-110.642-.37-36.597-.122-73.195-.247-109.793-.367-36.883-.121-73.765-.245-110.648-.37-36.706-.125-73.412-.247-110.118-.369-36.946-.123-73.891-.248-110.837-.372-36.987-.124-73.975-.249-110.962-.374-37.056-.124-74.111-.249-111.167-.372-28.044-.093-56.088-.188-84.132-.282V-847.633c37.738-.073,75.475-.148,113.213-.222Z"/>
      <path d="M573.292-848.01c52.637-.107,105.274-.229,157.911-.323,52.742-.095,105.483-.201,158.225-.327,51.447-.123,102.893-.359,154.34-.488,52.983-.134,105.967-.23,158.95-.357,52.464-.126,104.928-.243,157.392-.347,52.464-.105,104.928-.216,157.393-.342,52.985-.127,105.97-.231,158.955-.345,12.44-.027,27.39-1.967,38.558,4.456,11.973,6.886,12.874,20.163,12.892,32.775.038,26.347-.441,52.713-.669,79.061-.454,52.338-1.569,104.719-6.298,156.872-4.487,49.486-11.954,98.735-22.787,147.243-10.064,45.068-22.853,89.558-37.425,133.362-15.721,47.259-32.279,94.391-55.043,138.788-21.952,42.814-47.569,83.629-71.784,125.169-6.286,10.785-12.578,21.58-18.554,32.54-5.36,9.831-13.157,22.278-6.697,33.275,6.134,10.443,21.793,12.372,32.58,14.005,12.876,1.948,25.825,3.391,38.703,5.339,51.185,7.743,101.94,18.2,151.536,33.119,48.139,14.481,94.148,35.361,138.71,58.439,43.466,22.51,86.494,47.688,124.973,78.074,39.559,31.239,70.914,69.163,99.487,110.425,28.295,40.861,55.024,83.13,78.208,127.113,23.343,44.285,47.356,93.124,52.621,143.539,5.48,52.475-10.686,102.728-18.462,154.015-3.929,25.911-4.672,51.634,8.998,74.946,12.935,22.058,34.092,39.49,52.558,56.751,37.253,34.822,72.482,70.705,106.393,108.781,15.872,17.821,31.988,35.417,47.63,53.442,15.522,17.887,32.688,36.736,41.313,59.151,9.642,25.056,3.556,50.762-14.825,69.99-17.646,18.46-42.408,28.881-66.078,37.177-24.32,8.524-48.198,17.47-61.353,41.242-5.712,10.322-10.419,22.713-11.077,34.577-.716,12.914,4.414,24.867,6.768,37.328,2.403,12.723,1.464,26.215-4.996,37.661-6.104,10.815-16.579,20.169-20.736,31.966-4.202,11.925,1.29,25.319,3.614,37.038,2.699,13.608,3.252,27.313-.922,40.683-7.713,24.708-28.262,41.823-28.831,69.24-.532,25.651,10.934,51.174,17.807,75.477,13.819,48.865,12.637,104.606-24.133,143.845-35.292,37.662-95.575,36.993-143.284,35.596-52.028-1.524-103.818-7.087-155.805-9.37-50.206-2.205-106.763-10.586-150.763,19.428-18.727,12.774-40.991,35.374-44.644,58.808-1.941,12.454,2.482,24.816,6.235,36.509,3.557,11.082,7.117,22.169,10.413,33.331,14.347,48.589,24.925,97.585,26.577,148.386,1.694,52.08-3.518,104.164-8.474,155.941-4.915,51.348-9.483,102.808-9.772,154.427-.29,51.805,3.913,103.468,13.185,154.448,8.806,48.417,22.367,95.78,38.455,142.248,7.87,22.731,16.483,45.205,25.339,67.568,8.743,22.08,17.698,44.879,20.664,68.593,1.648,13.182.141,28.849-14.325,33.869-11.965,4.152-25.58,2.907-38.048,2.868-26.774-.084-53.548-.187-80.322-.282-52.356-.187-104.711-.369-157.067-.555-52.395-.186-104.791-.372-157.186-.558-52.983-.188-105.967-.378-158.95-.564-52.81-.186-105.62-.378-158.431-.566-52.247-.186-104.495-.374-156.742-.56-52.81-.187-105.62-.375-158.431-.568-52.983-.194-105.967-.381-158.95-.571-50.741-.182-101.483-.364-152.224-.547V-847.844c25.569-.058,51.138-.114,76.707-.166Z" style="fill: #fff;"/>
      <path d="M589.408-848.298c43.084-.103,86.168-.183,129.252-.286,42.577-.102,85.154-.21,127.731-.376,42.545-.166,85.09-.27,127.635-.372,42.565-.102,85.129-.198,127.694-.3,42.82-.102,85.64-.199,128.459-.302,42.82-.103,85.64-.193,128.459-.296,42.565-.102,85.129-.209,127.694-.294,42.388-.085,84.776-.197,127.163-.299,21.823-.052,43.65-.211,65.473-.14,10.095.033,21.309-.618,30.109,5.04,8.176,5.257,11.167,14.319,11.943,23.656,1.79,21.543.871,43.603,1.076,65.214.2,21.086.247,42.177-.141,63.262-.766,41.63-3.242,83.29-8.604,124.594-5.192,39.995-13.011,79.604-23.231,118.615-9.78,37.329-21.811,74.048-35.106,110.264-12.934,35.231-26.997,70.067-41.468,104.692-7.236,17.313-14.78,34.485-23.259,51.237-21.548,42.571-47.942,82.379-73.506,122.587-12.859,20.225-25.838,40.448-37.724,61.267-5.278,9.244-13.55,21.842-6.485,32.116,7.235,10.519,24.269,11.483,35.623,12.826,30.068,3.556,60.152,6.837,90.018,11.937.009.002,6.39,1.122,6.399,1.124,35.049,6.1,70.032,12.982,104.287,22.668,34.362,9.715,67.942,21.515,100.58,36.04,31.41,13.979,62.174,29.396,92.091,46.344,31.446,17.813,62.422,36.743,90.949,59.008,27.862,21.746,52.581,46.63,74.172,74.607,2.593,3.36,5.126,6.76,7.658,10.166l4.448,6.09c30.943,43.11,59.634,88.095,85.383,134.499,26.111,47.057,53.131,98.918,60.223,152.924,4.063,30.944-.007,62.058-6.065,92.458l-1.37,6.316c-7.75,33.651-21.454,67.112-24.816,101.584-1.858,19.054,1.657,36.269,12.778,52.021,8.667,12.277,19.785,22.89,30.588,33.276,22.544,21.672,45.86,42.489,67.928,64.663,21.679,21.783,41.816,44.99,63.088,67.155,23.148,24.12,49.357,46.518,68.668,73.985,9.667,13.749,17.563,30.224,14.974,47.435-2.522,16.763-13.822,29.744-27.192,39.34-27.074,19.432-61.277,23.232-89.727,39.711-15.787,9.144-24.333,22.201-25.762,40.444-1.504,19.208.659,37.956,4.215,56.787,3.282,17.378,3.954,34.115-4.017,50.426-7.62,15.592-24.383,27.356-22.425,46.348,1.843,17.877,10.189,33.603,8.703,52.133-1.402,17.479-10.955,31.829-19.126,46.804-9.429,17.284-13.699,34.558-10.689,54.222,2.713,17.726,8.293,34.866,12.958,52.139,9.469,35.056,14.673,70.424,2.539,105.543-11.423,33.061-34.941,57.831-68.112,69.163-33.98,11.609-71.321,10.802-106.754,9.431-36.924-1.428-73.777-4.208-110.614-7.066-37.53-2.912-75.717-6.721-113.384-6.016-35.182.659-69.248,10.203-95.346,34.772-11.869,11.174-22.765,25.245-30.066,39.86-8.575,17.167-5.81,32.448-.257,50.062,10.409,33.014,20.667,66.118,27.381,100.123,7.253,36.736,9.755,73.958,8.272,111.359-1.426,35.967-5.598,71.723-9.944,107.431-4.407,36.204-9.153,72.361-12.27,108.707-3.206,37.378-4.56,74.935-3.094,112.434,1.42,36.323,5.729,72.523,12.78,108.181,6.642,33.59,15.775,66.633,26.676,99.082,10.654,31.713,23.075,62.762,36.223,93.514,6.503,15.211,13.352,30.267,18.934,45.853,5.211,14.551,13.496,34.44,9.851,50.129-4.55,19.585-25.881,19.534-42.259,19.59-18.998.065-38-.117-56.999-.187-37.543-.138-75.086-.277-112.628-.414-37.436-.138-74.872-.277-112.309-.414-37.261-.137-74.523-.275-111.784-.414-37.478-.139-74.956-.277-112.434-.417-37.608-.14-75.216-.282-112.823-.42-37.649-.139-75.298-.282-112.947-.421-37.608-.139-75.216-.28-112.823-.422-37.546-.141-75.093-.281-112.639-.422-37.261-.14-74.523-.28-111.784-.42-37.368-.14-74.736-.279-112.104-.421-37.542-.142-75.085-.283-112.627-.424-12.394-.047-24.788-.093-37.182-.14V-848.097c30.941-.064,61.881-.127,92.822-.201Z"/>
      <path d="M672.498-848.802c67.844-.219,135.688-.477,203.532-.64,68.288-.163,136.575-.333,204.863-.497,68.461-.164,136.923-.34,205.384-.504,69.023-.165,138.046-.343,207.068-.508,34.296-.082,68.592-.164,102.888-.246,17.324-.042,34.647-.083,51.971-.125,15.149-.036,33.978-2.89,48.494,2.267,17.98,6.387,17.812,26.603,18.402,42.444.633,16.966,1.196,33.937,1.606,50.911.834,34.508.885,69.066-1.124,103.537-3.823,65.576-15.63,130.331-35.165,193.042-18.732,60.133-43.975,117.798-70.226,174.958-13.532,29.466-26.94,59.063-41.888,87.845-14.372,27.675-31.156,53.984-48.39,79.944-17.366,26.159-35.282,51.951-52.404,78.272-8.369,12.865-16.707,25.787-24.488,39.019-3.808,6.476-9.467,14.794-9.806,22.57-.369,8.461,5.361,13.447,12.217,16.946,13.973,7.132,33.404,5.523,48.74,6.774,17.101,1.395,34.116,3.611,51.149,5.644,32.625,3.894,65.147,9.135,97.344,15.714,64.374,13.155,125.937,33.443,185.524,61.076,56.665,26.278,113.015,57.289,162.52,95.545,51.228,39.588,87.498,91.22,121.893,145.323,34.677,54.546,68.959,110.942,92.891,171.186,12.382,31.17,19.646,62.863,17.829,96.58-1.737,32.25-9.614,63.454-24.498,92.153-14.687,28.318-35.532,52.389-54.762,77.607-9.513,12.476-21.056,27.545-19.802,44.105,1.199,15.846,11.755,30.494,21.882,42.146,21.056,24.225,49.097,42.105,73.245,63.042,24.473,21.219,45.972,45.242,68.218,68.698,20.704,21.831,43.542,40.794,66.705,59.944,10.199,8.432,21.1,17.557,26.788,29.799,6.797,14.629,1.13,28.238-9.409,39.234-18.371,19.167-43.738,31.54-66.006,45.567-10.822,6.817-22.012,13.894-30.181,23.89-9.632,11.785-6.483,24.954-.823,37.769,10.665,24.142,22.444,49.936,22.374,76.931-.038,14.883-6.051,27.987-14.663,39.833-7.705,10.599-16.183,20.499-13.951,34.452,2.055,12.843,8.5,24.464,9.985,37.544,1.669,14.703-1.848,28.185-7.684,41.579-5.254,12.058-11.761,23.583-15.519,36.257-3.989,13.454-4.198,27.244-2.657,41.097,3.025,27.199,11.045,53.561,15.325,80.551,4.55,28.698,2.332,56.486-10.336,82.887-11.913,24.828-32.861,44.501-58.798,53.999-26.56,9.726-55.522,10.904-83.511,11.176-29.117.284-58.27-.764-87.314-2.797-28.614-2.003-57.189-4.667-85.766-7.131-28.194-2.43-56.671-5.477-85.003-4.382-53.275,2.059-109.389,29.111-130.507,81.19-5.71,14.081-3.232,27.416.994,41.509,3.904,13.022,8.083,25.956,11.922,38.998,7.698,26.147,14.726,52.559,19.507,79.412,9.834,55.242,6.362,110.863-.952,166.183-7.402,55.983-17.737,111.568-22.835,167.847-5.231,57.743-4.939,115.939,4.199,173.287,8.762,54.986,25.087,108.463,46.086,159.961,10.026,24.586,20.999,48.717,32.37,72.706,5.725,12.079,11.408,24.177,16.352,36.602,5.138,12.913,11.308,27.411,11.611,41.507.725,33.629-48.045,25.79-70.011,25.708-29.384-.109-58.768-.221-88.152-.331-58.213-.219-116.426-.441-174.638-.66-58.492-.22-116.984-.444-175.476-.666-58.839-.223-117.677-.448-176.516-.674-58.146-.223-116.292-.446-174.438-.669-58.665-.225-117.331-.453-175.996-.678-58.668-.225-117.335-.452-176.002-.681-46.031-.179-92.063-.358-138.094-.536V-848.367c58.638-.131,117.275-.245,175.913-.435Z" style="fill: #fff;"/>
      <path d="M581.079-848.937c61.192-.277,122.385-.389,183.577-.552,60.381-.161,120.762-.303,181.143-.464,61.245-.163,122.49-.317,183.735-.464,60.509-.145,121.018-.314,181.527-.458,60.898-.146,121.797-.285,182.695-.456,30.191-.084,60.381-.156,90.572-.229,30.449-.073,61.777-2.27,92.13.186,15.201,1.23,26.227,8.398,29.227,24.165,2.831,14.878,2.538,30.807,3.362,45.902,1.666,30.504,2.829,61.056,2.272,91.61-1.086,59.694-9.049,118.823-25.213,176.341-15.375,54.709-37.588,107.246-62.499,158.237-25.247,51.678-51.56,103.218-79.453,153.52-26.848,48.416-60.274,92.657-91.808,138.035-15.619,22.476-31.069,45.178-44.964,68.773-6.198,10.525-18.783,30.197-4.034,39.194,12.279,7.49,29.112,6.35,42.94,7.291,58.458,3.976,116.412,10.047,174.085,20.606,55.667,10.191,110.627,24.635,163.061,46.104,53.155,21.764,104.969,48.197,153.745,78.539,50.092,31.16,94.057,67.673,128.537,115.922,33.603,47.02,62.406,97.686,91.078,147.801,27.705,48.425,59.7,101.181,62.49,158.281,1.385,28.354-3.289,58.296-17.356,83.274-13.906,24.692-34.79,44.091-55.772,62.718-21.403,18.999-46.015,36.506-62.269,60.386-7.101,10.432-17.034,23.984-16.833,37.164.206,13.481,10.035,27.109,15.79,38.831,12.47,25.399,28.531,46.913,49.076,66.349,19.582,18.525,40.633,35.304,57.912,56.14,17.566,21.181,31.079,45.367,46.944,67.785,7.803,11.026,16.156,21.747,23.475,33.095,8.95,13.877,8.445,25.51-2.005,38.372-9.003,11.081-19.854,21.282-25.438,34.686-5.903,14.168-5.879,29.425-1.696,44.049,7.65,26.742,27.494,47.857,34.293,75.14,3.533,14.178,5.524,29.118.349,43.151-4.979,13.5-15.584,23.382-23.65,34.937-9.638,13.806-5.302,25.382.155,39.806,5.569,14.718,7.594,28.567,4.089,43.904-4.612,20.177-13.05,39.18-15.6,59.844-2.605,21.12-1.221,42.655,1.434,63.695,5.48,43.441,15.97,86.406-5.721,127.337-21.6,40.759-65.521,56.789-109.018,61.399-44.533,4.719-90.662,1.774-135.118-2.474-43.843-4.19-87.665-10.779-131.763-11.558-42.719-.755-87.304,6.847-121.738,33.886-16.2,12.721-32.59,31.314-38.909,51.284-6.393,20.201,3.164,41.674,8.853,61.019,12.108,41.166,24.241,82.971,29.511,125.669,5.476,44.356,1.722,89.026-4.681,133.065-6.353,43.693-15.191,86.98-21.904,130.616-6.745,43.842-11.231,87.99-10.867,132.391.363,44.261,5.78,88.434,16.407,131.415,9.95,40.242,23.984,79.31,40.652,117.236,16.302,37.093,36.455,72.275,52.991,109.22,7.119,15.906,23.543,46.92,4.664,60.109-8.818,6.161-22.212,5.916-32.564,6.085-11.396.185-22.803.026-34.2-.016-45.039-.169-90.079-.341-135.118-.513-45.559-.174-91.118-.347-136.677-.522-45.386-.174-90.772-.346-136.157-.521-44.823-.173-89.646-.346-134.469-.518-45.144-.173-90.288-.349-135.432-.523-45.559-.176-91.118-.351-136.677-.53-45.212-.177-90.425-.352-135.638-.529-44.929-.176-89.859-.351-134.788-.527-45.472-.178-90.945-.357-136.417-.534-6.939-.027-13.878-.055-20.818-.082V-848.65c28.165-.074,56.329-.159,84.494-.287Z"/>
      <path d="M527.068-849.179c52.327-.153,104.654-.263,156.98-.412,52.11-.149,104.221-.259,156.331-.405,52.287-.146,104.574-.265,156.861-.406,52.633-.141,105.267-.243,157.9-.404,52.5-.161,105-.279,157.5-.405,52.457-.126,104.913-.261,157.37-.401,52.327-.139,104.654-.257,156.98-.405,22.867-.065,59.088-6.799,67.489,21.276,3.551,11.867,3.552,25.224,4.611,37.507,1.109,12.855,2.115,25.718,2.938,38.594,3.345,52.339,2.801,104.913-5.504,156.791-7.963,49.744-22.872,97.933-42.3,144.345-19.607,46.842-43.836,91.651-68.964,135.72-24.881,43.636-48.865,88.031-75.397,130.687-25.788,41.46-56.101,79.956-84.495,119.619-14.495,20.248-28.638,40.779-41.676,62.002-8.971,14.603-38.375,52.388-12.512,63.653,11.753,5.119,26.906,3.812,39.433,4.075,12.885.271,25.737.816,38.594,1.714,25.306,1.766,50.62,3.771,75.805,6.826,51.218,6.213,102.022,14.418,152.249,26.294,48.271,11.414,94.779,28.033,139.926,48.493,45.64,20.684,90.245,44.606,132.291,71.877,42.742,27.723,79.62,61.02,108.767,102.979,28.729,41.357,52.613,86.111,78.01,129.537,12.699,21.714,25.451,43.415,37.692,65.391,12.113,21.748,24.295,43.975,31.433,67.936,7.262,24.374,10.214,51.925,3.67,76.812-6.46,24.567-21.488,44.078-39.373,61.601-18.333,17.962-37.803,34.733-56.781,51.999-9.644,8.774-18.128,18.026-25.851,28.531-7.798,10.607-17.378,18.102-26.555,27.297-8.917,8.935-17.301,19.403-15.056,32.803,1.935,11.547,17.464,19.15,23.362,29.098,6.322,10.662,7.798,23.894,11.074,35.676,3.246,11.676,7.627,22.897,13.517,33.51,24.334,43.852,62.3,78.073,82.642,124.441,10.508,23.952,16.103,48.322,17.322,74.411,1.184,25.346,3.865,50.057,10.756,74.579,6.677,23.762,15.694,46.901,21.861,70.784,6.333,24.528,6.783,52.43-7.858,74.187-6.9,10.253-17.292,18.633-22.83,29.745-5.832,11.703-1.363,24.186,1.168,36.054,5.441,25.51,3.055,52.663,1.293,78.468-1.757,25.726-3.454,51.357-2.797,77.16.649,25.454,3.72,51.439.232,76.794-7.285,52.954-49.465,86.107-99.376,97.569-50.245,11.539-103.28,8.129-154.186,3.486-52.202-4.761-105.389-13.241-157.881-9.016-50.47,4.062-101.942,21.399-128.747,67.214-6.398,10.936-10.531,22.562-9.879,35.344.632,12.388,4.946,24.814,8.164,36.717,6.75,24.967,13.543,49.927,19.627,75.067,12.522,51.741,18.507,102.347,12.845,155.508-5.356,50.288-16.73,99.68-26.057,149.318-9.635,51.274-17.058,103.022-17,155.303.057,51.184,7.766,101.988,22.257,151.05,13.751,46.56,33.513,91.107,55.877,134.119,11.174,21.49,23.305,42.454,34.559,63.898,5.886,11.217,11.466,22.699,15.887,34.582,4.401,11.829,7.807,25.502-3.421,34.338-9.433,7.424-25.417,6.764-36.905,6.91-13.208.169-26.425-.01-39.633-.06-26.251-.099-52.502-.198-78.753-.297-52.111-.198-104.221-.395-156.331-.592-52.568-.199-105.137-.402-157.705-.6-52.478-.198-104.957-.401-157.435-.603-52.72-.202-105.44-.406-158.16-.609-52.327-.201-104.654-.404-156.981-.607-52.11-.202-104.221-.404-156.331-.608-52.11-.204-104.22-.405-156.331-.609-5.565-.022-11.129-.055-16.694-.079V-849.066c10.161-.037,20.322-.083,30.483-.113Z" style="fill: #fff;"/>
      <path d="M609.798-849.663c52.601-.126,105.202-.255,157.803-.409,53.467-.157,106.934-.291,160.4-.419,52.534-.126,105.069-.282,157.603-.407,53.142-.127,106.284-.282,159.426-.412,53.074-.129,106.147-.284,159.221-.411,52.601-.126,105.202-.268,157.803-.408,26.719-.071,53.482-.588,80.197-.151,11.9.195,25.816.763,33.89,10.971,7.545,9.538,7.768,24.772,9.157,36.242,6.3,51.992,11.182,104.212,7.755,156.616-3.248,49.666-13.855,98.333-30.663,145.15-16.839,46.904-39.807,91.321-64.669,134.412-24.946,43.237-52.175,85.117-78.081,127.776-25.863,42.588-53.439,83.305-83.383,123.134-30.148,40.101-60.798,80.104-85.894,123.652-5.699,9.889-11.175,19.985-16.075,30.298-4.77,10.04-11.906,25.146-2.85,34.873,8.125,8.727,25.573,6.885,36.506,7.066,13.215.218,26.427.604,39.639.97,52.264,1.447,104.21,7.4,155.957,14.595,50.074,6.962,100.222,16.572,148.822,30.585,48.38,13.95,94.465,33.643,139.464,56.082,44.112,21.997,87.982,46.419,126.798,76.985,39.71,31.27,68.186,71.339,92.907,114.953,24.284,42.843,48.525,85.671,73.816,127.932,24.461,40.874,55.666,84.108,55.108,133.829-.294,26.133-12.425,48.179-28.989,67.674-16.938,19.934-36.077,38.002-54.743,56.284-9.09,8.904-16.375,18.58-23.726,28.909-7.176,10.083-16.136,18.651-22.391,29.395-5.807,9.974-9.074,21.917-12.037,33.009-3.811,14.267-2.437,25.009,5.416,37.526,14.14,22.538,10.116,50.114,18.735,74.869,8.315,23.881,22.535,45.52,36.013,66.728,13.209,20.785,26.288,41.652,36.239,64.244,10.32,23.43,17.214,48.223,22.177,73.297,4.945,24.979,8.362,50.258,12.798,75.332,4.518,25.535,8.567,51.2,8.104,77.214-.46,25.835-8.447,49.084-21.946,70.979-6.299,10.217-12.588,20.028-16.167,31.586-3.835,12.385-3.108,25.869-2.631,38.673.967,25.966,1.51,51.663-.993,77.575-2.462,25.487-6.456,50.851-10.052,76.197-3.617,25.492-6.972,51.317-17.372,75.108-9.703,22.197-26.15,40.363-46.796,52.931-43.058,26.21-96.657,30.135-145.776,28.106-51.609-2.132-102.822-10.539-154.47-11.614-48.291-1.006-106.663,1.742-147.023,31.724-18.9,14.04-32.393,37.492-36.635,60.604-4.628,25.218,6.118,53.238,11.965,77.582,11.79,49.085,26.167,98.759,28.373,149.44,2.227,51.156-7.996,102.063-18.539,151.85-10.625,50.172-22.241,100.283-27.636,151.366-5.533,52.385-4.789,105.343,5.376,157.14,9.487,48.347,26.073,94.896,47.2,139.342,20.476,43.077,46.108,83.037,68.654,124.964,8.648,16.082,30.637,50.184,5.758,61.994-11.243,5.337-26.927,4.272-39.021,4.333-12.826.066-25.655-.045-38.481-.092-53.337-.196-106.674-.396-160.011-.593-52.947-.195-105.894-.393-158.842-.591-52.706-.198-105.411-.395-158.117-.592-53.225-.2-106.45-.4-159.675-.601-52.601-.199-105.202-.398-157.803-.598-53.337-.202-106.674-.411-160.011-.611-52.879-.198-105.758-.403-158.636-.603-10.72-.041-21.44-.092-32.16-.144V-849.367c37.738-.101,75.475-.206,113.213-.297Z"/>
      <path d="M596.302-849.838c21.962-.053,43.923-.1,65.885-.164,42.141-.123,84.281-.216,126.422-.333,42.143-.117,84.285-.202,126.427-.321,42.427-.12,84.855-.227,127.283-.328,42.316-.101,84.631-.218,126.947-.328,42.316-.11,84.631-.221,126.947-.322,42.337-.102,84.675-.193,127.012-.325,42.337-.132,84.675-.224,127.012-.325,20.909-.05,41.819-.143,62.729-.155,20.545-.012,43.742-.551,50.833,23.003,5.804,19.282,7.376,40.642,10.144,60.538,2.82,20.273,5.066,40.616,6.369,61.046,2.609,40.902.975,82.172-6.553,122.51-7.391,39.608-19.906,78.155-36.292,114.94-15.44,34.663-33.819,67.866-53.541,100.258-20.111,33.033-41.68,65.154-62.944,97.448-21.002,31.896-40.795,64.631-62.936,95.765-22.271,31.317-46.394,61.279-69.493,91.979-22.933,30.479-45.314,61.811-63.394,95.468-9.021,16.794-17.685,34.147-23.503,52.345-2.934,9.177-6.091,20.776.438,29.159,6.367,8.175,18.54,8.121,27.908,8.138,41.033.073,81.884-.403,122.835,3.185,40.65,3.562,81.161,8.263,121.469,14.659,39.05,6.196,78.122,13.391,116.351,23.566,37.374,9.947,73.508,22.808,108.923,38.322,35.362,15.491,69.838,33.222,103.167,52.699,32.821,19.181,64.924,40.732,91.262,68.388,26.09,27.395,44.687,60.355,62.508,93.45,18.754,34.826,37.903,69.368,58.416,103.194,19.442,32.06,42.819,63.242,57.356,97.947,7.327,17.492,11.748,36.847,8.139,55.739-3.605,18.869-14.068,35.377-25.07,50.783-11.349,15.892-23.33,31.472-36.289,46.09-13.034,14.703-23.306,31.494-36.494,45.945-14.37,15.747-20.637,33.61-26.718,53.762-3.018,10.004-5.29,19.836-2.15,30.119,3.082,10.091,9.293,18.344,10.902,29.028,1.55,10.291.555,20.884,1.626,31.238,1.035,10.01,3.385,19.804,6.524,29.353,6.284,19.121,15.527,37.187,25.035,54.87,18.69,34.756,39.045,68.231,52.078,105.697,13.085,37.613,20.04,77.262,24.38,116.763,4.539,41.305,3.571,83.444-8.512,123.472-5.658,18.744-13.932,36.57-20.36,55.04-6.31,18.132-11.158,36.597-15.564,55.274-9.14,38.742-19.509,76.897-31.874,114.741-11.537,35.309-23.997,71.917-47.274,101.44-23.751,30.127-59.949,47.53-96.99,54.97-40.559,8.146-81.742,2.605-122.434-1.327-41.602-4.02-83.274-6.823-125.091-5.66-38.028,1.058-85.314.8-116.937,25.121-15.921,12.245-25.373,29.873-31.77,48.545-6.585,19.219-11.931,39.638-9.858,60.082,4.116,40.592,15.734,81.031,24.201,120.883,8.253,38.849,14.006,76.985,11.311,116.809-2.751,40.648-11.616,80.648-20.556,120.299-8.633,38.287-17.743,76.506-23.802,115.31-6.366,40.77-9.519,82.009-6.955,123.253,2.533,40.736,10.617,80.906,23.363,119.66,12.108,36.815,28.307,72.177,46.677,106.261,18.59,34.491,40.385,66.968,59.927,100.882,4.754,8.251,9.447,16.571,13.483,25.201,3.795,8.113,9.688,19.669,5.153,28.568-8.908,17.48-40.892,13.84-56.703,13.833-42.337-.019-84.675-.283-127.012-.435-42.315-.152-84.63-.303-126.945-.456-42.314-.153-84.629-.307-126.943-.459-42.251-.152-84.502-.306-126.752-.46-42.251-.154-84.501-.308-126.752-.462-42.211-.153-84.422-.309-126.633-.464-42.142-.155-84.285-.314-126.428-.465-42.143-.152-84.285-.307-126.427-.464-37.738-.14-75.475-.334-113.213-.54V-849.582c33.239-.088,66.478-.177,99.716-.256Z" style="fill: #fff;"/>
      <path d="M512.219-849.756c46.54-.111,93.08-.241,139.62-.352,46.254-.111,92.508-.23,138.761-.35,46.605-.122,93.21-.235,139.815-.347,46.778-.112,93.556-.242,140.334-.354,46.818-.112,93.636-.22,140.454-.348,46.67-.128,93.34-.242,140.01-.353,46.54-.111,93.08-.235,139.621-.346,23.249-.056,46.499-.117,69.748-.173,11.881-.029,23.769-.172,35.65-.042,10.242.112,21.907-.083,31.063,5.248,9.345,5.441,13.14,14.294,15.673,24.242,3.116,12.236,5.132,24.727,7.537,37.122,2.873,14.805,5.579,29.631,7.81,44.55,6.326,42.301,9.201,85.007,5.215,127.691-1.117,11.957-2.758,23.824-4.859,35.647-.884,4.972-1.869,9.918-2.935,14.858-1.616,7.479-3.389,14.899-5.45,22.268-13.353,47.748-33.819,92.766-58.445,135.728-6.998,12.208-14.254,24.269-21.736,36.185-4.007,6.382-8.082,12.72-12.174,19.048,0,0-2.43,3.713-2.431,3.715-4.085,6.233-8.189,12.451-12.32,18.659-.004.006-2.5,3.718-2.5,3.718-4.133,6.139-8.286,12.265-12.444,18.389-.002.002-2.533,3.713-2.535,3.715-4.158,6.107-8.328,12.202-12.492,18.303-.002.002-2.541,3.712-2.541,3.712-4.163,6.104-8.331,12.203-12.48,18.318-2.083,3.071-4.155,6.148-6.224,9.227-3.733,5.557-7.44,11.132-11.148,16.705-4.116,6.186-8.228,12.374-12.388,18.532-7.867,11.646-15.778,23.266-24.008,34.664-4.238,5.869-8.578,11.656-12.936,17.434-3.106,4.119-6.231,8.221-9.375,12.308-17.216,22.372-34.794,44.46-51.868,66.948-4.37,5.756-8.715,11.525-12.957,17.375-15.871,21.886-30.914,44.221-44.23,67.757-11.03,19.496-20.21,39.782-27.453,60.979-2.506,7.334-4.747,14.69-6.425,22.256-2.955,13.323-7.011,33.983,7.537,42.468,12.039,7.021,31.995,2.945,45.171,2.601,33.247-.868,66.348-.243,99.554,1.671,18.346,1.057,36.62,3,54.894,4.896,19.871,2.061,39.632,4.754,59.398,7.662,14.886,2.19,29.742,4.475,44.55,7.128,24.895,4.461,49.642,9.304,74.245,15.184,31.499,7.528,62.404,17.085,92.576,28.877,29.919,11.694,59.147,25.396,87.581,40.324,27.77,14.58,55.147,30.189,80.605,48.569,25.178,18.177,47.715,39.539,65.787,64.866,18.18,25.477,31.99,53.7,46.471,81.351,1.882,3.594,3.76,7.192,5.669,10.787,16.853,31.733,34.672,62.892,54.216,93.037,19.377,29.889,45.141,59.889,55.943,94.282,7.094,22.588,1.673,43.169-8.784,63.582-6.566,12.817-14.468,24.896-22.072,37.128-12.132,19.518-25.516,37.722-39.518,55.906-9.296,12.072-21.532,21.769-30.504,34.034-9.681,13.233-15.158,28.97-15.157,45.254,0,2.396.752,4.732,1.127,7.104,0,.006,2.35,7.72,2.351,7.724.896,2.483,1.917,4.921,2.68,7.451,6.536,21.671,2.444,44.689,7.321,66.823,1.676,7.606,4.073,14.961,6.772,22.267,11.13,30.131,26.478,58.307,40.707,87.04,3.993,8.064,7.932,16.152,11.686,24.333,12.141,26.461,22.517,53.359,29.425,81.675,3.588,14.707,6.337,29.531,8.231,44.55,4.381,34.738,5.077,69.306-.379,103.943-6.054,38.428-18.907,75.134-32.811,111.373-3.817,9.947-7.795,19.826-11.863,29.68-23.24,56.284-48.107,112.155-77.101,165.742-7.972,14.733-16.386,29.08-26.856,42.17-21.526,26.914-48.63,47.737-81.933,57.982-35.337,10.871-73.338,8.545-109.756,6.691-20.25-1.031-40.483-2.374-60.737-3.318-36.73-1.712-73.652-3.811-110.431-3.194-10.273.172-20.466.668-30.639,2.085-19.763,2.753-38.962,8.578-54.872,21.122-15.557,12.266-25.782,29.254-32.689,47.586-7.272,19.3-11.39,39.741-15.006,59.993-3.744,20.967-6.287,41.821-3.627,63.081,5.08,40.603,15.877,80.337,22.636,120.661,7.116,42.45,4.534,85.051-2.928,127.26-7.23,40.894-17.827,81.09-26.945,121.581-9.047,40.176-16.646,80.751-19.487,121.89-2.882,41.746-.508,83.929,7.958,124.938,8.404,40.708,22.462,80.061,40.188,117.609,17.077,36.173,37.34,70.729,58.91,104.385,9.807,15.301,19.955,30.386,29.372,45.934,4.907,8.102,9.746,16.268,13.977,24.746,3.754,7.525,9.772,18.574,5.896,27.173-3.755,8.329-15.345,12.044-23.38,13.022-33.693,4.102-68.572,1.253-102.48,1.138-33.154-.112-66.308-.228-99.462-.342-67.308-.231-134.615-.462-201.923-.698-67.832-.238-135.665-.473-203.497-.708-67.176-.233-134.351-.471-201.527-.707-66.803-.235-133.607-.392-200.409-.782-7.583-.044-15.165-.096-22.748-.134-25.5-.129-51.001-.217-76.501-.302V-849.716c5.211-.013,10.422-.027,15.634-.039Z"/>
      <path d="M551.755-849.886c66.646-.16,133.291-.319,199.936-.479,66.824-.16,133.648-.326,200.472-.486,66.685-.16,133.37-.325,200.056-.485,66.822-.16,133.644-.32,200.466-.48,66.824-.16,133.648-.421,200.472-.474,15.516-.012,33.37-1.683,46.915,7.121,13.203,8.582,15.438,25.953,18.94,40.165,7.511,30.48,14.957,60.968,20.033,91.969,10.211,62.361,9.08,124.762-7.219,185.939-15.532,58.299-44.024,112.239-76.009,163.084-31.912,50.728-66.779,99.76-100.962,148.975-33.207,47.81-70.738,92.182-105.484,138.829-35.678,47.898-69.528,100.462-81.918,159.746-4.738,22.673-14.316,72.997,18.413,79.213,14.135,2.685,30.646-.724,44.958-1.107,16.446-.44,32.917-.926,49.369-.57,61.993,1.342,123.646,8.228,184.77,18.466,59.343,9.94,118.239,22.963,174.498,44.636,53.404,20.573,106.441,47.417,152.542,81.482,23.746,17.546,45.212,37.929,62.706,61.779,17.122,23.342,30.172,49.234,43.408,74.885,27.186,52.684,56.917,102.599,91.08,151.067,16.573,23.512,38.389,49.79,34.344,80.435-3.693,27.985-22.123,53.814-37.547,76.676-16.229,24.056-36.42,44.405-55.227,66.36-9.29,10.845-18.873,22.895-19.824,37.736-.965,15.053,2.7,31.015,3.885,46.045,4.832,61.324,36.902,112.265,61.166,167.276,24.062,54.554,40.905,113.197,40.061,173.238-.866,61.571-24.374,117.796-50.679,172.382-25.795,53.528-53.27,106.702-84.05,157.553-30.869,51-64.427,101.307-123.9,120.609-58.376,18.946-123.803,12.382-183.846,7.32-57.551-4.852-131.423-14.6-173.006,35.196-19.217,23.012-28.117,52.589-34.337,81.402-6.67,30.899-10.75,62.428-14.761,93.764-1.892,14.781-3.639,29.631-2.568,44.553,1.075,14.979,4.271,29.806,7.113,44.535,5.673,29.4,11.626,58.641,11.832,88.7.205,29.921-4.078,59.805-9.893,89.094-11.479,57.825-28.353,114.472-37.919,172.697-9.717,59.143-11.236,119.189.595,178.155,11.345,56.542,34.257,110.084,62.38,160.205,13.926,24.818,29.078,48.923,44.847,72.606,15.691,23.565,33.568,47.053,45.111,73.029,3.144,7.076,5.9,13.023,2.19,19.769-4.17,7.585-11.726,10.577-20.501,11.861-8.016,1.173-16.096,1.52-24.19,1.626-17.047.224-34.107-.01-51.155-.066-32.8-.108-65.601-.214-98.401-.321-66.824-.219-133.648-.436-200.472-.659-66.469-.221-132.937-.439-199.406-.66-66.824-.222-133.648-.438-200.473-.667-66.548-.229-133.096-.6-199.644-.81-28.112-.089-56.225-.178-84.337-.266V-849.752c18.39-.045,36.78-.09,55.169-.134Z" style="fill: #fff;"/>
      <path d="M588.347-849.867c47.377-.113,94.754-.239,142.132-.327,47.77-.089,95.541-.212,143.311-.327,47.529-.114,95.057-.21,142.586-.324,47.619-.114,95.238-.21,142.857-.324,47.16-.113,94.321-.227,141.482-.321,47.337-.095,94.675-.215,142.012-.328,24.12-.058,48.241-.163,72.361-.151,21.212.01,49.021-2.016,60.226,20.246,9.479,18.832,13.864,41.574,19.793,61.77,6.238,21.25,12.09,42.631,16.781,64.28,9.837,45.398,14.419,91.839,9.722,138.184-4.556,44.953-17.464,88.726-35.982,129.863-18.881,41.944-42.627,81.434-67.974,119.748-24.004,36.284-48.673,72.226-73.783,107.753-25.552,36.152-53.619,70.246-80.855,105.112-27.524,35.235-54.758,71.355-75.17,111.297-20.883,40.863-34.182,85.245-31.488,131.498,1.152,19.771,4.074,51.278,23.76,62.016,10.919,5.956,23.374,3.901,35.239,3.113,11.937-.793,23.898-1.04,35.856-1.288,46.972-.975,93.748,2.523,140.346,8.248,46.016,5.654,92.058,13.852,137.13,24.721,43.293,10.439,85.576,23.775,126.282,41.937,38.887,17.351,75.826,39.66,108.285,67.304,33.444,28.484,58.548,62.663,79.01,101.323,20.387,38.521,38.748,77.989,61.211,115.399,10.788,17.966,22.332,35.5,34.374,52.649,12.403,17.664,28.495,35.538,35.518,56.24,14.786,43.59-25.313,86.701-50.557,117.837-28.266,34.863-62.841,71.02-52.876,119.547,8.634,42.042,32.598,81.446,51.607,119.458,19.885,39.765,35.168,81.372,42.481,125.362,7.603,45.733,5.614,91.356-10.249,135.19-14.862,41.068-39.57,77.686-62.29,114.687-22.625,36.844-42.345,75.228-63.316,113.005-20.933,37.71-43.732,75.797-76.261,104.75-32.256,28.709-72.697,42.348-115.329,45.455-46.836,3.413-93.004-5.384-139.373-10.265-43.403-4.569-91.737-5.665-126.63,24.929-33.096,29.018-43.762,77.152-50.898,118.613-7.897,45.886-12.337,92.468-17.38,138.734-2.534,23.25-4.239,44.926-.162,68.13,3.971,22.602,8.57,44.882,9.982,67.848,2.822,45.909-6.236,91.889-16.512,136.404-10.17,44.054-21.816,87.78-29.625,132.346-8.072,46.068-11.559,93.178-6.926,139.819,4.407,44.363,16.02,87.662,32.875,128.873,16.403,40.105,37.542,78.145,60.749,114.679,11.364,17.891,23.29,35.386,35.179,52.929,11.701,17.267,24.612,34.889,33.363,53.896,2.39,5.19,4.197,10.493,3.439,16.155-.951,7.103-4.513,9.549-10.539,12.632-10.634,5.44-23.291,4.992-35.006,5.116-23.837.252-47.69-.075-71.528-.149-47.507-.148-95.014-.298-142.521-.445-47.377-.147-94.754-.296-142.132-.446-47.229-.149-94.458-.296-141.688-.445-47.436-.15-94.871-.266-142.307-.492-46.68-.223-93.36-.407-140.041-.545-47.377-.141-94.754-.29-142.131-.423-20.06-.056-40.12-.12-60.18-.182V-849.659c30.587-.068,61.175-.135,91.762-.208Z"/>
      <path d="M624.647-849.74c51.136-.104,102.273-.234,153.409-.322,50.964-.088,101.927-.214,152.891-.323,51.484-.109,102.968-.226,154.453-.329,51.483-.103,102.965-.205,154.448-.329,50.963-.122,101.926-.209,152.889-.325,26.112-.059,52.224-.14,78.336-.164,23.944-.022,52.675-2.17,64.753,23.085,10.2,21.329,17.087,45.009,25.099,67.249,8.25,22.902,16.14,45.986,22.571,69.474,13.071,47.743,20.352,96.875,16.607,146.432-3.731,49.369-18.393,97.02-39.005,141.84-20.308,44.158-46.196,85.576-73.087,125.969-24.355,36.583-48.798,73.131-75.672,107.928-29.134,37.724-60.161,73.998-87.726,112.92-27.812,39.271-53.048,81.798-64.871,128.874-12.097,48.171-7.648,101.507,14.049,146.408,5.418,11.213,13.081,21.748,23.881,28.167,11.456,6.808,24.392,5.461,37.244,4.868,25.597-1.182,51.176-1.346,76.762.099,50.483,2.85,100.641,10.002,150.118,20.4,47.945,10.076,95.528,22.869,141.18,40.786,45.443,17.834,86.911,42.373,122.506,75.999,36.304,34.296,59.334,76.356,79.445,121.5,19.501,43.775,38.198,87.969,60.153,130.604,10.701,20.78,27.163,41.073,33.348,63.746,6.716,24.62-4.868,47.866-17.772,68.245-25.377,40.079-62.771,80.072-58.726,131.054,3.881,48.909,35.653,92.86,55.789,136.25,20.525,44.228,31.218,93.994,24.696,142.776-6.504,48.653-34.698,88.575-65.896,124.828-15.669,18.208-31.215,36.595-44.607,56.576-13.353,19.923-24.566,40.988-34.885,62.613-20.708,43.395-39.437,89.929-74.815,123.897-37.838,36.328-88.914,41.33-138.485,32.366-49.639-8.976-98.589-23.088-149.556-16.971-23.921,2.871-47.788,10.063-68.101,23.255-20.243,13.146-33.358,33.029-43.041,54.739-20.601,46.187-27.77,96.016-30.713,146.146-2.98,50.758-5.482,102.152-5.705,152.998-.225,51.162,17.732,100.114,16.913,151.417-.804,50.354-12.924,99.719-24.337,148.495-11.506,49.173-23.233,98.582-27.411,149.039-4.199,50.706-.855,101.49,11.623,150.874,11.665,46.169,30.867,89.648,53.465,131.427,23.092,42.692,51.567,81.832,77.858,122.511,6.708,10.38,13.381,20.844,19.076,31.823,2.727,5.257,5.294,11.246,4.936,17.203-.496,8.243-4.811,11.18-11.688,14.427-11.454,5.408-25.465,4.258-37.908,4.263-12.969.005-25.939-.061-38.908-.1-51.136-.154-102.273-.311-153.409-.463-50.963-.151-101.927-.307-152.89-.461-51.484-.156-102.969-.293-154.453-.555-50.999-.259-101.998-.371-152.997-.518-50.963-.147-101.927-.315-152.89-.426-42.333-.093-84.667-.239-127.001-.373V-849.468c42.687-.091,85.374-.186,128.061-.273Z" style="fill: #fff;"/>
      <path d="M528.128-849.456c69.434-.134,138.869-.271,208.303-.41,69.789-.139,139.579-.281,209.369-.412,69.78-.13,139.561-.291,209.341-.412,69.824-.12,139.648-.291,209.471-.412,17.809-.031,35.618-.07,53.427-.103,17.259-.032,35.032-1.234,52.176,1.025,17.593,2.319,27.273,13.521,34.177,28.971,6.716,15.03,13.033,30.26,19.603,45.357,26.052,59.856,51.833,120.779,60.545,185.995,9.08,67.977-2.727,135.622-29.759,198.356-26.307,61.054-63.048,117.426-100.652,172.031-36.716,53.315-79.322,102.077-117.381,154.382-38.401,52.775-72.262,111.406-77.171,177.674-2.264,30.567,2.631,60.502,12.507,89.539,9.159,26.93,22.11,55.096,39.678,77.666,9.74,12.513,21.931,24.243,36.951,29.975,15.287,5.833,32.505,3.959,48.525,4.016,32.47.117,64.897,3.626,96.972,8.436,61,9.147,123.788,23.468,180.002,49.394,52.904,24.4,105.734,60.82,134.651,112.719,15.3,27.459,24.493,57.684,31.529,88.178,7.247,31.412,13.611,63.317,16.525,95.463,2.921,32.222,3.075,65.712-.4,97.901-3.516,32.572-11.526,64.558-13.896,97.273-2.335,32.227,2.033,63.178,13.159,93.515,10.099,27.536,25.322,51.88,38.574,77.86,15.318,30.03,16.623,62.738,3.884,94.065-12.041,29.608-37.292,48.876-68.166,55.678-32.002,7.051-65.263,4.938-97.779,6.394-33.859,1.517-62.374,11.934-86.839,35.858-22.449,21.953-39.773,48.392-58.247,73.591-18.767,25.6-39.513,48.567-64.042,68.792-12.668,10.445-25.706,20.329-39.475,29.282-12.305,8.001-23.167,16.553-32.638,27.838-20.056,23.896-34.257,52.663-48.958,79.986-28.7,53.34-54.9,108.567-74.92,165.782-21.381,61.108-33.415,125.312-33.529,190.12-.058,32.815,2.772,65.507,7.414,97.974,4.591,32.114,12.474,63.746,16.44,95.929,8.087,65.631-5.964,130.705-19.202,194.71-12.88,62.274-24.433,125.078-23.03,188.94,1.409,64.131,16.973,126.384,42.277,185.133,24.825,57.636,59.283,109.632,93.172,162.149,8.361,12.957,16.695,26.072,23.714,39.814,3.119,6.107,6.458,12.843,6.005,19.817-.588,9.041-6.174,12.231-13.857,15.49-13.993,5.937-33.774,2.848-48.69,2.804-16.316-.048-32.631-.099-48.947-.147-66.469-.197-132.937-.399-199.406-.595-66.196-.196-132.392-.565-198.588-.75-66.339-.186-132.678-.381-199.018-.561-66.295-.18-132.591-.378-198.887-.569-12.152-.035-24.304-.07-36.457-.105V-849.418c10.515-.011,21.029-.018,31.543-.038Z"/>
      <path d="M506.472-849.504c49.43-.079,98.86-.174,148.29-.272,49.362-.099,98.723-.17,148.084-.266,49.322-.096,98.643-.177,147.965-.272,49.322-.095,98.643-.193,147.965-.272,49.015-.078,98.03-.192,147.045-.27,45.523-.073,91.046-.175,136.568-.248,12.374-.02,24.748-.07,37.122-.065,11.872.005,25.776-1.153,36.627,4.434,19.666,10.125,26.872,35.738,36.204,54.413,20.495,41.009,41.824,81.711,58.72,124.387,17.077,43.133,29.559,88.461,31.809,134.983,2.344,48.46-6.749,96.239-23.644,141.559-15.804,42.393-38.036,82.172-61.944,120.46-24.159,38.689-49.942,76.256-77.811,112.369-27.419,35.53-55.772,70.443-80.824,107.722-26.115,38.86-49.269,80.831-59.827,126.815-10.657,46.416-6.217,94.09,10.535,138.505,15.894,42.14,40.564,80.865,67.744,116.571,14.077,18.492,29.73,36.049,47.731,50.81,18.434,15.117,38.616,23.471,62.149,26.796,46.592,6.583,92.115,17.116,134.86,37.349,40.427,19.135,81.546,47.312,100.346,89.436,20.062,44.952,12.027,96.373-2.153,141.752-13.742,43.976-34.386,86.369-43.602,131.634-4.903,24.08-6.824,48.487-7.476,73.015-.618,23.28-1.786,48.109-8.762,70.488-7.016,22.505-21.529,39.726-35.302,58.253-13.743,18.487-25.657,38.243-37.124,58.206-21.996,38.294-42.152,77.584-60.732,117.628-9.315,20.075-17.696,40.772-24.678,61.772-7.333,22.056-11.979,44.813-18.587,67.074-12.303,41.449-30.591,80.758-50.54,119.015-20.743,39.78-43.106,78.689-64.132,118.317-20.617,38.859-40.076,78.43-55.864,119.525-16.696,43.459-29.016,88.483-35.029,134.694-6.095,46.842-5.195,94.366.805,141.167,5.998,46.791,19.595,92.647,22.433,139.805,2.895,48.091-3.85,96.157-10.897,143.61-6.902,46.477-14.344,92.862-17.383,139.798-3.168,48.933-.876,98.359,8.762,146.495,9.112,45.506,24.096,89.733,43.59,131.83,19.039,41.115,41.463,80.428,65.318,118.917,11.511,18.574,23.319,37.269,32.726,57.023,4.586,9.629,10.756,24.445.04,32.434-9.583,7.144-22.58,6.55-33.868,6.607-49.252.25-98.519-.255-147.772-.405-48.972-.149-97.944-.267-146.915-.446-48.838-.178-97.676-.449-146.515-.587-49.322-.139-98.643-.279-147.965-.421-49.362-.142-98.723-.283-148.084-.425-45.299-.13-90.598-.261-135.897-.393V-849.487c3.296-.005,6.591-.012,9.887-.018Z" style="fill: #fff;"/>
      <path d="M509.188-849.722c43.887-.07,87.774-.145,131.661-.228,44.235-.084,88.469-.153,132.704-.224,44.235-.071,88.47-.159,132.705-.23,43.889-.07,87.777-.152,131.666-.222,43.78-.07,87.561-.149,131.341-.227,43.954-.079,87.907-.152,131.861-.222,22.205-.035,44.41-.068,66.615-.113,11.07-.022,22.14-.058,33.21-.053,9.993.004,20.95-.673,30.509,2.717,8.873,3.147,14.703,8.849,20.371,16.135,0,0,2.311,3.712,2.312,3.715,12.444,22.246,24.445,44.722,36.998,66.912,18.921,33.446,37.692,67.06,53.383,102.184,3.291,7.368,6.475,14.76,9.461,22.256,23.85,59.867,35.626,123.166,25.897,187.416-2.577,17.021-6.648,33.736-11.659,50.188-2.288,7.513-4.861,14.908-7.602,22.271-4.695,12.612-9.958,24.94-15.658,37.125-16.024,34.253-35.507,66.807-56.01,98.546-4.053,6.274-8.156,12.513-12.281,18.742-.002.003-2.492,3.713-2.493,3.715-4.139,6.099-8.288,12.186-12.521,18.217-18.078,25.753-37.167,50.738-56.084,75.874-5.738,7.625-11.455,15.265-17.111,22.965-.006.008-4.716,6.471-4.723,6.481-33.686,46.689-66.11,95.921-82.545,151.642-4.775,16.19-8.077,32.513-9.742,49.302-1.475,14.877-1.514,29.68.006,44.547,4.315,42.201,19.133,81.613,39.239,118.797,18.99,35.121,42.214,67.774,65.97,99.786,23.867,32.161,48.622,63.718,71.217,96.803,23.245,34.037,41.792,69.789,56.994,108.082,14.52,36.575,27.865,73.646,39.199,111.341,1.464,4.868,2.927,9.726,4.286,14.629,2.052,7.404,4.015,14.824,5.921,22.267,0,.004,1.793,7.427,1.794,7.43,2.846,12.323,5.495,24.648,7.549,37.125,6.647,40.384,8.408,80.962,4.257,121.726-1.168,11.467-2.87,22.848-4.918,34.191-2.256,12.495-5.103,24.825-8.234,37.125-1.312,5.153-2.723,10.273-4.219,15.385-5.084,17.373-10.843,34.478-17.147,51.441-4.638,12.482-9.592,24.829-14.698,37.122-7.245,17.444-14.903,34.706-22.561,51.971-9.853,22.214-19.861,44.361-29.149,66.826-3.056,7.392-6.054,14.795-8.907,22.267-5.606,14.684-10.707,29.491-15.178,44.553-2.189,7.375-4.118,14.808-6.001,22.27,0,.003-1.749,7.427-1.749,7.43-1.695,7.432-3.392,14.858-5.183,22.268,0,.003-1.938,7.427-1.939,7.43-2.107,7.475-4.294,14.907-6.754,22.273-4.213,12.614-9.068,24.938-14.38,37.125-7.501,17.207-15.875,33.975-24.696,50.542-11.897,22.348-24.629,44.222-37.46,66.046-7.344,12.491-14.724,24.956-22.093,37.428-18.978,32.12-37.578,64.504-54.479,97.773-17.279,34.013-32.707,69.015-44.61,105.29-7.113,21.678-12.891,43.715-17.135,66.129-3.26,17.214-5.551,34.507-6.885,51.974-1.892,24.78-1.859,49.462-.018,74.248,1.865,25.103,5.454,49.944,10.215,74.659,4.779,24.81,11.197,49.283,15.188,74.245,2.342,14.648,3.945,29.337,4.811,44.141,1.158,19.796,1.148,39.582.462,59.396-1.201,34.719-4.363,69.319-7.021,103.949-3.981,51.868-7.059,103.913-3.861,155.92.916,14.893,2.235,29.739,4.068,44.55.922,7.449,1.969,14.87,3.208,22.27,6.79,40.541,17.136,80.112,31.053,118.801,2.689,7.474,5.524,14.881,8.43,22.271,1.957,4.979,3.978,9.927,6.067,14.855,5.291,12.486,10.797,24.857,16.58,37.118,6.128,12.992,12.511,25.865,19.202,38.577,17.474,33.198,39.13,65.561,52.586,100.668,4.05,10.566,7.73,20.73-.739,28.733-10.435,9.862-24.174,7.495-38.19,7.496-13.748,0-27.497-.072-41.246-.114-27.578-.085-55.157-.168-82.736-.252-55.689-.171-111.384-.112-167.071-.586-54.697-.466-109.4-.407-164.099-.564-55.076-.158-110.152-.306-165.227-.473-55.548-.169-111.097-.326-166.645-.489-19.313-.057-38.627-.113-57.94-.17V-849.701c4.201-.007,8.402-.015,12.603-.021Z"/>
      <path d="M596.302-850.164c39.776-.063,79.552-.127,119.328-.19,39.841-.064,79.682-.127,119.523-.191,39.841-.064,79.682-.127,119.523-.191,40.124-.064,80.248-.128,120.372-.192,39.841-.064,79.682-.127,119.523-.191,39.841-.064,79.682-.133,119.523-.197,19.977-.032,39.954-.07,59.931-.096,18.417-.024,40.676-2.895,55.122,11.085,13.198,12.773,21.072,32.639,30.531,48.217,9.797,16.135,19.833,32.124,29.704,48.215,19.762,32.215,39.136,64.829,55.233,99.062,15.563,33.097,28.491,67.704,35.135,103.774,7.083,38.451,7.158,78.143-.575,116.511-7.526,37.344-21.178,73.257-38.405,107.169-17.149,33.76-36.972,66.052-57.889,97.594-20.195,30.454-41.888,59.856-63.28,89.469-22.124,30.625-43.712,61.685-62.43,94.539-18.572,32.597-33.815,67.45-42.062,104.147-8.48,37.734-8.179,76.718.168,114.435,7.919,35.784,22.728,69.662,40.206,101.741,17.205,31.577,37.217,61.498,57.38,91.234,20.787,30.655,42.042,61.026,60.573,93.128,19.044,32.99,31.526,67.873,43.052,104.014,10.972,34.404,21.972,68.822,30.9,103.827,9.25,36.272,16.251,73.198,19.149,110.553,2.914,37.558,1.773,75.048-3.61,112.318-5.075,35.134-13.626,69.444-24.366,103.267-10.224,32.199-22.407,63.755-35.055,95.068-12.833,31.77-26.193,63.384-37.823,95.622-11.893,32.966-20.54,66.242-28.459,100.336-8.169,35.169-21.862,68.51-38.557,100.448-16.584,31.726-35.355,62.244-54.438,92.514-18.126,28.751-36.469,57.363-54.082,86.433-17.555,28.974-34.183,58.529-49.002,89.002-14.59,30.002-27.14,61.121-36.535,93.147-9.879,33.674-16.144,68.369-18.094,103.424-2.041,36.688.829,73.513,7.012,109.695,5.89,34.47,15.895,67.998,22.725,102.263,6.974,34.988,10.149,70.638,11.655,106.248,1.576,37.274,1.435,74.601,1.643,111.9.205,36.701.926,73.387,3.289,110.02,2.359,36.549,6.373,73.032,12.995,109.068,6.645,36.158,15.438,71.801,26.474,106.871,10.468,33.264,23.055,65.801,36.819,97.829,13.797,32.103,30.174,63.03,43.792,95.2,5.699,13.462,18.785,38.007,4.259,49.97-13.471,11.094-38.84,6.563-54.988,6.513-37.301-.113-74.602-.227-111.903-.342-37.369-.115-74.739-.228-112.109-.343-36.217-.111-72.433-.388-108.65-.495-37.366-.11-74.732-.215-112.098-.323-37.366-.107-74.732-.219-112.098-.324-37.301-.105-74.602-.218-111.903-.327-37.367-.109-74.735-.22-112.103-.329-8.245-.024-16.49-.049-24.736-.073V-850.005c33.239-.053,66.478-.106,99.716-.159Z" style="fill: #fff;"/>
      <path d="M561.16-850.452c48.034-.077,96.068-.142,144.101-.218,47.514-.076,95.029-.159,142.543-.216,47.514-.057,95.028-.134,142.543-.21,48.034-.077,96.068-.142,144.101-.218,47.861-.077,95.721-.141,143.582-.218,23.648-.038,47.296-.07,70.943-.107,21.557-.034,50.53-4.966,67.134,12.013,7.855,8.033,13.128,18.484,18.966,27.977,5.993,9.744,12.243,19.324,18.517,28.889,12.632,19.261,25.465,38.389,37.942,57.752,24.398,37.864,47.495,76.747,65.026,118.329,18.085,42.897,29.143,88.901,28.333,135.632-.809,46.694-13.328,91.893-32.051,134.437-18.517,42.074-42.767,81.543-68.044,119.84-24.091,36.5-49.88,71.845-73.916,108.381-24.391,37.075-47.41,75.585-63.456,117.101-16.828,43.54-25.22,89.552-21.344,136.237,3.691,44.447,18.325,87.434,37.426,127.493,19.389,40.662,43.068,79.006,66.29,117.54,23.55,39.077,47.414,78.784,61.933,122.276,14.28,42.777,22.607,88.466,31.432,132.648,9.075,45.436,16.09,91.21,18.131,137.551,2.062,46.804-1.318,93.718-9.414,139.844-7.911,45.075-20.31,89.233-34.585,132.673-14.286,43.473-30.311,86.35-44.556,129.836-7.119,21.733-13.579,43.677-18.973,65.903-5.366,22.114-9.06,44.614-15.682,66.411-12.93,42.57-34.878,81.76-58.258,119.367-23.641,38.025-49.335,74.733-74.067,112.046-24.156,36.444-47.605,73.433-67.858,112.217-20.221,38.722-37.405,79.333-47.983,121.809-11.304,45.396-15.067,92.139-10.902,138.745,4.094,45.812,16.449,89.385,28.319,133.61,11.932,44.458,20.108,89.679,25.923,135.324,5.776,45.34,9.813,90.89,13.97,136.4,4.287,46.941,9.217,93.859,16.03,140.507,6.701,45.887,15.471,91.442,26.654,136.45,10.956,44.091,24.594,87.413,40.101,130.103,7.806,21.491,16.704,42.568,24.445,64.082,3.839,10.669,7.855,21.524,10.301,32.617,1.349,6.119,2.184,12.123.361,18.178-1.917,6.37-4.324,8.805-10.129,11.827-10.411,5.419-22.827,4.246-34.276,4.23-12.237-.017-24.474-.073-36.711-.11-23.65-.072-47.3-.142-70.95-.212-47.947-.142-95.894-.289-143.841-.434-46.847-.142-93.694-.413-140.541-.58-47.514-.169-95.029-.276-142.543-.413-47.514-.137-95.029-.237-142.543-.396-42.333-.142-84.667-.258-127.001-.379V-850.354c21.525-.032,43.05-.064,64.574-.098Z"/>
      <path d="M558.238-850.809c47.161-.075,94.321-.148,141.482-.202,47.377-.055,94.754-.122,142.131-.198,47.507-.076,95.014-.158,142.521-.201,47.55-.044,95.101-.125,142.651-.201,47.507-.076,95.014-.149,142.521-.199,23.255-.025,46.509-.068,69.764-.099,22.587-.03,49.293-4.12,65.861,14.481,7.829,8.79,13.459,19.544,19.901,29.363,6.193,9.441,12.577,18.753,18.986,28.049,12.35,17.912,24.83,35.733,37.026,53.751,25.548,37.743,49.917,76.599,68.506,118.311,18.785,42.153,31.196,87.598,31.4,133.984.202,45.998-11.462,90.435-29.074,132.634-17.626,42.232-41.907,81.323-66.504,119.758-23.885,37.323-49.476,73.542-72.493,111.425-23.783,39.143-45.66,79.991-59.59,123.786-14.173,44.559-19.652,91.025-14.236,137.569,5.195,44.646,19.952,87.79,38.26,128.638,18.537,41.36,40.631,80.945,61.256,121.269,20.756,40.579,39.923,82.513,47.978,127.679,8.268,46.363,12.882,93.836,17.787,140.658,4.904,46.809,7.25,94.013,5.954,141.071-1.3,47.18-6.456,94.188-15.006,140.598-8.327,45.199-19.628,89.703-31.816,133.996-12.263,44.563-25.646,88.837-36.525,133.77-10.819,44.685-16.019,90.841-35.051,133.121-18.396,40.87-42.686,78.624-68.049,115.461-25.516,37.058-52.119,73.356-77.298,110.648-25.59,37.902-49.773,76.894-69.486,118.217-19.889,41.692-34.952,85.938-41.379,131.795-6.579,46.942-4.055,94.89,5.999,141.165,9.806,45.133,25.962,88.483,38.714,132.806,12.673,44.048,23.305,88.675,32.508,133.57,9.223,44.991,17.083,90.238,24.371,135.579,7.394,45.999,14.312,92.072,21.595,138.088,7.158,45.223,14.906,90.408,24.334,135.218,9.521,45.248,21.082,89.781,33.982,134.172,3.105,10.685,6.074,21.405,8.734,32.211,2.617,10.631,6.628,23.367,4.45,34.358-5.043,25.459-40.695,19.538-59.797,19.484-47.377-.135-94.754-.276-142.132-.412-47.265-.136-94.531-.275-141.796-.412-47.024-.136-94.047-.304-141.071-.525-47.528-.223-95.057-.312-142.586-.444-47.529-.132-95.057-.267-142.586-.384-21.283-.052-755.485-.119-776.768-.182V-850.723c20.551-.029,754.02-.053,774.571-.086Z" style="fill: #fff;"/>
    </g>
  </g>
</svg>